<ttFont>
          <CharString index="0">
            vhcurveto
            -106 callsubr
            return
          </CharString>
          <CharString index="1">
            15 callsubr
            158 4 140 137 -105 callsubr
            return
          </CharString>
          <CharString index="2">
            -90 callsubr
            -103 callgsubr
            return
          </CharString>
          <CharString index="3">
            -104 callgsubr
            -8 22 -46 vhcurveto
            return
          </CharString>
          <CharString index="4">
            hlineto
            -104 callsubr
            return
          </CharString>
          <CharString index="5">
            rmoveto
            -67 callgsubr
            -82 -1 -77 -2 -73 vhcurveto
            -54 -42 -70 -19 -51 hhcurveto
            -94 -67 57 39 hvcurveto
            44 152 44 98 vvcurveto
            41 -18 37 -20 27 vhcurveto
            return
          </CharString>
          <CharString index="6">
            17 callsubr
            vhcurveto
            0 17 1 3 vvcurveto
            -95 callgsubr
          </CharString>
          <CharString index="7">
            -103 callsubr
            endchar
          </CharString>
          <CharString index="8">
            vvcurveto
            -98 callgsubr
            return
          </CharString>
          <CharString index="9">
            -99 callsubr
            158 4 140 137 vvcurveto
            return
          </CharString>
          <CharString index="10">
            -106 callgsubr
            194 -82 callgsubr
            -52 42 -36 50 -14 hvcurveto
            -83 callgsubr
            return
          </CharString>
          <CharString index="11">
            4 7 -93 callgsubr
            return
          </CharString>
          <CharString index="12">
            646 -102 callgsubr
            return
          </CharString>
          <CharString index="13">
            rmoveto
            -97 callsubr
            return
          </CharString>
          <CharString index="14">
            255 callgsubr
            -133 130 -135 46 -91 callgsubr
            return
          </CharString>
          <CharString index="15">
            -79 -51 -60 -67 -86 71 -64 43 11 6 7 6 1 hvcurveto
            -46 24 -32 44 51 vvcurveto
            47 28 53 64 68 35 -64 -59 -116 -100 -91 -141 -112 -93 63 93 -32 vhcurveto
            89 60 70 85 61 -24 62 -33 46 hvcurveto
            return
          </CharString>
          <CharString index="16">
            -42 -27 -36 -29 -88 callsubr
            155 callsubr
            23 35 24 46 hhcurveto
            return
          </CharString>
          <CharString index="17">
            vvcurveto
            31 -3 36 -64 callgsubr
            return
          </CharString>
          <CharString index="18">
            -49 -91 callsubr
            return
          </CharString>
          <CharString index="19">
            hvcurveto
            42 -39 -54 -88 callgsubr
            24 -6 return
          </CharString>
          <CharString index="20">
            hhcurveto
            59 53 -41 -66 -53 -39 -57 -80 -12 -12 2 3 -14 hvcurveto
            -2 -5 -1 -4 -5 vvcurveto
            -25 29 -18 34 88 56 63 70 96 -86 89 -89 -53 -41 -27 -37 -25 vhcurveto
            4 40 0 38 38 -41 callgsubr
          </CharString>
          <CharString index="21">
            120 93 87 118 100 -82 113 -91 -63 -39 -53 -53 -80 72 -63 47 9 9 5 10 4 hvcurveto
            -48 20 -39 43 46 vvcurveto
            43 26 34 43 63 37 -69 -75 -112 -76 -59 -108 -3 vhcurveto
            46 -11 -27 50 -38 hhcurveto
            -27 -17 -21 -25 -45 44 -37 54 -14 hvcurveto
            -96 30 62 -145 111 hhcurveto
            32 19 20 24 8 -2 9 -5 9 hvcurveto
            -5 -14 -15 -3 -17 hhcurveto
            -71 -55 62 111 -38 hvcurveto
            return
          </CharString>
          <CharString index="22">
            -98 callsubr
            31 return
          </CharString>
          <CharString index="23">
            13 callgsubr
            -95 -77 41 67 -50 110 callgsubr
            -41 115 -100 146 92 65 53 65 67 -63 79 -92 vhcurveto
            -29 -26 -4 -25 hhcurveto
            -51 -33 24 42 54 53 16 41 245 callgsubr
            86 17 44 26 31 -16 26 -23 22 hvcurveto
            return
          </CharString>
          <CharString index="24">
            8 -12 2 -36 -34 return
          </CharString>
          <CharString index="25">
            -104 21 56 -97 callgsubr
            return
          </CharString>
          <CharString index="26">
            hvcurveto
            158 1 -102 137 -90 callsubr
            return
          </CharString>
          <CharString index="27">
            -22 -14 -15 -21 -26 23 -23 26 22 14 16 20 26 -25 23 -24 hvcurveto
            return
          </CharString>
          <CharString index="28">
            16 -27 7 -27 -27 vvcurveto
            -25 -16 -22 -31 -1 vhcurveto
            -25 4 22 -11 19 hhcurveto
            26 27 21 42 44 -23 42 -24 37 hvcurveto
            14 15 8 21 25 vvcurveto
            32 -24 39 -37 -28 -17 -24 -23 -22 10 -18 14 -16 vhcurveto
            -14 -26 -32 271 callsubr
            42 85 hvcurveto
            168 283 -40 126 -21 callsubr
          </CharString>
          <CharString index="29">
            10 19 22 6 27 hhcurveto
            20 27 -7 -7 15 14 callsubr
            -31 24 -56 -95 -62 -71 -78 return
          </CharString>
          <CharString index="30">
            rmoveto
            271 callgsubr
            221 224 vlineto
            35 22 -4 -11 16 hvcurveto
            13 6 10 11 18 vvcurveto
            26 -28 6 -61 vhcurveto
            -231 269 287 hlineto
            37 20 -7 -20 16 hvcurveto
            17 4 12 13 18 vvcurveto
            27 -28 17 -60 vhcurveto
            -311 hlineto
            -43 -19 -10 -24 -15 hvcurveto
            15 -6 8 -6 -20 vvcurveto
            -526 vlineto
            -88 47 -32 93 vhcurveto
            207 hlineto
            78 28 24 34 14 -12 17 -17 4 hvcurveto
            262 callgsubr
            -37 hhcurveto
            endchar
          </CharString>
          <CharString index="31">
            595 -102 callsubr
            -232 67 callsubr
            return
          </CharString>
          <CharString index="32">
            rmoveto
            -80 callsubr
            return
          </CharString>
          <CharString index="33">
            -29 callgsubr
            -50 81 -232 159 63 54 41 74 66 -44 54 -27 27 hvcurveto
            return
          </CharString>
          <CharString index="34">
            vvcurveto
            -134 128 -89 35 callgsubr
            61 111 98 83 49 66 62 41 -34 -48 -41 -30 -32 -52 -2 hvcurveto
            -28 23 -14 24 50 32 46 48 68 -67 84 -105 -41 -36 -12 -19 -28 vhcurveto
            -19 21 -14 23 28 vvcurveto
            39 29 43 62 vhcurveto
            28 23 -1 29 228 callsubr
            34 -17 30 -22 21 hvcurveto
            165 -100 callsubr
          </CharString>
          <CharString index="35">
            6 vhcurveto
            -30 callgsubr
            return
          </CharString>
          <CharString index="36">
            hhcurveto
            -92 callsubr
            -262 51 rmoveto
            -46 callgsubr
            return
          </CharString>
          <CharString index="37">
            59 43 63 85 19 21 -4 -7 19 -45 callsubr
            return
          </CharString>
          <CharString index="38">
            rmoveto
            -38 callsubr
            -291 vlineto
            -115 59 -54 105 81 56 45 53 31 vhcurveto
            -41 57 callsubr
            endchar
          </CharString>
          <CharString index="39">
            -1 -2 -1 return
          </CharString>
          <CharString index="40">
            hlineto
            -74 callsubr
            return
          </CharString>
          <CharString index="41">
            rmoveto
            170 callsubr
            153 1 -99 133 vvcurveto
            10 -1 12 -5 13 vhcurveto
            77 -66 116 -123 58 -62 rrcurveto
            -44 -42 -51 -22 -58 hhcurveto
            -264 419 -102 callgsubr
            55 hlineto
            -64 callsubr
            129 callgsubr
            return
          </CharString>
          <CharString index="42">
            -71 callsubr
            38 callsubr
            return
          </CharString>
          <CharString index="43">
            -61 callsubr
            vvcurveto
            return
          </CharString>
          <CharString index="44">
            -62 callgsubr
            -81 98 return
          </CharString>
          <CharString index="45">
            vvcurveto
            -122 137 -89 109 99 69 58 75 76 -68 53 -67 -49 -49 -31 -59 -37 23 -21 24 6 6 1 3 5 vhcurveto
            -4 9 -4 13 14 vvcurveto
            42 29 26 35 31 31 -22 -43 -74 -74 -39 -64 -91 -83 61 89 vhcurveto
            175 280 -32 130 vvcurveto
            30 -12 23 -18 19 vhcurveto
            169 -100 callsubr
          </CharString>
          <CharString index="46">
            -83 callsubr
            -133 -1 82 -116 return
          </CharString>
          <CharString index="47">
            rmoveto
            -128 -117 86 202 -18 hvcurveto
            204 -18 107 127 129 hhcurveto
            130 119 -88 -203 15 hvcurveto
            -202 17 -106 -126 -130 hhcurveto
            284 310 rmoveto
            230 -130 133 -175 -178 -130 -138 -225 -229 130 -136 178 175 130 140 225 vhcurveto
            return
          </CharString>
          <CharString index="48">
            rmoveto
            147 callsubr
            -67 6 -84 2 -67 -26 callsubr
            return
          </CharString>
          <CharString index="49">
            -43 callsubr
            endchar
          </CharString>
          <CharString index="50">
            31 -39 17 -50 -50 vvcurveto
            -76 -38 -50 -72 -5 vhcurveto
            37 -6 -14 43 -39 hhcurveto
            -23 -17 -17 -28 return
          </CharString>
          <CharString index="51">
            vvcurveto
            -105 113 -75 109 23 27 5 11 23 vhcurveto
            15 -26 6 -26 -25 vvcurveto
            -25 -16 -22 -31 -1 vhcurveto
            -25 4 22 -11 19 hhcurveto
            26 27 21 42 41 -20 40 -23 35 hvcurveto
            17 15 11 20 26 vvcurveto
            38 -26 25 -29 -28 -21 -23 -27 -14 4 -14 10 -14 vhcurveto
            -13 -27 -30 -4 -29 hhcurveto
            -69 -54 46 63 return
          </CharString>
          <CharString index="52">
            rmoveto
            -155 77 -108 177 181 72 108 155 vhcurveto
            407 202 callgsubr
            -15 -13 -16 -8 vhcurveto
            15 -5 8 -7 -19 vvcurveto
            -411 vlineto
            -132 -56 -66 -134 -140 -51 72 126 vhcurveto
            414 202 callgsubr
            -14 -13 -16 213 callgsubr
            -7 -19 vvcurveto
            return
          </CharString>
          <CharString index="53">
            -58 callgsubr
            vvcurveto
            return
          </CharString>
          <CharString index="54">
            118 51 83 64 8 -1 8 -1 7 vhcurveto
            -27 23 27 -21 35 29 callsubr
            -22 34 -33 -31 -19 -27 -26 -21 7 -15 10 -16 vhcurveto
            -12 -28 -34 -6 -33 hhcurveto
            -73 -74 34 70 hvcurveto
            132 283 -41 112 vvcurveto
            21 -9 18 -11 13 vhcurveto
            194 -100 callsubr
          </CharString>
          <CharString index="55">
            rmoveto
            -49 -123 -99 -33 -16 9 -12 18 -7 hvcurveto
            75 70 64 43 26 hhcurveto
            47 101 -98 -23 22 hvcurveto
            7 3 5 5 7 vvcurveto
            29 -138 126 -59 vhcurveto
            return
          </CharString>
          <CharString index="56">
            rmoveto
            305 148 vlineto
            121 56 -61 -92 -93 -56 -59 -121 hvcurveto
            30 -52 rmoveto
            136 10 81 74 121 vvcurveto
            130 -94 76 -154 vhcurveto
            -156 hlineto
            -43 -19 -10 -24 -15 hvcurveto
            15 -6 8 -6 -20 vvcurveto
            -597 20 callgsubr
            -7 7 18 vvcurveto
            249 99 vlineto
            178 -245 rlineto
            -45 34 14 -17 33 hhcurveto
            22 19 17 27 10 hvcurveto
            -24 -1 -13 9 -16 21 rrcurveto
            return
          </CharString>
          <CharString index="57">
            194 hlineto
            44 -35 28 -61 -68 vvcurveto
            -65 -46 -57 -83 -2 vhcurveto
            return
          </CharString>
          <CharString index="58">
            -33 callgsubr
            hvcurveto
            5 callsubr
            return
          </CharString>
          <CharString index="59">
            4 3 0 4 hhcurveto
            -41 -28 -57 -34 -50 -18 rrcurveto
            -26 4 19 -8 19 hhcurveto
            58 129 115 62 42 hvcurveto
            -5 -50 -3 -49 -48 -25 callsubr
          </CharString>
          <CharString index="60">
            -81 63 -57 84 87 62 callgsubr
            61 callsubr
            vhcurveto
            -70 callgsubr
            return
          </CharString>
          <CharString index="61">
            -47 -99 callsubr
            return
          </CharString>
          <CharString index="62">
            hvcurveto
            2 4 1 5 5 vvcurveto
            return
          </CharString>
          <CharString index="63">
            rmoveto
            150 -5 68 59 93 hhcurveto
            92 71 -59 -150 5 hvcurveto
            -149 5 -66 -61 -93 hhcurveto
            -92 -73 61 149 -5 hvcurveto
            395 hmoveto
            172 -115 88 -117 262 callsubr
            -85 -175 -174 117 -86 117 117 115 86 174 vhcurveto
            return
          </CharString>
          <CharString index="64">
            -4 callsubr
            -155 103 -87 128 88 254 callsubr
            vhcurveto
            -30 -32 -49 -20 -53 hhcurveto
            -102 -69 60 143 1 hvcurveto
            return
          </CharString>
          <CharString index="65">
            595 -55 callgsubr
            return
          </CharString>
          <CharString index="66">
            646 140 callsubr
            vvcurveto
            -83 -2 -78 -1 -75 vhcurveto
            -66 -38 -72 -40 -72 hhcurveto
            -69 -58 40 65 -51 callgsubr
            return
          </CharString>
          <CharString index="67">
            31 -3 20 -18 -30 vvcurveto
            -35 -16 -21 -23 -16 vhcurveto
            -11 3 11 -5 14 hhcurveto
            28 43 39 67 return
          </CharString>
          <CharString index="68">
            595 rmoveto
            -71 callgsubr
            return
          </CharString>
          <CharString index="69">
            37 -15 20 -28 -20 -14 -14 -15 213 callgsubr
            -8 -18 vvcurveto
            -283 vlineto
            -75 -29 -60 -44 -69 hhcurveto
            -86 -25 46 68 hvcurveto
            291 147 callgsubr
            return
          </CharString>
          <CharString index="70">
            hvcurveto
            -8 20 21 -5 22 hhcurveto
            25 33 12 33 32 -36 15 -30 return
          </CharString>
          <CharString index="71">
            128 callsubr
            -14 -15 -7 179 callsubr
            -8 -18 vvcurveto
            return
          </CharString>
          <CharString index="72">
            31 callgsubr
            -23 -16 -18 -23 -47 41 -33 51 -20 hvcurveto
            -54 callgsubr
            return
          </CharString>
          <CharString index="73">
            rrcurveto
            1 20 0 22 22 vvcurveto
            118 -4 49 -21 14 vhcurveto
            return
          </CharString>
          <CharString index="74">
            rmoveto
            -66 -60 60 96 -7 hvcurveto
            93 -8 60 61 66 hhcurveto
            65 63 -61 -93 6 hvcurveto
            -96 6 -60 -60 -65 hhcurveto
            83 -179 rmoveto
            64 31 -22 -38 -59 -62 -43 -109 -146 -39 71 72 -3 hvcurveto
            -27 -7 -21 -22 -38 vvcurveto
            -71 1 83 -65 143 hhcurveto
            118 117 70 95 71 -54 45 -98 hvcurveto
            -109 hlineto
            -67 -32 13 32 24 16 15 35 7 hvcurveto
            -9 22 24 -4 23 hhcurveto
            90 99 69 129 65 -26 50 -38 33 hvcurveto
            34 8 24 26 34 hhcurveto
            17 18 -6 -11 14 hvcurveto
            10 7 9 15 13 vvcurveto
            27 -23 22 -44 -42 -49 -41 -61 -10 vhcurveto
            16 -29 -31 8 -31 hhcurveto
            -92 -97 -71 -126 -73 31 -53 43 -33 hvcurveto
            -40 -15 -25 -28 -37 vvcurveto
            -71 66 -25 85 vhcurveto
            endchar
          </CharString>
          <CharString index="75">
            -3 -9 -1 -10 -10 vvcurveto
            -50 27 -51 34 6 5 2 2 3 vhcurveto
            -19 22 -7 27 27 vvcurveto
            29 16 28 31 60 11 -107 -78 return
          </CharString>
          <CharString index="76">
            rmoveto
            7 -11 3 -30 -31 vvcurveto
            -56 -5 -33 -54 -51 vvcurveto
            -83 59 -70 33 8 5 4 5 3 vhcurveto
            -25 26 -31 40 54 32 callsubr
            return
          </CharString>
          <CharString index="77">
            hhcurveto
            -67 -60 45 78 -20 callgsubr
            return
          </CharString>
          <CharString index="78">
            36 16 25 21 15 -9 callgsubr
            -25 hvcurveto
            -22 24 278 callsubr
            41 14 34 24 23 vhcurveto
            -190 91 callsubr
            36 24 2 2 19 vhcurveto
            52 callgsubr
            return
          </CharString>
          <CharString index="79">
            -24 -20 -2 -21 hhcurveto
            -56 -25 32 29 28 callsubr
            -367 51 rmoveto
            45 callsubr
            return
          </CharString>
          <CharString index="80">
            10 5 6 6 2 return
          </CharString>
          <CharString index="81">
            1 -34 callsubr
            return
          </CharString>
          <CharString index="82">
            80 callgsubr
            71 29 54 32 50 -87 callsubr
          </CharString>
          <CharString index="83">
            hhcurveto
            -32 -25 -17 -29 -39 41 -16 31 30 27 8 14 26 hvcurveto
            11 -8 34 -32 -54 vvcurveto
            -67 -50 -38 -64 -90 -71 78 76 -37 vhcurveto
            -11 -3 -5 -6 -11 vvcurveto
            -41 97 -146 141 83 60 50 83 return
          </CharString>
          <CharString index="84">
            hhcurveto
            -11 -11 1 1 -11 hvcurveto
            88 -6 -68 64 -85 hhcurveto
            -39 -40 -23 -34 -32 30 -7 0 hvcurveto
            34 19 26 16 33 hhcurveto
            55 31 -44 -49 -52 -37 -55 -81 -116 -64 117 92 -36 hvcurveto
            -8 -11 -4 -16 -39 94 -203 156 72 return
          </CharString>
          <CharString index="85">
            -28 -6 4 -10 22 hhcurveto
            19 hlineto
            43 20 -15 -23 -30 -26 -20 -58 -53 -36 18 31 -32 hvcurveto
            -7 247 callgsubr
            -34 56 -42 87 84 54 46 53 48 -51 27 -54 -6 -5 0 -1 -5 vhcurveto
            return
          </CharString>
          <CharString index="86">
            vvcurveto
            25 -10 20 -12 15 vhcurveto
            137 -100 callsubr
          </CharString>
          <CharString index="87">
            11 -12 2 -46 -116 vvcurveto
            -22 -1 return
          </CharString>
          <CharString index="88">
            16 7 17 8 13 hhcurveto
            75 36 -135 -82 11 hvcurveto
            66 -49 -87 83 -84 hhcurveto
            -38 -32 -22 -35 -29 22 -20 22 hvcurveto
            35 6 20 18 31 hhcurveto
            return
          </CharString>
          <CharString index="89">
            hvcurveto
            13 23 -37 callgsubr
            return
          </CharString>
          <CharString index="90">
            vhcurveto
            -3 callsubr
            return
          </CharString>
          <CharString index="91">
            123 callgsubr
            28 -28 21 -49 vhcurveto
            -215 65 -322 -208 hhcurveto
            -62 -50 46 60 -51 callgsubr
            return
          </CharString>
          <CharString index="92">
            rmoveto
            389 573 rlineto
            16 24 10 17 11 vvcurveto
            22 -15 20 -32 vhcurveto
            -307 hlineto
            -46 -30 5 9 -22 hvcurveto
            -9 -6 -6 -10 -10 vvcurveto
            -17 13 -29 106 79 103 5 8 102 vhcurveto
            -391 -575 rlineto
            -16 -24 -10 -15 -11 vvcurveto
            -22 15 -20 33 vhcurveto
            315 hlineto
            104 14 30 17 11 -6 12 -10 9 hvcurveto
            -20 -14 -33 -8 -44 -1 rrcurveto
            endchar
          </CharString>
          <CharString index="93">
            37 -15 19 -30 -18 -16 -12 -16 -7 vhcurveto
            14 -6 9 -6 -20 vvcurveto
            -645 vlineto
            -37 14 -20 30 18 15 -45 callgsubr
            return
          </CharString>
          <CharString index="94">
            5 callgsubr
            -16 5 return
          </CharString>
          <CharString index="95">
            hlineto
            44 -32 28 -48 -51 vvcurveto
            -57 -41 -52 -80 -6 -5 0 1 -5 vhcurveto
            39 -8 -16 41 -39 hhcurveto
            -24 -17 -19 -24 -40 34 -29 46 -13 hvcurveto
            -76 22 59 -119 99 hhcurveto
            32 19 20 24 8 -2 10 -5 8 hvcurveto
            -6 -14 -18 -3 -15 hhcurveto
            -71 -50 63 64 -20 hvcurveto
            -1 6 7 0 7 hhcurveto
            76 80 46 96 52 -25 56 -49 42 hvcurveto
            return
          </CharString>
          <CharString index="96">
            rmoveto
            23 24 5 19 13 vvcurveto
            24 -19 20 -31 vhcurveto
            -208 hlineto
            -47 -31 5 11 -24 hvcurveto
            -9 -7 -7 -9 -12 vvcurveto
            -32 40 -21 79 60 59 10 11 77 vhcurveto
            -285 -285 rlineto
            -28 -28 -9 -20 -21 vvcurveto
            -57 110 -56 117 107 50 44 38 17 -6 12 -11 8 vhcurveto
            -36 -33 -47 -22 -61 hhcurveto
            -72 -59 13 26 -48 hvcurveto
            endchar
          </CharString>
          <CharString index="97">
            -90 hhcurveto
            -47 -27 -37 -45 -50 27 -51 34 6 5 2 2 3 hvcurveto
            -19 22 -7 27 27 vvcurveto
            29 16 28 31 60 11 -107 -78 return
          </CharString>
          <CharString index="98">
            157 callgsubr
            -22 -1 -25 -1 -24 vhcurveto
            return
          </CharString>
          <CharString index="99">
            rmoveto
            28 25 26 28 21 -15 17 -22 -27 -27 -25 -28 -22 16 -17 22 hvcurveto
            -138 hmoveto
            28 25 26 28 22 -15 16 -22 -27 -27 -25 -28 -22 16 -17 22 hvcurveto
            return
          </CharString>
          <CharString index="100">
            20 -22 11 -28 -29 return
          </CharString>
          <CharString index="101">
            18 -14 15 -24 -20 vvcurveto
            -22 -14 -19 -37 261 callgsubr
            return
          </CharString>
          <CharString index="102">
            -37 callgsubr
            -112 -288 rmoveto
            78 -17 -43 72 -94 hhcurveto
            -54 -42 -25 -35 -26 248 callgsubr
            39 -90 callsubr
            359 hlineto
            44 -35 28 -61 -68 vvcurveto
            -65 -46 -57 -83 -2 vhcurveto
            return
          </CharString>
          <CharString index="103">
            110 11 63 64 77 hhcurveto
            60 40 -49 -61 -35 -16 -12 -26 -2 hvcurveto
            -211 -50 rmoveto
            214 7 rlineto
            76 2 31 244 callsubr
            -111 -120 -109 -169 return
          </CharString>
          <CharString index="104">
            -15 56 callgsubr
            return
          </CharString>
          <CharString index="105">
            -10 callsubr
            -23 -1 -22 -2 -22 vhcurveto
            -42 -1 -42 81 callgsubr
            return
          </CharString>
          <CharString index="106">
            51 137 callgsubr
            return
          </CharString>
          <CharString index="107">
            69 534 586 rmoveto
            72 -84 67 -139 -110 -115 -73 -108 vhcurveto
            -217 409 11 -152 vvcurveto
            -78 -94 -62 -97 -110 -57 52 60 24 10 17 13 12 vhcurveto
            15 -8 -13 6 -19 hhcurveto
            -32 -23 -28 -39 -100 101 -73 138 139 117 88 117 hvcurveto
            184 -409 -4 175 vvcurveto
            46 callgsubr
            hvcurveto
            return
          </CharString>
          <CharString index="108">
            -12 callgsubr
            -76 -331 51 callgsubr
            return
          </CharString>
          <CharString index="109">
            -65 62 -98 103 3 3 0 1 3 vhcurveto
            -58 -40 -75 -36 -49 -14 rrcurveto
            -28 3 21 -11 21 hhcurveto
            49 128 79 96 68 hvcurveto
            -4 -51 -1 -51 -50 -16 callgsubr
            return
          </CharString>
          <CharString index="110">
            595 rmoveto
            78 callsubr
            return
          </CharString>
          <CharString index="111">
            vvcurveto
            -58 49 -34 68 54 34 28 21 6 -2 5 -3 4 vhcurveto
            -9 -22 -21 -7 -25 hhcurveto
            -40 -25 16 31 return
          </CharString>
          <CharString index="112">
            -69 62 -44 96 83 vvcurveto
            return
          </CharString>
          <CharString index="113">
            rmoveto
            -147 424 rlineto
            36 -12 -16 16 -24 hhcurveto
            -19 -15 -8 -14 -7 hvcurveto
            16 -7 7 -15 5 -16 149 -425 rcurveline
            -22 8 18 -13 21 hhcurveto
            -43 -116 rlineto
            -40 -15 -19 -15 -25 hhcurveto
            -20 -16 5 14 -11 hvcurveto
            -8 -9 -5 -10 -12 vvcurveto
            -24 18 -28 45 45 34 26 67 26 vhcurveto
            225 578 rlineto
            53 22 -29 31 -28 hhcurveto
            -16 -13 -5 -9 -12 hvcurveto
            13 -14 7 -20 -12 -32 rrcurveto
            endchar
          </CharString>
          <CharString index="114">
            -183 -87 -81 50 84 38 20 28 24 16 vhcurveto
            -10 21 22 -6 23 hhcurveto
            24 31 12 32 return
          </CharString>
          <CharString index="115">
            -102 callgsubr
            341 -63 callgsubr
            return
          </CharString>
          <CharString index="116">
            219 callsubr
            -28 -28 -8 -16 -24 hvcurveto
            -21 22 -9 30 28 128 callgsubr
            return
          </CharString>
          <CharString index="117">
            7 -12 3 -36 -34 vvcurveto
            return
          </CharString>
          <CharString index="118">
            161 -2 -54 124 -10 callsubr
            -18 -1 -18 -1 -18 vhcurveto
            -42 -1 -43 81 callgsubr
            return
          </CharString>
          <CharString index="119">
            rmoveto
            15 hlineto
            130 31 20 19 8 -1 3 -3 5 hvcurveto
            -172 97 hlineto
            226 callsubr
            -15 -8 vhcurveto
            14 -6 9 -7 -19 vvcurveto
            -94 -19 vlineto
            -28 -14 3 2 -13 hvcurveto
            -7 -6 -3 -9 -9 vvcurveto
            -17 17 -17 67 -2 vhcurveto
            -328 vlineto
            -83 37 -45 79 89 59 45 40 116 callsubr
            endchar
          </CharString>
          <CharString index="120">
            -275 49 callsubr
            270 hlineto
            23 -18 16 -27 -21 vvcurveto
            -21 -16 -17 -38 vhcurveto
            -25 -20 144 callgsubr
            -70 90 -69 69 hvcurveto
            143 callsubr
            -30 -43 -35 callsubr
            85 -88 56 -77 hvcurveto
            -23 -20 -2 -19 hhcurveto
            -56 -25 35 31 28 callsubr
            183 -103 callsubr
            return
          </CharString>
          <CharString index="121">
            -45 callsubr
            28 return
          </CharString>
          <CharString index="122">
            -30 callgsubr
            35 34 return
          </CharString>
          <CharString index="123">
            vvcurveto
            67 -29 65 -46 50 vhcurveto
            return
          </CharString>
          <CharString index="124">
            vvcurveto
            -84 callgsubr
            return
          </CharString>
          <CharString index="125">
            -82 callsubr
            hhcurveto
            44 45 196 callgsubr
            return
          </CharString>
          <CharString index="126">
            hhcurveto
            31 19 20 25 13 -6 14 -12 10 hvcurveto
            -16 -10 -14 -7 -15 hhcurveto
            -31 -34 29 28 -18 hvcurveto
            21 return
          </CharString>
          <CharString index="127">
            -71 hhcurveto
            -92 callsubr
            return
          </CharString>
          <CharString index="128">
            44 callgsubr
            vhcurveto
            return
          </CharString>
          <CharString index="129">
            41 vvcurveto
            89 -81 71 -96 -55 -33 -26 -26 -16 8 -11 13 -7 vhcurveto
            22 26 37 12 36 hhcurveto
            52 47 -26 -58 -31 return
          </CharString>
          <CharString index="130">
            143 callsubr
            -32 -46 -35 callsubr
            return
          </CharString>
          <CharString index="131">
            -93 callsubr
            23 -5 return
          </CharString>
          <CharString index="132">
            hvcurveto
            -12 -8 -8 -15 -18 vvcurveto
            -50 41 -34 49 -3 callgsubr
            hhcurveto
            44 return
          </CharString>
          <CharString index="133">
            16 callsubr
            -658 -96 callgsubr
            558 hlineto
            44 -35 28 -61 -68 vvcurveto
            -65 -46 -57 -83 -2 vhcurveto
            -10 hlineto
            114 -32 -25 9 -293 -89 callgsubr
            vhcurveto
            180 hlineto
            16 13 1 2 10 hvcurveto
            -3 270 callsubr
            -52 42 -36 50 -3 callgsubr
            hhcurveto
            return
          </CharString>
          <CharString index="134">
            rmoveto
            -7 5 0 -4 8 hhcurveto
            10 4 4 9 8 hvcurveto
            79 93 rlineto
            21 19 19 9 15 hhcurveto
            161 callsubr
            -166 -103 rmoveto
            -4 3 3 -4 8 hhcurveto
            8 5 4 11 7 hvcurveto
            61 96 14 20 13 10 15 1 rlinecurve
            25 -1 -13 17 -23 hhcurveto
            -30 -22 -20 -51 -16 hvcurveto
            return
          </CharString>
          <CharString index="135">
            49 47 17 34 hvcurveto
            18 28 -1 20 hhcurveto
            73 30 35 38 28 -16 32 -30 24 hvcurveto
            return
          </CharString>
          <CharString index="136">
            19 callsubr
            18 12 24 31 vvcurveto
            28 return
          </CharString>
          <CharString index="137">
            32 3 21 21 30 42 30 -54 57 hhcurveto
            45 36 37 36 23 -10 10 -10 5 hvcurveto
            -33 -4 -20 -20 -26 return
          </CharString>
          <CharString index="138">
            595 75 callsubr
            return
          </CharString>
          <CharString index="139">
            vvcurveto
            50 26 41 45 48 27 -49 -62 -105 -78 -143 7 callsubr
            return
          </CharString>
          <CharString index="140">
            -18 callsubr
            -614 -96 callgsubr
            514 hlineto
            44 -35 28 -61 -68 vvcurveto
            -65 -46 -57 -83 -2 vhcurveto
            -7 hlineto
            103 -19 -42 182 callsubr
            104 hlineto
            -1 -5 -1 -5 -6 vvcurveto
            -52 42 -36 50 -3 callgsubr
            hhcurveto
            44 return
          </CharString>
          <CharString index="141">
            rmoveto
            67 callgsubr
            267 118 callgsubr
            return
          </CharString>
          <CharString index="142">
            rmoveto
            -81 -72 -129 -97 -115 -28 92 callgsubr
            78 217 162 50 10 -5 9 -10 6 hvcurveto
            return
          </CharString>
          <CharString index="143">
            130 callgsubr
            -6 -13 69 callsubr
            return
          </CharString>
          <CharString index="144">
            668 -77 callgsubr
            return
          </CharString>
          <CharString index="145">
            -134 47 113 -80 136 hhcurveto
            return
          </CharString>
          <CharString index="146">
            243 callgsubr
            -70 -1 -67 -1 -64 vhcurveto
            -188 200 -61 65 -33 170 callgsubr
            9 -1 12 -4 12 vhcurveto
            74 -67 113 -123 59 -65 rrcurveto
            -39 -43 -53 -21 -51 hhcurveto
            return
          </CharString>
          <CharString index="147">
            -305 45 callgsubr
            return
          </CharString>
          <CharString index="148">
            37 -16 20 -28 -19 -16 -13 -16 -8 179 callsubr
            -7 -19 vvcurveto
            return
          </CharString>
          <CharString index="149">
            -39 callsubr
            -478 -96 callgsubr
            386 -12 callgsubr
            -71 0 -10 -1 -11 vhcurveto
            5 -77 -105 4 -72 -89 callgsubr
            vhcurveto
            236 -33 hlineto
            return
          </CharString>
          <CharString index="150">
            hhcurveto
            -67 -60 45 109 callsubr
            return
          </CharString>
          <CharString index="151">
            -19 callsubr
            60 69 -66 -51 43 hvcurveto
            return
          </CharString>
          <CharString index="152">
            -106 callgsubr
            271 82 callgsubr
            -20 -39 callgsubr
            return
          </CharString>
          <CharString index="153">
            215 -94 callgsubr
            288 201 callsubr
            -56 -1 -54 -52 vvcurveto
            41 -79 -59 67 -81 hhcurveto
            -48 -32 -26 -36 -21 11 -18 19 -5 hvcurveto
            37 8 31 18 33 hhcurveto
            48 60 -50 -40 72 hvcurveto
            -67 -95 -109 -55 -70 hhcurveto
            -36 26 -11 24 68 107 64 51 72 vhcurveto
            -7 -62 -2 -63 -61 -99 callsubr
            vvcurveto
            72 1 68 1 66 vhcurveto
            -12 31 32 -7 35 hhcurveto
            47 38 14 return
          </CharString>
          <CharString index="154">
            31 -3 34 -64 callgsubr
            201 -100 callsubr
          </CharString>
          <CharString index="155">
            -81 -80 60 135 152 94 66 79 59 24 -26 -36 -7 0 -7 -3 -7 hvcurveto
            -2 6 9 -1 8 hhcurveto
            20 20 15 30 return
          </CharString>
          <CharString index="156">
            hlineto
            -106 callgsubr
            return
          </CharString>
          <CharString index="157">
            62 callgsubr
            61 callsubr
            vhcurveto
            -70 callgsubr
            24 -6 23 -10 156 callgsubr
            38 23 41 hhcurveto
            32 return
          </CharString>
          <CharString index="158">
            -32 -27 -12 -40 143 callgsubr
            return
          </CharString>
          <CharString index="159">
            22 20 6 19 0 0 5 -1 3 vhcurveto
            -1 -8 -8 0 -8 hhcurveto
            return
          </CharString>
          <CharString index="160">
            -29 callgsubr
            -13 6 -26 11 -31 hvcurveto
            -14 -39 -23 -31 -27 -23 -174 190 rcurveline
            -63 callsubr
            84 73 65 55 20 vhcurveto
            -74 39 65 -75 91 hhcurveto
            63 54 41 74 66 -44 54 -27 27 hvcurveto
            return
          </CharString>
          <CharString index="161">
            -104 callsubr
            -464 hlineto
            -97 callsubr
            return
          </CharString>
          <CharString index="162">
            60 40 30 38 22 return
          </CharString>
          <CharString index="163">
            -25 callgsubr
            167 callgsubr
            return
          </CharString>
          <CharString index="164">
            20 callgsubr
            -8 7 18 vvcurveto
            return
          </CharString>
          <CharString index="165">
            140 callgsubr
            36 11 49 41 4 vhcurveto
            return
          </CharString>
          <CharString index="166">
            40 293 -95 callsubr
            84 149 callgsubr
            -53 -1 -51 vhcurveto
            6 -67 -84 2 -67 hhcurveto
            11 callsubr
            219 hlineto
            -1 return
          </CharString>
          <CharString index="167">
            rmoveto
            -78 callsubr
            return
          </CharString>
          <CharString index="168">
            43 33 -24 -27 22 return
          </CharString>
          <CharString index="169">
            -60 callgsubr
            vvcurveto
            78 1 78 1 73 vhcurveto
            49 21 37 28 38 114 -17 -233 196 hhcurveto
            47 50 20 41 30 hvcurveto
            151 callgsubr
            -45 -101 callsubr
          </CharString>
          <CharString index="170">
            -106 callgsubr
            29 hlineto
            23 -25 16 -32 -33 84 callsubr
            -102 -55 136 74 -23 110 callsubr
            -43 72 -198 141 63 54 40 75 46 -26 39 -19 21 hvcurveto
            return
          </CharString>
          <CharString index="171">
            rmoveto
            282 276 rlineto
            28 28 25 15 27 hhcurveto
            28 -4 -17 18 -29 hhcurveto
            -26 -20 -12 -35 -32 hvcurveto
            -282 -309 rlineto
            300 vlineto
            -38 callgsubr
            282 vlineto
            239 -257 62 -67 19 -17 38 1 rlinecurve
            28 1 17 28 29 vvcurveto
            -42 -5 -18 15 -53 53 rrcurveto
            endchar
          </CharString>
          <CharString index="172">
            44 -33 -58 28 -64 hhcurveto
            -98 -75 -73 -88 -93 88 -87 88 56 35 31 41 26 hvcurveto
            -43 33 58 -29 64 hhcurveto
            return
          </CharString>
          <CharString index="173">
            28 18 12 22 6 -1 4 -3 3 hvcurveto
            return
          </CharString>
          <CharString index="174">
            -96 callgsubr
            195 callgsubr
            return
          </CharString>
          <CharString index="175">
            409 114 rmoveto
            -48 -29 -47 -25 -59 hhcurveto
            -80 -78 65 136 150 71 71 95 51 42 -17 -31 34 hvcurveto
            64 283 rmoveto
            37 -16 19 -29 -18 -16 -12 -16 -8 vhcurveto
            15 -6 8 -6 -20 vvcurveto
            -225 vlineto
            28 -38 -44 15 -53 hhcurveto
            -117 -105 -101 -167 -169 113 -83 98 64 48 23 44 34 hvcurveto
            -10 vlineto
            -37 15 -20 30 17 38 callgsubr
            return
          </CharString>
          <CharString index="176">
            -22 hvcurveto
            -18 23 -7 29 29 vvcurveto
            53 26 41 45 26 vhcurveto
            return
          </CharString>
          <CharString index="177">
            -51 callgsubr
            -223 hlineto
            -105 callgsubr
            21 30 1 3 46 vhcurveto
            51 callsubr
            return
          </CharString>
          <CharString index="178">
            -62 23 -48 172 176 198 102 261 262 -198 103 -176 -75 -67 -9 -22 -63 vhcurveto
            9 -10 3 -13 -19 vvcurveto
            return
          </CharString>
          <CharString index="179">
            -22 -16 4 8 -15 hvcurveto
            -7 -6 -6 -13 -11 vvcurveto
            -20 10 -16 34 vhcurveto
            return
          </CharString>
          <CharString index="180">
            -33 -95 callsubr
            return
          </CharString>
          <CharString index="181">
            -106 callgsubr
            194 -82 callgsubr
            -52 42 -36 50 -14 hvcurveto
            83 callgsubr
            return
          </CharString>
          <CharString index="182">
            rmoveto
            -71 callgsubr
            -40 hmoveto
            -83 callsubr
            return
          </CharString>
          <CharString index="183">
            -200 227 227 rmoveto
            170 callsubr
            153 1 -99 133 vvcurveto
            10 -1 12 -5 13 vhcurveto
            77 -66 116 -123 58 -62 rrcurveto
            -44 -42 -51 -22 -58 hhcurveto
            187 368 -55 callgsubr
            -399 49 callsubr
            55 hlineto
            -64 callsubr
            return
          </CharString>
          <CharString index="184">
            -85 callsubr
            -3 36 -20 13 vhcurveto
            return
          </CharString>
          <CharString index="185">
            -67 callgsubr
            -41 0 -40 -1 -38 vhcurveto
            23 -26 -31 73 callgsubr
            return
          </CharString>
          <CharString index="186">
            hhcurveto
            -71 -60 42 70 36 16 25 21 15 -9 callgsubr
            -25 hvcurveto
            -22 24 278 callsubr
            41 14 34 24 23 vhcurveto
            return
          </CharString>
          <CharString index="187">
            7 3 5 5 7 vvcurveto
            29 -138 126 -59 -49 -123 -99 -33 -16 9 -12 18 -7 vhcurveto
            return
          </CharString>
          <CharString index="188">
            hvcurveto
            13 152 callsubr
            return
          </CharString>
          <CharString index="189">
            -14 5 -9 7 18 vvcurveto
            607 154 79 callgsubr
          </CharString>
          <CharString index="190">
            10 -5 10 -5 5 vhcurveto
            99 callsubr
            return
          </CharString>
          <CharString index="191">
            vvcurveto
            -46 -33 -33 -46 return
          </CharString>
          <CharString index="192">
            rmoveto
            -64 -40 48 58 84 68 56 75 44 44 -16 -27 35 hvcurveto
            -86 -48 -23 -117 -91 hhcurveto
            return
          </CharString>
          <CharString index="193">
            595 rmoveto
            8 return
          </CharString>
          <CharString index="194">
            -91 176 callgsubr
            -334 146 callgsubr
            return
          </CharString>
          <CharString index="195">
            hlineto
            -90 callgsubr
            return
          </CharString>
          <CharString index="196">
            vhcurveto
            31 -9 -28 19 -23 hhcurveto
            -26 -17 -18 -25 -44 46 -35 40 return
          </CharString>
          <CharString index="197">
            -102 callgsubr
            218 hlineto
            return
          </CharString>
          <CharString index="198">
            51 rmoveto
            -105 callgsubr
            return
          </CharString>
          <CharString index="199">
            hhcurveto
            -74 -50 -38 -60 return
          </CharString>
          <CharString index="200">
            hhcurveto
            41 callgsubr
            return
          </CharString>
          <CharString index="201">
            93 76 59 60 27 -20 15 -21 return
          </CharString>
          <CharString index="202">
            rmoveto
            -65 callgsubr
            endchar
          </CharString>
          <CharString index="203">
            177 callsubr
            -50 -35 -37 -47 -25 vhcurveto
            -45 26 -30 35 50 209 callsubr
            -66 -1 -62 -1 -59 vhcurveto
            -58 12 -81 13 -69 25 rrcurveto
            41 30 30 39 50 vvcurveto
            82 -75 71 -73 -63 -52 -46 -70 return
          </CharString>
          <CharString index="204">
            -67 callgsubr
            -69 return
          </CharString>
          <CharString index="205">
            -214 370 -42 callsubr
            249 callgsubr
            76 hlineto
            46 -38 40 -73 -63 vvcurveto
            -27 -5 -25 -13 -20 89 callsubr
            63 24 51 63 69 -35 80 -55 55 hvcurveto
            return
          </CharString>
          <CharString index="206">
            -30 -32 -53 -20 -53 hhcurveto
            48 callsubr
            return
          </CharString>
          <CharString index="207">
            197 callgsubr
            10 -1 12 -5 13 vhcurveto
            77 -66 116 -123 58 -62 rrcurveto
            -44 -42 -51 -22 -58 hhcurveto
            return
          </CharString>
          <CharString index="208">
            rmoveto
            197 callsubr
            174 callsubr
            endchar
          </CharString>
          <CharString index="209">
            93 callsubr
            69 69 -122 -67 29 hvcurveto
            return
          </CharString>
          <CharString index="210">
            -102 callgsubr
            279 hlineto
            17 -12 14 -18 -16 vvcurveto
            -18 -13 -13 -39 261 callgsubr
            -76 -50 -31 -55 -72 259 callsubr
            -26 -55 161 callgsubr
            return
          </CharString>
          <CharString index="211">
            190 callgsubr
            39 38 -18 -40 21 hvcurveto
            13 2 4 9 6 vvcurveto
            38 -65 52 -66 -54 -42 -27 -37 -26 175 callsubr
            endchar
          </CharString>
          <CharString index="212">
            hhcurveto
            -63 -57 43 75 -70 callsubr
            30 -32 19 -55 -65 -85 -49 -96 192 callgsubr
            return
          </CharString>
          <CharString index="213">
            17 40 0 38 hvcurveto
            5 -2 6 4 vvcurveto
            14 -160 1 -5 -83 hvcurveto
            33 -1 74 55 vvcurveto
            23 1 18 1 11 vhcurveto
            2 -2 -7 2 -5 hhcurveto
            -37 0 -39 -17 hvcurveto
            1 -56 2 -52 1 -54 -60 1 -58 1 -57 2 rrcurveto
            -18 -39 0 -39 hvcurveto
            -5 2 -6 -3 vvcurveto
            endchar
          </CharString>
          <CharString index="214">
            3 callsubr
            -50 -46 -17 -59 -34 hvcurveto
            -41 -24 -33 -92 -95 -81 callgsubr
            return
          </CharString>
          <CharString index="215">
            -44 callsubr
            endchar
          </CharString>
          <CharString index="216">
            78 68 callgsubr
            return
          </CharString>
          <CharString index="217">
            vhcurveto
            -8 -12 -4 -17 return
          </CharString>
          <CharString index="218">
            vhcurveto
            17 21 9 24 24 vvcurveto
            49 -36 38 -34 -29 -21 -24 -33 -39 26 -28 9 -13 vhcurveto
            -15 -21 -41 -12 -44 hhcurveto
            -26 -23 4 7 -22 hvcurveto
            1 63 1 62 61 -90 callsubr
            456 -100 callsubr
          </CharString>
          <CharString index="219">
            30 callgsubr
            -150 264 callgsubr
            return
          </CharString>
          <CharString index="220">
            154 113 -75 callsubr
            return
          </CharString>
          <CharString index="221">
            -42 callsubr
            -52 callgsubr
            return
          </CharString>
          <CharString index="222">
            60 -77 53 -111 -178 -156 -145 -239 -208 132 -136 164 136 90 79 34 15 -8 8 -8 1 return
          </CharString>
          <CharString index="223">
            14 -8 7 -5 4 vhcurveto
            -30 -32 -41 -23 -49 hhcurveto
            -47 -18 20 50 hvcurveto
            return
          </CharString>
          <CharString index="224">
            hlineto
            -6 callsubr
            return
          </CharString>
          <CharString index="225">
            30 13 38 52 6 return
          </CharString>
          <CharString index="226">
            -54 callsubr
            -103 -1 -96 -2 -92 vhcurveto
            -55 -42 -70 -18 -51 hhcurveto
            return
          </CharString>
          <CharString index="227">
            31 22 23 26 40 vvcurveto
            30 -13 25 -19 19 vhcurveto
            return
          </CharString>
          <CharString index="228">
            -28 4 20 -12 21 hhcurveto
            return
          </CharString>
          <CharString index="229">
            36 callgsubr
            69 81 -88 -51 40 hvcurveto
            23 3 2 18 18 return
          </CharString>
          <CharString index="230">
            -167 223 -42 callsubr
            -223 hlineto
            -105 callgsubr
            21 30 1 3 46 vhcurveto
            51 callsubr
            return
          </CharString>
          <CharString index="231">
            vvcurveto
            -150 264 callgsubr
            8 -1 130 callsubr
            return
          </CharString>
          <CharString index="232">
            50 -134 101 -67 123 -5 rrcurveto
            -21 -86 -112 -15 -71 hhcurveto
            return
          </CharString>
          <CharString index="233">
            50 20 callsubr
            return
          </CharString>
          <CharString index="234">
            -24 vhcurveto
            29 -30 -39 18 -34 hhcurveto
            -58 -53 -37 -82 -99 86 -107 30 8 4 5 5 1 hvcurveto
            -51 48 -35 64 67 vvcurveto
            49 25 48 58 33 24 -19 -20 17 vhcurveto
            -12 -21 -9 -23 -23 vvcurveto
            -28 17 -22 24 29 9 31 19 21 -5 return
          </CharString>
          <CharString index="235">
            37 -15 20 -30 -18 -16 return
          </CharString>
          <CharString index="236">
            hhcurveto
            -81 -72 51 41 -69 callgsubr
            vhcurveto
            -125 -230 -7 -78 vvcurveto
            return
          </CharString>
          <CharString index="237">
            165 callgsubr
            71 127 return
          </CharString>
          <CharString index="238">
            rcurveline
            -78 callsubr
            return
          </CharString>
          <CharString index="239">
            -73 -84 -1 -66 hhcurveto
            -105 callgsubr
            21 21 2 3 21 vhcurveto
            -27 -23 -16 -34 -40 vvcurveto
            return
          </CharString>
          <CharString index="240">
            -106 callgsubr
            294 178 callsubr
            return
          </CharString>
          <CharString index="241">
            228 callsubr
            30 -16 27 -21 19 hvcurveto
            return
          </CharString>
          <CharString index="242">
            hvcurveto
            42 -39 -54 27 -47 hhcurveto
            return
          </CharString>
          <CharString index="243">
            -38 30 -30 37 -13 return
          </CharString>
          <CharString index="244">
            -102 callgsubr
            76 hlineto
            46 -38 40 -73 -63 vvcurveto
            -27 -5 -25 -13 -20 89 callsubr
            63 24 51 63 69 -35 80 -55 55 hvcurveto
            return
          </CharString>
          <CharString index="245">
            66 -25 -39 56 -59 hhcurveto
            36 callgsubr
            return
          </CharString>
          <CharString index="246">
            -80 -37 -80 -50 -90 hhcurveto
            -69 -58 40 65 9 callsubr
            endchar
          </CharString>
          <CharString index="247">
            rmoveto
            -99 callgsubr
            -22 14 -8 14 -7 vhcurveto
            22 -11 9 -14 -58 return
          </CharString>
          <CharString index="248">
            25 -17 18 -26 -30 -29 -29 -31 -24 17 -18 25 return
          </CharString>
          <CharString index="249">
            61 -67 rmoveto
            -5 -15 -10 -19 -6 -6 rrcurveto
            -11 14 11 -1 6 hhcurveto
            31 13 33 15 3 hvcurveto
            332 950 5 13 7 20 10 7 rlinecurve
            7 -12 -9 4 -12 hhcurveto
            -30 -11 -34 -15 -5 hvcurveto
            endchar
          </CharString>
          <CharString index="250">
            21 24 2 21 hhcurveto
            55 30 return
          </CharString>
          <CharString index="251">
            48 39 24 30 23 return
          </CharString>
          <CharString index="252">
            75 callsubr
            vvcurveto
            return
          </CharString>
          <CharString index="253">
            vlineto
            -58 -19 -24 -57 vhcurveto
            -28 15 25 -13 24 hhcurveto
            42 34 34 72 hvcurveto
            return
          </CharString>
          <CharString index="254">
            227 callsubr
            -57 -55 vvcurveto
            return
          </CharString>
          <CharString index="255">
            30 27 19 38 41 vvcurveto
            89 -81 71 -96 return
          </CharString>
          <CharString index="256">
            16 -10 15 -21 -22 return
          </CharString>
          <CharString index="257">
            359 -42 callsubr
            -344 49 callsubr
            55 hlineto
            -64 callsubr
            return
          </CharString>
          <CharString index="258">
            hhcurveto
            -40 -28 -23 -36 -37 28 -46 40 28 21 25 50 9 hvcurveto
            65 -16 74 -42 42 -46 rrcurveto
            -202 -88 -79 -44 -46 61 callgsubr
            16 -9 20 -16 26 vhcurveto
            return
          </CharString>
          <CharString index="259">
            22 -37 callgsubr
            return
          </CharString>
          <CharString index="260">
            48 callsubr
            260 callsubr
            return
          </CharString>
          <CharString index="261">
            350 -39 callsubr
            return
          </CharString>
          <CharString index="262">
            22 -9 21 vhcurveto
            41 return
          </CharString>
          <CharString index="263">
            -72 -94 callgsubr
            283 234 callgsubr
            -103 -36 -56 -58 -46 return
          </CharString>
          <CharString index="264">
            -69 73 -62 61 29 31 19 30 15 -9 16 -20 5 vhcurveto
            -20 -13 -22 -13 -26 hhcurveto
            -33 -21 21 30 46 44 36 54 100 76 -87 -83 39 hvcurveto
            11 2 5 8 9 vvcurveto
            return
          </CharString>
          <CharString index="265">
            4 -73 -89 callgsubr
            vhcurveto
            return
          </CharString>
          <CharString index="266">
            162 callgsubr
            -48 -40 -30 -49 -29 vhcurveto
            -41 23 -32 34 44 vvcurveto
            return
          </CharString>
          <CharString index="267">
            -7 -40 33 callgsubr
            return
          </CharString>
          <CharString index="268">
            25 9 -17 23 -28 hhcurveto
            -30 -23 -18 -55 -28 hvcurveto
            return
          </CharString>
          <CharString index="269">
            vvcurveto
            89 -88 59 -63 -59 -57 -38 -77 return
          </CharString>
          <CharString index="270" raw="1">
            1b22066e 1d0b  
          </CharString>
          <CharString index="271">
            26 46 hvcurveto
            60 155 27 76 vvcurveto
            59 return
          </CharString>
          <CharString index="272">
            77 -160 175 -35 -14 -11 -14 -7 -2 vhcurveto
            83 -89 57 -85 -57 vvcurveto
            -55 -57 -87 -83 -87 vhcurveto
            -7 2 11 -14 14 hhcurveto
            36 159 175 75 hvcurveto
            return
          </CharString>
          <CharString index="273">
            rmoveto
            133 callsubr
            return
          </CharString>
          <CharString index="274">
            hlineto
            149 callsubr
            return
          </CharString>
          <CharString index="275">
            595 184 callgsubr
            return
          </CharString>
          <CharString index="276">
            196 634 -196 hlineto
            236 -185 rmoveto
            196 185 -196 hlineto
            return
          </CharString>
          <CharString index="277">
            -60 -35 43 52 hvcurveto
            return
          </CharString>
          <CharString index="278">
            -89 490 -42 callsubr
            -475 49 callsubr
            294 hlineto
            return
          </CharString>
          <CharString index="279">
            26 11 23 19 33 hhcurveto
            34 27 -23 -32 -44 -43 -43 -77 -86 -77 66 80 -49 hvcurveto
            -8 -2 -7 -7 -10 vvcurveto
            -42 112 -133 137 return
          </CharString>
          <CharString index="280">
            -31 -24 2 3 -12 hvcurveto
            -6 -7 -4 -8 -10 vvcurveto
            -17 19 -15 69 -3 vhcurveto
            return
          </CharString>
          <CharString index="281">
            228 callgsubr
            vhcurveto
            -58 -29 -66 -25 -61 hhcurveto
            -64 -58 26 55 -41 hvcurveto
            return
          </CharString>
          <CharString index="282">
            vhcurveto
            189 callgsubr
            return
          </CharString>
          <CharString index="283">
            146 516 177 callsubr
            return
          </CharString>
          <CharString index="284">
            rmoveto
            46 31 38 49 49 28 -41 -42 return
          </CharString>
          <CharString index="285">
            hlineto
            179 callgsubr
            return
          </CharString>
          <CharString index="286">
            vhcurveto
            14 -5 9 return
          </CharString>
          <CharString index="287">
            rmoveto
            34 -4 -97 216 -118 102 callsubr
            return
          </CharString>
          <CharString index="288">
            76 -67 51 -66 -49 -48 -31 -55 -38 24 -27 26 6 7 1 4 6 vhcurveto
            -8 14 -5 15 16 vvcurveto
            32 22 29 41 30 30 -21 -42 return
          </CharString>
          <CharString index="289">
            20 -189 -50 callgsubr
            return
          </CharString>
          <CharString index="290">
            95 callgsubr
            -96 callsubr
            vvcurveto
            return
          </CharString>
          <CharString index="291">
            -32 -34 -20 -39 -33 29 -31 42 28 28 20 33 3 0 2 -1 4 return
          </CharString>
          <CharString index="292">
            hhcurveto
            -64 -58 41 65 192 callsubr
            return
          </CharString>
          <CharString index="293">
            -47 124 callsubr
            return
          </CharString>
          <CharString index="294">
            65 callsubr
            98 75 73 88 return
          </CharString>
          <CharString index="295">
            rmoveto
            -81 -74 -122 -83 -110 -26 92 callgsubr
            76 210 149 47 12 -6 10 -12 5 hvcurveto
            endchar
          </CharString>
          <CharString index="296">
            vvcurveto
            199 callgsubr
            return
          </CharString>
          <CharString index="297">
            198 callsubr
            48 -1 20 hhcurveto
            73 30 35 38 28 -16 32 -30 24 hvcurveto
            return
          </CharString>
          <CharString index="298">
            -55 -26 callsubr
            return
          </CharString>
          <CharString index="299">
            55 44 57 83 hvcurveto
            return
          </CharString>
          <CharString index="300">
            -60 callgsubr
            vvcurveto
            77 1 78 1 71 vhcurveto
            return
          </CharString>
          <CharString index="301">
            40 -90 callsubr
            return
          </CharString>
          <CharString index="302">
            125 22 20 6 19 0 0 return
          </CharString>
          <CharString index="303">
            -106 callgsubr
            122 hlineto
            -48 callgsubr
            return
          </CharString>
          <CharString index="304">
            -11 -4 -2 -8 -6 vvcurveto
            -33 86 -75 115 85 78 36 54 return
          </CharString>
          <CharString index="305">
            -24 -20 -2 -21 hhcurveto
            -56 -25 32 29 49 47 17 34 hvcurveto
            18 return
          </CharString>
          <CharString index="306">
            vvcurveto
            12 callgsubr
            vhcurveto
            return
          </CharString>
          <CharString index="307">
            28 -19 20 -28 -33 -33 -32 -34 -27 return
          </CharString>
          <CharString index="308">
            hlineto
            -83 callsubr
            return
          </CharString>
          <CharString index="309">
            -41 205 callgsubr
            return
          </CharString>
          <CharString index="310">
            rmoveto
            -16 -38 0 -37 -5 2 -5 1 -3 hvcurveto
            375 hlineto
            16 38 0 38 4 -1 5 -1 3 hvcurveto
            endchar
          </CharString>
          <CharString index="311">
            33 -8 32 38 vvcurveto
            43 27 34 41 32 20 -16 -13 10 vhcurveto
            4 4 2 6 6 vvcurveto
            27 -29 33 -48 return
          </CharString>
          <CharString index="312">
            339 -102 callgsubr
            return
          </CharString>
          <CharString index="313">
            39 -11 -22 19 -27 hhcurveto
            -24 -23 -17 -27 3 hvcurveto
            24 2 return
          </CharString>
          <CharString index="314">
            -48 callgsubr
            -1 return
          </CharString>
          <CharString index="315">
            -42 -27 -36 -29 return
          </CharString>
          <CharString index="316">
            vvcurveto
            290 130 140 callsubr
            vvcurveto
            return
          </CharString>
          <CharString index="317">
            0 39 194 callsubr
            return
          </CharString>
          <CharString index="318">
            38 -7 28 26 vvcurveto
            47 28 24 28 35 15 -26 -22 5 vhcurveto
            14 5 14 8 34 -37 40 -43 return
          </CharString>
          <CharString index="319">
            hvcurveto
            5 43 210 callsubr
            return
          </CharString>
          <CharString index="320">
            vvcurveto
            -38 9 -34 36 4 6 1 3 5 vhcurveto
            -30 callgsubr
            34 32 84 4 117 65 vvcurveto
            return
          </CharString>
          <CharString index="321">
            -46 -45 -38 -71 -71 56 -87 26 -31 hvcurveto
            10 3 4 5 7 23 -52 51 74 vvcurveto
            endchar
          </CharString>
          <CharString index="322">
            vvcurveto
            55 32 26 31 31 19 -18 -22 11 vhcurveto
            9 1 6 7 12 vvcurveto
            30 -37 41 -51 return
          </CharString>
          <CharString index="323">
            -29 43 callsubr
            return
          </CharString>
          <CharString index="324">
            85 78 36 54 228 callgsubr
            return
          </CharString>
          <CharString index="325">
            49 -29 26 -35 return
          </CharString>
          <CharString index="326">
            35 16 25 19 17 -37 callsubr
            return
          </CharString>
          <CharString index="327">
            vlineto
            -34 -8 rlineto
            -41 -10 -18 -15 -23 vvcurveto
            -9 3 -5 4 -6 vhcurveto
            86 20 rlineto
            return
          </CharString>
          <CharString index="328">
            vvcurveto
            -4 3 -5 5 -2 vhcurveto
            3 14 14 3 16 hhcurveto
            68 54 -29 -70 -46 -35 return
          </CharString>
          <CharString index="329">
            128 callgsubr
            21 -103 callsubr
            return
          </CharString>
          <CharString index="330">
            38 hhcurveto
            218 callgsubr
            21 callsubr
            return
          </CharString>
          <CharString index="331">
            vlineto
            -37 14 -20 30 18 15 -45 callgsubr
            endchar
          </CharString>
          <CharString index="332">
            hlineto
            46 8 22 16 5 -1 6 -1 2 hvcurveto
            return
          </CharString>
          <CharString index="333">
            37 -16 20 -29 -18 -16 -13 return
          </CharString>
          <CharString index="334">
            -83 callsubr
            -60 -1 return
          </CharString>
          <CharString index="335">
            hhcurveto
            55 32 29 41 return
          </CharString>
          <CharString index="336">
            hhcurveto
            -103 -36 -56 -58 return
          </CharString>
          <CharString index="337">
            -101 -76 100 82 -37 vhcurveto
            -10 -2 -6 -6 -10 vvcurveto
            -47 102 -170 150 return
          </CharString>
          <CharString index="338">
            -38 -32 -12 -31 -6 2 -6 1 return
          </CharString>
          <CharString index="339">
            29 1 27 6 23 9 return
          </CharString>
          <CharString index="340">
            3 191 callsubr
            return
          </CharString>
          <CharString index="341">
            hlineto
            125 callgsubr
            return
          </CharString>
          <CharString index="342">
            rmoveto
            -17 -28 -29 -8 216 callsubr
            return
          </CharString>
          <CharString index="343">
            13 16 9 vhcurveto
            -15 5 -8 8 18 vvcurveto
            return
          </CharString>
          <CharString index="344">
            -22 hhcurveto
            -20 -20 -13 -24 -8 hvcurveto
            18 -6 return
          </CharString>
          <CharString index="345">
            84 72 50 34 10 -5 10 -5 5 hvcurveto
            -30 -32 -53 -20 -53 hhcurveto
            return
          </CharString>
          <CharString index="346">
            -74 -50 -38 -60 -79 93 -73 70 58 32 40 37 32 -21 23 -29 return
          </CharString>
          <CharString index="347">
            -24 -6 -24 -29 -98 9 -151 22 23 8 150 98 vhcurveto
            return
          </CharString>
          <CharString index="348">
            -102 callgsubr
            294 hlineto
            return
          </CharString>
          <CharString index="349">
            595 rmoveto
            179 callgsubr
            vvcurveto
            return
          </CharString>
          <CharString index="350">
            hhcurveto
            118 callsubr
            hvcurveto
            return
          </CharString>
          <CharString index="351">
            30 58 vvcurveto
            80 -59 83 -100 return
          </CharString>
          <CharString index="352">
            149 callsubr
            vvcurveto
            return
          </CharString>
          <CharString index="353">
            6 -84 2 -67 1 rrcurveto
            return
          </CharString>
          <CharString index="354">
            3 2 7 4 vvcurveto
            return
          </CharString>
          <CharString index="355">
            605 -102 callgsubr
            return
          </CharString>
          <CharString index="356">
            hvcurveto
            -32 -29 -11 -41 -35 vvcurveto
            -48 19 -42 30 -31 vhcurveto
            -64 return
          </CharString>
          <CharString index="357">
            71 -71 51 -64 -42 -30 -25 -30 -16 12 -19 23 -2 return
          </CharString>
          <CharString index="358">
            -7 callsubr
            vvcurveto
            -88 -145 -38 -8 -51 vhcurveto
            return
          </CharString>
          <CharString index="359">
            hlineto
            17 40 0 40 5 -2 5 -1 3 hvcurveto
            endchar
          </CharString>
          <CharString index="360">
            hlineto
            -7 callsubr
            vvcurveto
            -44 return
          </CharString>
          <CharString index="361">
            66 46 36 11 -4 7 -8 5 return
          </CharString>
          <CharString index="362">
            -1 4 -1 2 hvcurveto
            return
          </CharString>
          <CharString index="363">
            4 1 6 3 vvcurveto
            return
          </CharString>
          <CharString index="364">
            29 27 17 38 43 vvcurveto
            56 -27 51 -36 36 vhcurveto
            return
          </CharString>
          <CharString index="365">
            63 -63 47 -83 4 vhcurveto
            65 15 57 40 47 vvcurveto
            return
          </CharString>
          <CharString index="366">
            93 -49 66 hvcurveto
            232 callgsubr
            return
          </CharString>
          <CharString index="367">
            45 -44 44 -86 -133 -120 -108 -175 return
          </CharString>
          <CharString index="368">
            hvcurveto
            4 41 0 return
          </CharString>
          <CharString index="369">
            -117 -117 return
          </CharString>
          <CharString index="370">
            hlineto
            18 39 0 40 4 0 5 -1 3 hvcurveto
            return
          </CharString>
          <CharString index="371">
            rmoveto
            270 callgsubr
            1 -3 hvcurveto
            return
          </CharString>
          <CharString index="372">
            hlineto
            275 callsubr
            return
          </CharString>
          <CharString index="373">
            597 -54 callsubr
            return
          </CharString>
          <CharString index="374">
            -214 220 -72 74 -37 20 rrcurveto
            endchar
          </CharString>
          <CharString index="375">
            hvcurveto
            -32 -28 -12 -39 -30 vvcurveto
            return
          </CharString>
          <CharString index="376">
            -14 -41 -23 -32 -28 -23 rrcurveto
            return
          </CharString>
          <CharString index="377">
            -6 -1 -6 -7 vvcurveto
            return
          </CharString>
          <CharString index="378">
            -7 -32 hhcurveto
            -79 -80 return
          </CharString>
          <CharString index="379">
            146 254 callgsubr
            return
          </CharString>
          <CharString index="380">
            38 32 12 31 6 -3 6 -1 3 hvcurveto
            return
          </CharString>
          <CharString index="381">
            -17 -40 0 -39 -5 2 -5 1 -4 hvcurveto
            return
          </CharString>
          <CharString index="382">
            -83 callsubr
            -32 0 -31 -31 vvcurveto
            return
          </CharString>
          <CharString index="383">
            27 10 11 5 6 8 vhcurveto
            -12 10 -5 return
          </CharString>
          <CharString index="384">
            186 rmoveto
            232 callsubr
            rrcurveto
            return
          </CharString>
          <CharString index="385">
            -9 30 29 vvcurveto
            return
          </CharString>
        <CharString name=".notdef">
          191 180 hmoveto
          390 701 -390 hlineto
          54 -50 rmoveto
          282 -601 -282 hlineto
          endchar
        </CharString>
        <CharString name="A">
          73 178 228 -78 callgsubr
        </CharString>
        <CharString name="AE">
          368 203 223 rmoveto
          210 423 rlineto
          -423 vlineto
          139 -172 rmoveto
          -55 -20 19 50 hvcurveto
          219 225 vlineto
          34 23 -4 -11 15 hvcurveto
          13 6 10 11 18 vvcurveto
          26 -28 6 -61 vhcurveto
          -231 269 288 hlineto
          36 21 -7 -20 15 hvcurveto
          18 4 12 13 18 vvcurveto
          27 -28 17 -61 vhcurveto
          -346 hlineto
          -25 -26 -16 -25 -12 hvcurveto
          -306 -608 -9 -20 -16 -16 -17 -3 rlinecurve
          -18 11 13 -11 20 hhcurveto
          20 10 11 33 16 hvcurveto
          66 132 rlineto
          236 -48 hlineto
          -91 47 -32 94 vhcurveto
          207 hlineto
          78 28 24 34 14 -12 17 -18 4 hvcurveto
          262 callgsubr
          -36 hhcurveto
          endchar
        </CharString>
        <CharString name="Aacute">
          73 447 877 -77 callgsubr
          -158 -561 -78 callgsubr
        </CharString>
        <CharString name="Abreve">
          73 319 776 48 callgsubr
          -141 -548 -78 callgsubr
        </CharString>
        <CharString name="Acircumflex">
          73 319 873 -32 callgsubr
          -66 -565 -78 callgsubr
        </CharString>
        <CharString name="Adieresis">
          73 380 789 -8 callsubr
          -64 -561 -78 callgsubr
        </CharString>
        <CharString name="Agrave">
          73 301 793 -17 callgsubr
          -24 -667 -78 callgsubr
        </CharString>
        <CharString name="Amacron">
          73 432 813 rmoveto
          66 callsubr
          -268 hlineto
          67 callgsubr
          13 -585 -78 callgsubr
        </CharString>
        <CharString name="Aogonek">
          73 178 228 rmoveto
          132 364 138 -364 rlineto
          -99 444 rmoveto
          32 -12 -15 15 -23 hhcurveto
          -16 -13 -7 -12 -11 hvcurveto
          12 -9 7 -14 7 -17 -238 -608 rcurveline
          -7 -18 -7 -10 -15 -5 rrcurveto
          -16 4 16 -10 19 hhcurveto
          27 14 15 38 14 hvcurveto
          48 131 rlineto
          307 hlineto
          50 -132 7 -19 8 -14 9 -8 rlinecurve
          -67 -27 -46 -42 -56 4 callsubr
          hvcurveto
          82 114 15 27 vvcurveto
          1 0 1 -1 2 vhcurveto
          2 3 2 3 2 3 -14 4 -9 10 -9 23 rrcurveto
          endchar
        </CharString>
        <CharString name="Aring">
          73 315 909 65 callgsubr
          -145 rmoveto
          52 48 30 59 56 -48 30 -52 -53 -48 -28 -58 -59 48 -30 53 hvcurveto
          -141 -536 -78 callgsubr
        </CharString>
        <CharString name="Atilde">
          73 206 794 rmoveto
          30 callsubr
          90 callgsubr
          -28 -566 -78 callgsubr
        </CharString>
        <CharString name="B">
          115 379 336 rmoveto
          115 57 -55 -88 -88 -57 -55 -115 hvcurveto
          -148 hlineto
          -50 -21 16 61 hvcurveto
          1 209 rlineto
          165 326 rmoveto
          120 59 -54 -82 -86 -59 -54 -120 hvcurveto
          -165 hlineto
          2 276 rlineto
          -12 50 rmoveto
          -43 -19 -10 -24 -15 hvcurveto
          15 -6 8 -6 -20 vvcurveto
          -2 -519 rlineto
          -89 38 -38 98 vhcurveto
          148 hlineto
          148 95 78 116 85 -73 76 -103 15 hvcurveto
          76 23 54 52 89 vvcurveto
          101 -79 77 -161 vhcurveto
          endchar
        </CharString>
        <CharString name="C">
          102 588 607 rmoveto
          115 callsubr
          vhcurveto
          57 callgsubr
          hvcurveto
          endchar
        </CharString>
        <CharString name="CR">
          -289 endchar
        </CharString>
        <CharString name="Cacute">
          102 588 607 rmoveto
          115 callsubr
          vhcurveto
          57 callgsubr
          hvcurveto
          -128 270 -77 callgsubr
          endchar
        </CharString>
        <CharString name="Ccaron">
          102 456 922 -68 callgsubr
          181 -690 rmoveto
          57 callgsubr
          115 callsubr
          hvcurveto
          endchar
        </CharString>
        <CharString name="Ccedilla">
          102 298 -68 rmoveto
          -22 callsubr
          13 62 rlineto
          4 hlineto
          136 90 79 34 15 -8 8 -8 1 hvcurveto
          57 callgsubr
          60 -77 53 -111 -178 -156 -145 -239 -186 106 -129 140 -25 hvcurveto
          endchar
        </CharString>
        <CharString name="D">
          141 95 102 rmoveto
          71 callsubr
          66 4 rmoveto
          96 callgsubr
          endchar
        </CharString>
        <CharString name="Dcaron">
          141 474 910 -68 callgsubr
          -246 -156 rmoveto
          96 callgsubr
          -65 -3 rmoveto
          71 callsubr
          endchar
        </CharString>
        <CharString name="Dcroat">
          141 161 330 rmoveto
          124 118 callgsubr
          -166 hlineto
          2 274 rlineto
          96 callgsubr
          -64 272 rmoveto
          -37 hlineto
          67 callgsubr
          78 hlineto
          -1 -228 rlineto
          71 callsubr
          endchar
        </CharString>
        <CharString name="E">
          61 245 51 -77 callsubr
        </CharString>
        <CharString name="Eacute">
          61 435 877 -77 callgsubr
          -79 -738 -77 callsubr
        </CharString>
        <CharString name="Ecaron">
          61 431 922 -68 callgsubr
          -121 -768 -77 callsubr
        </CharString>
        <CharString name="Ecircumflex">
          61 307 873 -32 callgsubr
          13 -742 -77 callsubr
        </CharString>
        <CharString name="Edieresis">
          61 368 789 -8 callsubr
          15 -738 -77 callsubr
        </CharString>
        <CharString name="Edotaccent">
          61 298 809 rmoveto
          31 29 29 30 141 callsubr
          hvcurveto
          -53 -758 -77 callsubr
        </CharString>
        <CharString name="Egrave">
          61 289 793 -17 callgsubr
          55 -844 -77 callsubr
        </CharString>
        <CharString name="Emacron">
          61 420 813 rmoveto
          66 callsubr
          -268 hlineto
          67 callgsubr
          92 -762 -77 callsubr
        </CharString>
        <CharString name="Eogonek">
          61 245 51 rmoveto
          271 callgsubr
          221 224 vlineto
          35 22 -4 -11 16 hvcurveto
          13 6 10 11 18 vvcurveto
          26 -28 6 -61 vhcurveto
          -231 269 287 hlineto
          37 20 -7 -20 16 hvcurveto
          17 4 12 13 18 vvcurveto
          27 -28 17 -60 vhcurveto
          -311 hlineto
          -43 -19 -10 -24 -15 hvcurveto
          15 -6 8 -6 -20 vvcurveto
          -526 vlineto
          -88 47 -32 93 vhcurveto
          180 hlineto
          -42 -26 -27 -35 -42 4 callsubr
          73 91 20 19 23 hvcurveto
          18 10 7 15 17 vvcurveto
          14 -12 17 -17 4 vhcurveto
          262 callgsubr
          -37 hhcurveto
          endchar
        </CharString>
        <CharString name="Eth">
          170 161 329 rmoveto
          148 hlineto
          38 32 12 30 6 -2 6 -1 4 hvcurveto
          -214 hlineto
          1 264 rlineto
          96 callgsubr
          -64 282 rmoveto
          -38 -31 -12 -32 -5 2 -6 2 -3 hvcurveto
          65 hlineto
          -1 -227 rlineto
          71 callsubr
          endchar
        </CharString>
        <CharString name="Euro">
          109 396 253 rmoveto
          273 callsubr
          -279 hlineto
          -1 13 -1 14 14 vvcurveto
          13 0 12 1 12 vhcurveto
          214 hlineto
          273 callsubr
          -272 hlineto
          148 32 106 66 98 hhcurveto
          99 46 -47 -50 -7 hvcurveto
          -3 7 9 -1 8 hhcurveto
          25 18 19 26 60 -78 55 -111 -148 -133 -101 -172 -41 hvcurveto
          -15 hlineto
          -38 -32 -12 -30 -6 2 -6 2 -4 hvcurveto
          72 hlineto
          -2 -17 -1 -18 -18 vvcurveto
          -8 0 -9 1 -8 vhcurveto
          -4 hlineto
          -38 -32 -12 -30 -6 2 -6 2 -4 hvcurveto
          76 hlineto
          -160 31 117 -101 142 hhcurveto
          136 91 79 34 15 -9 8 -7 1 hvcurveto
          -37 -37 -70 -41 -85 hhcurveto
          -125 -81 76 126 -27 hvcurveto
          endchar
        </CharString>
        <CharString name="F">
          32 161 712 rmoveto
          -43 -19 -10 -24 -15 hvcurveto
          15 -6 8 -6 -20 vvcurveto
          -596 20 callgsubr
          -7 7 18 vvcurveto
          286 224 vlineto
          35 22 -4 -11 16 hvcurveto
          13 6 10 12 18 vvcurveto
          28 -28 6 -61 vhcurveto
          -231 266 287 hlineto
          37 20 -8 -19 16 hvcurveto
          17 4 12 13 18 vvcurveto
          28 -29 17 -61 vhcurveto
          endchar
        </CharString>
        <CharString name="G">
          136 619 321 -11 callgsubr
        </CharString>
        <CharString name="Gbreve">
          136 405 776 48 callgsubr
          214 -455 -11 callgsubr
        </CharString>
        <CharString name="H">
          161 623 663 rmoveto
          128 callsubr
          -13 -16 -7 179 callsubr
          -7 -19 vvcurveto
          -280 -404 283 vlineto
          -38 callgsubr
          278 404 -280 224 callsubr
        </CharString>
        <CharString name="I">
          -306 156 663 rmoveto
          -38 callgsubr
          endchar
        </CharString>
        <CharString name="Iacute">
          -306 254 877 -77 callgsubr
          13 -126 rmoveto
          -38 callgsubr
          endchar
        </CharString>
        <CharString name="Icircumflex">
          -306 156 663 rmoveto
          -38 callgsubr
          29 840 70 callgsubr
        </CharString>
        <CharString name="Idieresis">
          -306 240 843 7 callgsubr
          54 -180 rmoveto
          -38 callgsubr
          endchar
        </CharString>
        <CharString name="Idotaccent">
          -306 177 868 rmoveto
          141 callsubr
          31 29 29 30 vhcurveto
          -21 -205 rmoveto
          -38 callgsubr
          endchar
        </CharString>
        <CharString name="Igrave">
          -306 108 793 -17 callgsubr
          147 -232 rmoveto
          -38 callgsubr
          endchar
        </CharString>
        <CharString name="Imacron">
          -306 13 860 34 callsubr
          -125 -197 rmoveto
          -38 callgsubr
          endchar
        </CharString>
        <CharString name="Iogonek">
          -306 179 21 rmoveto
          -3 callsubr
          612 vlineto
          226 callsubr
          -16 -8 vhcurveto
          15 -5 8 -7 -19 vvcurveto
          -611 vlineto
          -24 6 -17 12 -9 vhcurveto
          -58 -26 -39 -41 -51 4 callsubr
          hvcurveto
          82 114 15 27 vvcurveto
          5 -5 4 -10 4 vhcurveto
          endchar
        </CharString>
        <CharString name="J">
          -182 291 663 rmoveto
          37 -16 20 -28 -18 -16 -13 -16 -9 vhcurveto
          16 -5 7 -7 -19 vvcurveto
          -527 vlineto
          -60 -28 -25 -56 -45 -32 11 18 -28 vhcurveto
          -6 -7 -2 -8 -10 vvcurveto
          -30 41 -29 79 85 56 50 91 vhcurveto
          endchar
        </CharString>
        <CharString name="K">
          51 204 354 64 callsubr
        </CharString>
        <CharString name="L">
          14 callgsubr
          endchar
        </CharString>
        <CharString name="Lacute">
          14 callgsubr
          154 217 -77 callgsubr
          endchar
        </CharString>
        <CharString name="Lcaron">
          14 callgsubr
          238 19 rmoveto
          218 callsubr
          219 callgsubr
          vhcurveto
          -40 callsubr
          hvcurveto
          endchar
        </CharString>
        <CharString name="Lslash">
          23 249 52 rmoveto
          271 callgsubr
          262 vlineto
          75 37 34 16 24 24 -13 28 rlinecurve
          -3 5 -4 4 -4 2 -109 -55 rcurveline
          221 117 callgsubr
          -250 vlineto
          -44 -22 -34 -17 -24 -21 15 -28 rlinecurve
          2 -5 4 -5 2 -2 79 39 rcurveline
          -228 vlineto
          -88 48 -33 93 vhcurveto
          175 hlineto
          78 28 24 33 15 -12 18 -18 4 hvcurveto
          -29 -16 -22 -13 -36 hhcurveto
          endchar
        </CharString>
        <CharString name="M">
          393 806 661 rmoveto
          -1 19 5 16 11 8 rrcurveto
          9 -14 -10 7 -18 hhcurveto
          -26 -27 -19 -40 -18 hvcurveto
          -235 -552 -226 552 rlineto
          38 -16 -29 21 -29 hhcurveto
          -18 -7 -7 -9 -12 hvcurveto
          8 -8 6 -16 -1 -20 -45 -606 rcurveline
          -2 -21 -2 -17 -11 -8 rrcurveto
          -8 9 12 -8 15 hhcurveto
          29 12 19 43 4 hvcurveto
          39 549 232 -570 rlineto
          -15 5 11 -6 15 hhcurveto
          16 10 7 14 5 hvcurveto
          241 569 40 -551 rlineto
          -40 6 10 -19 29 hhcurveto
          15 12 7 9 10 hvcurveto
          -11 9 -2 17 -1 20 rrcurveto
          endchar
        </CharString>
        <CharString name="N">
          186 108 49 -19 callgsubr
          endchar
        </CharString>
        <CharString name="NULL">
          -559 endchar
        </CharString>
        <CharString name="Nacute">
          186 108 49 -19 callgsubr
          393 217 -77 callgsubr
          endchar
        </CharString>
        <CharString name="Ncaron">
          186 497 922 -68 callgsubr
          204 -156 rmoveto
          41 callsubr
          -566 vlineto
          -361 564 rlineto
          40 -26 -20 22 -39 hhcurveto
          -18 -14 -13 -16 -9 hvcurveto
          15 -5 8 -7 -19 vvcurveto
          -611 vlineto
          15 callgsubr
          8 -17 callsubr
          560 vlineto
          363 -555 rlineto
          -42 29 24 -22 29 hhcurveto
          22 13 13 17 9 hvcurveto
          -16 5 -8 6 18 vvcurveto
          endchar
        </CharString>
        <CharString name="Ntilde">
          186 454 851 rmoveto
          90 callgsubr
          30 callsubr
          hhcurveto
          -346 -802 -19 callgsubr
          endchar
        </CharString>
        <CharString name="O">
          202 403 47 87 callgsubr
        </CharString>
        <CharString name="OE">
          494 540 66 rmoveto
          -12 -38 -47 -7 -52 hhcurveto
          -129 -120 84 206 -17 hvcurveto
          204 -19 102 120 168 hhcurveto
          65 40 -7 -11 47 hvcurveto
          138 -592 rmoveto
          -55 -19 19 48 hvcurveto
          221 224 vlineto
          35 22 -4 -11 16 hvcurveto
          13 6 10 11 18 vvcurveto
          26 -28 6 -61 vhcurveto
          -231 269 287 hlineto
          37 20 -7 -20 16 hvcurveto
          17 4 12 13 18 vvcurveto
          27 -28 17 -60 vhcurveto
          -463 hlineto
          -241 -127 -130 -225 -229 107 -128 242 hvcurveto
          464 hlineto
          78 28 24 34 14 -12 17 -17 4 hvcurveto
          262 callgsubr
          -37 hhcurveto
          endchar
        </CharString>
        <CharString name="Oacute">
          202 403 47 -60 callsubr
          -177 520 -77 callgsubr
          endchar
        </CharString>
        <CharString name="Ocircumflex">
          202 382 873 -32 callgsubr
          96 -746 rmoveto
          -128 -117 86 202 -18 hvcurveto
          204 -18 107 127 129 hhcurveto
          130 119 -88 -203 15 hvcurveto
          -202 17 -106 -126 -130 hhcurveto
          -21 673 rmoveto
          -178 -130 -138 -225 -229 130 -136 178 175 130 140 225 230 -130 133 -175 hvcurveto
          endchar
        </CharString>
        <CharString name="Odieresis">
          202 403 47 -60 callsubr
          -191 486 7 callgsubr
          endchar
        </CharString>
        <CharString name="Ograve">
          202 364 793 -17 callgsubr
          138 -848 87 callgsubr
        </CharString>
        <CharString name="Ohungarumlaut">
          202 403 47 -60 callsubr
          -255 434 27 callsubr
          endchar
        </CharString>
        <CharString name="Omacron">
          202 403 47 -60 callsubr
          -418 503 34 callsubr
          endchar
        </CharString>
        <CharString name="Oslash">
          198 568 553 rmoveto
          29 -45 19 -59 6 -74 rrcurveto
          -202 17 -106 -126 -130 hhcurveto
          -66 -64 23 50 -48 hvcurveto
          -31 41 rmoveto
          -28 44 -20 57 -6 73 rrcurveto
          204 -18 107 127 129 hhcurveto
          67 63 -23 -50 49 hvcurveto
          103 51 rmoveto
          13 16 23 23 23 11 rrcurveto
          18 -4 -14 8 -12 hhcurveto
          -19 -18 -8 -24 -20 hvcurveto
          -33 -42 rlineto
          48 -52 -68 26 -77 hhcurveto
          -178 -130 -138 -225 -105 28 -86 47 -62 hvcurveto
          -29 -36 -12 -15 -24 -23 -22 -11 rlinecurve
          -19 4 13 -8 14 hhcurveto
          18 17 8 24 21 hvcurveto
          34 43 rlineto
          -49 52 69 -26 78 hhcurveto
          175 130 140 225 106 -28 85 -46 61 hvcurveto
          endchar
        </CharString>
        <CharString name="Otilde">
          202 463 851 rmoveto
          90 callgsubr
          30 callsubr
          hhcurveto
          -60 -804 87 callgsubr
        </CharString>
        <CharString name="P">
          60 322 656 rmoveto
          121 56 -72 -92 -91 -56 -71 -121 hvcurveto
          -148 326 hlineto
          -9 56 rmoveto
          -43 -19 -10 -24 -15 hvcurveto
          15 -6 8 -6 -20 vvcurveto
          -597 20 callgsubr
          -7 7 18 vvcurveto
          224 144 vlineto
          154 94 90 129 128 -94 90 -154 hvcurveto
          endchar
        </CharString>
        <CharString name="Q">
          197 335 169 rmoveto
          -1 -6 -5 0 -6 hhcurveto
          -91 -65 92 141 159 93 109 122 142 103 -97 -177 -220 -124 -108 -138 -33 hvcurveto
          -64 -16 -14 -11 -16 vvcurveto
          -71 168 -142 134 116 26 76 33 -24 vhcurveto
          -28 -29 -39 -15 -45 hhcurveto
          -72 -112 47 84 -69 hvcurveto
          186 40 174 123 263 vvcurveto
          188 -129 131 -176 -164 -137 -146 -200 -144 91 -116 100 37 17 21 27 vhcurveto
          endchar
        </CharString>
        <CharString name="R">
          59 174 353 -51 callsubr
          endchar
        </CharString>
        <CharString name="Racute">
          59 437 865 -77 callgsubr
          -152 -424 -51 callsubr
          endchar
        </CharString>
        <CharString name="Rcaron">
          59 433 910 -68 callgsubr
          -194 -454 -51 callsubr
          endchar
        </CharString>
        <CharString name="S">
          0 callsubr
          endchar
        </CharString>
        <CharString name="Sacute">
          0 callsubr
          -91 291 -77 callgsubr
          endchar
        </CharString>
        <CharString name="Scaron">
          69 439 922 -68 callgsubr
          -223 -267 rmoveto
          46 callgsubr
          72 -84 67 -139 -110 -115 -73 -108 hvcurveto
          -217 409 11 -152 vvcurveto
          -78 -94 -62 -97 -110 -57 52 60 24 10 17 13 12 vhcurveto
          15 -8 -13 6 -19 hhcurveto
          -32 -23 -28 -39 -100 101 -73 138 139 117 88 117 hvcurveto
          184 -409 -4 175 vvcurveto
          endchar
        </CharString>
        <CharString name="T">
          -36 77 712 39 callgsubr
        </CharString>
        <CharString name="Tcaron">
          -36 386 910 -68 callgsubr
          -244 -95 39 callgsubr
        </CharString>
        <CharString name="Thorn">
          55 156 515 rmoveto
          17 56 45 10 49 hhcurveto
          118 68 -68 -98 -98 -68 -68 -118 -49 -45 8 19 -56 hvcurveto
          426 vmoveto
          -38 callgsubr
          137 vlineto
          -22 55 45 -11 61 hhcurveto
          131 115 83 138 138 -115 83 -131 -61 -45 -13 -20 -55 hvcurveto
          endchar
        </CharString>
        <CharString name="U">
          131 103 256 26 callgsubr
        </CharString>
        <CharString name="Uacute">
          131 103 256 -55 callsubr
          391 217 -77 callgsubr
          endchar
        </CharString>
        <CharString name="Ucircumflex">
          131 366 873 -32 callgsubr
          256 -544 rmoveto
          -132 -56 -66 -134 -140 -51 72 126 vhcurveto
          414 202 callgsubr
          -14 -13 -16 213 callgsubr
          -7 -19 vvcurveto
          -404 vlineto
          -155 77 -108 177 181 72 108 155 vhcurveto
          407 202 callgsubr
          -15 -13 -16 -8 vhcurveto
          15 -5 8 -7 -19 vvcurveto
          endchar
        </CharString>
        <CharString name="Udieresis">
          131 103 256 -55 callsubr
          377 183 7 callgsubr
          endchar
        </CharString>
        <CharString name="Ugrave">
          131 348 793 -17 callgsubr
          -146 -639 26 callgsubr
        </CharString>
        <CharString name="Uhungarumlaut">
          131 416 791 27 callsubr
          -229 -637 26 callgsubr
        </CharString>
        <CharString name="Umacron">
          131 253 860 34 callsubr
          -418 -604 26 callgsubr
        </CharString>
        <CharString name="Uogonek">
          131 547 249 rmoveto
          -132 -56 -66 -134 -140 -51 72 126 vhcurveto
          414 202 callgsubr
          -14 -13 -16 213 callgsubr
          -7 -19 vvcurveto
          -404 vlineto
          -149 71 -105 162 -8 vhcurveto
          -51 -27 -33 -38 -47 4 callsubr
          72 88 20 21 22 hvcurveto
          129 26 53 98 133 vvcurveto
          407 202 callgsubr
          -15 -13 -16 -8 vhcurveto
          15 -5 8 -7 -19 vvcurveto
          endchar
        </CharString>
        <CharString name="Uring">
          131 103 256 -55 callsubr
          259 249 65 callgsubr
          30 rmoveto
          -53 -48 -28 -58 -59 48 -30 53 52 48 30 59 56 -48 30 -52 hvcurveto
          endchar
        </CharString>
        <CharString name="V">
          124 118 659 rmoveto
          47 -15 -13 14 237 callsubr
          10 -11 9 -27 200 -606 rcurveline
          -32 11 13 -9 26 hhcurveto
          77 259 323 267 89 -19 49 -44 -16 -18 -8 -11 -12 hvcurveto
          32 -37 7 -36 -56 vvcurveto
          -170 -111 -227 -147 -136 vhcurveto
          endchar
        </CharString>
        <CharString name="W">
          394 485 660 rmoveto
          47 -13 -14 13 237 callsubr
          11 -11 8 -27 36 -127 rcurveline
          -39 -176 -60 -177 -69 -111 -175 611 rcurveline
          47 -14 -14 14 237 callsubr
          11 -11 8 -27 180 -605 rcurveline
          -32 10 14 -9 26 hhcurveto
          53 101 238 182 48 hvcurveto
          108 -379 rlineto
          -31 9 13 -10 26 hhcurveto
          92 156 344 225 89 -19 69 -44 -15 -17 -7 -12 -11 hvcurveto
          17 -9 22 -74 -86 vvcurveto
          -131 -57 -248 -114 -109 vhcurveto
          endchar
        </CharString>
        <CharString name="X">
          59 344 364 rmoveto
          199 280 rlineto
          22 15 14 8 19 hhcurveto
          30 5 -26 15 -18 hhcurveto
          -21 -21 -12 -61 -39 hvcurveto
          -154 -241 -180 272 rlineto
          29 -19 -16 14 -26 hhcurveto
          -22 -22 -17 -22 -7 hvcurveto
          22 -2 16 -8 14 -22 198 -298 rcurveline
          -201 -284 rlineto
          -22 -15 -14 -8 -19 hhcurveto
          -30 -5 26 -15 18 hhcurveto
          21 21 12 61 39 hvcurveto
          156 245 182 -275 rlineto
          -29 20 15 -14 26 hhcurveto
          22 19 18 17 6 hvcurveto
          -20 4 -13 10 -15 22 rrcurveto
          endchar
        </CharString>
        <CharString name="Y">
          21 540 650 17 callgsubr
        </CharString>
        <CharString name="Yacute">
          21 438 877 -77 callgsubr
          213 -139 17 callgsubr
        </CharString>
        <CharString name="Ydieresis">
          21 371 789 -8 callsubr
          307 -139 17 callgsubr
        </CharString>
        <CharString name="Z">
          33 122 45 -15 callsubr
        </CharString>
        <CharString name="Zacute">
          33 424 877 -77 callgsubr
          -191 -744 -15 callsubr
        </CharString>
        <CharString name="Zcaron">
          33 420 922 -68 callgsubr
          -233 -774 -15 callsubr
        </CharString>
        <CharString name="Zdotaccent">
          33 287 809 rmoveto
          31 29 29 30 141 callsubr
          hvcurveto
          -165 -764 -15 callsubr
        </CharString>
        <CharString name="a">
          -43 355 124 -80 callgsubr
        </CharString>
        <CharString name="aacute">
          -43 378 37 callsubr
          88 -456 -80 callgsubr
        </CharString>
        <CharString name="abreve">
          -43 250 567 48 callgsubr
          105 -443 -80 callgsubr
        </CharString>
        <CharString name="acircumflex">
          -43 250 664 -32 callgsubr
          180 -460 -80 callgsubr
        </CharString>
        <CharString name="acute">
          -320 171 37 callsubr
          endchar
        </CharString>
        <CharString name="adieresis">
          -43 311 580 -8 callsubr
          182 -456 -80 callgsubr
        </CharString>
        <CharString name="ae">
          223 355 234 rmoveto
          -33 5 -31 9 -27 vhcurveto
          -65 -45 -53 -30 -58 hhcurveto
          -51 -36 21 56 62 65 54 164 8 hvcurveto
          72 39 rmoveto
          110 11 62 63 76 hhcurveto
          61 40 -49 -61 -35 -15 -12 -28 -2 hvcurveto
          -209 -49 rmoveto
          213 6 rlineto
          77 2 30 244 callsubr
          -65 -64 -35 -62 -46 vhcurveto
          61 -20 -58 36 -82 hhcurveto
          -98 -75 -50 -59 -31 22 -15 25 9 15 4 7 11 hvcurveto
          -10 10 -3 12 13 vvcurveto
          35 30 36 74 76 28 -44 -91 vhcurveto
          -51 vlineto
          -209 -7 -88 -68 -94 vvcurveto
          -82 61 -45 85 76 58 43 69 48 vhcurveto
          -73 40 75 -39 86 hhcurveto
          87 254 callsubr
          hvcurveto
          -30 -33 -49 -20 -52 hhcurveto
          -102 -69 60 143 2 hvcurveto
          endchar
        </CharString>
        <CharString name="agrave">
          -43 232 584 -17 callgsubr
          222 -562 -80 callgsubr
        </CharString>
        <CharString name="amacron">
          -43 363 604 rmoveto
          66 callsubr
          -268 hlineto
          67 callgsubr
          259 -480 -80 callgsubr
        </CharString>
        <CharString name="ampersand">
          155 708 452 rmoveto
          39 -32 34 -51 -28 vhcurveto
          -63 13 -19 -43 -122 hhcurveto
          -41 -28 -6 -36 13 hvcurveto
          77 26 -58 -71 -105 -102 -68 -102 -129 -70 61 106 65 35 66 52 33 hvcurveto
          -1 9 10 -1 10 hhcurveto
          42 23 22 24 -14 hvcurveto
          -94 -49 45 84 72 45 55 60 57 28 -22 -58 6 hvcurveto
          33 -9 27 11 29 vvcurveto
          55 -46 35 -80 -101 -91 -71 -118 -67 32 -50 52 -23 vhcurveto
          -59 -36 -53 -61 -88 vvcurveto
          -120 94 -93 167 145 108 103 129 50 -9 40 -21 34 vhcurveto
          104 2 45 45 57 vvcurveto
          endchar
        </CharString>
        <CharString name="ampersand.alt">
          131 303 48 rmoveto
          -100 -73 60 75 70 36 49 93 56 hvcurveto
          19 -25 22 -27 26 -32 61 -75 47 -55 38 -41 rrcurveto
          -33 -42 -57 -22 -70 hhcurveto
          10 628 rmoveto
          54 39 -43 -60 -49 -30 -50 -93 -53 hvcurveto
          -54 76 -10 31 45 vvcurveto
          60 41 43 53 vhcurveto
          372 -613 rmoveto
          -7 -12 -14 -6 -19 hhcurveto
          -24 -27 12 47 -49 hvcurveto
          49 60 25 72 66 vvcurveto
          63 -31 31 -28 -10 -9 -4 -7 -8 vhcurveto
          23 -25 13 -36 -42 vvcurveto
          -49 -18 -53 -36 -44 vhcurveto
          -37 39 -47 56 -62 79 -21 27 -18 23 -16 21 rrcurveto
          114 62 49 54 71 vvcurveto
          85 -79 61 -80 -91 -69 -61 -85 -49 14 -41 66 -90 vhcurveto
          -114 -66 -55 -66 -82 vvcurveto
          -98 92 -88 131 90 72 31 47 53 vhcurveto
          -67 66 32 -11 40 hhcurveto
          36 16 22 25 8 -2 8 -5 7 hvcurveto
          endchar
        </CharString>
        <CharString name="aogonek">
          -43 355 124 rmoveto
          -49 -37 -50 -27 -55 hhcurveto
          -51 -36 21 56 62 65 54 164 8 hvcurveto
          64 107 rmoveto
          93 -59 63 -109 -96 -77 -50 -59 -31 22 -15 25 9 15 4 7 11 vhcurveto
          -10 10 -3 12 13 vvcurveto
          41 40 28 64 64 40 -38 -77 vhcurveto
          -69 vlineto
          -209 -7 -88 -68 -94 vvcurveto
          -82 62 -45 77 66 55 31 54 37 vhcurveto
          0 vlineto
          -42 14 -26 21 -11 vhcurveto
          -52 -26 -35 -39 -48 4 callsubr
          hvcurveto
          82 114 15 27 vvcurveto
          5 -6 5 -12 4 vhcurveto
          -27 1 -20 11 42 vvcurveto
          endchar
        </CharString>
        <CharString name="apostrophemod">
          -394 88 731 173 callgsubr
          endchar
        </CharString>
        <CharString name="approxequal">
          147 510 269 rmoveto
          97 callgsubr
          -34 -3 -23 -20 -39 hhcurveto
          188 vmoveto
          97 callgsubr
          -34 -3 -23 -20 -39 hhcurveto
          endchar
        </CharString>
        <CharString name="aring">
          -43 246 700 65 callgsubr
          -145 rmoveto
          52 48 30 59 56 -48 30 -52 -53 -48 -28 -58 -59 48 -30 53 hvcurveto
          105 -431 -80 callgsubr
        </CharString>
        <CharString name="asciicircum">
          -32 281 631 rmoveto
          14 -6 -10 5 -12 hhcurveto
          -11 -13 -7 -17 -10 hvcurveto
          -157 -285 rlineto
          -13 -24 -5 -20 -17 vvcurveto
          -28 17 -14 20 vhcurveto
          173 333 158 -294 rlineto
          -24 12 15 -12 17 hhcurveto
          8 10 3 9 9 hvcurveto
          endchar
        </CharString>
        <CharString name="asciitilde">
          147 575 426 rmoveto
          -34 -3 -23 -20 -39 97 callgsubr
          endchar
        </CharString>
        <CharString name="asterisk">
          -37 225 733 rmoveto
          -42 -35 -60 -65 -35 vvcurveto
          -16 10 -17 21 38 47 85 54 21 vhcurveto
          -56 23 47 -82 38 hhcurveto
          20 12 14 17 38 -62 64 -42 34 hvcurveto
          1 3 1 2 hhcurveto
          65 3 99 18 45 vvcurveto
          23 -19 11 -21 -37 -65 -35 -23 -39 vhcurveto
          7 34 7 51 37 vvcurveto
          34 -12 26 -27 -24 -11 -27 -33 -37 6 -52 8 -34 vhcurveto
          24 -40 -69 32 -34 hhcurveto
          -18 -22 -8 -23 -47 100 -15 64 -5 hvcurveto
          endchar
        </CharString>
        <CharString name="at">
          288 514 191 rmoveto
          -41 -35 -46 -21 -49 hhcurveto
          -48 -31 18 45 3 hvcurveto
          2 51 62 46 149 7 rrcurveto
          63 88 rmoveto
          76 3 -52 52 -98 hhcurveto
          -88 -70 -41 -49 -3 hvcurveto
          -25 -2 20 -13 24 hhcurveto
          7 14 3 5 10 hvcurveto
          -9 9 -2 11 1 10 rrcurveto
          28 1 29 31 68 hhcurveto
          68 23 -37 -74 -3 hvcurveto
          -2 -42 -190 -7 -83 -57 -4 -77 rlinecurve
          -67 -4 54 -38 70 hhcurveto
          59 52 24 44 36 hvcurveto
          -44 3 31 -26 45 hhcurveto
          75 108 92 167 195 -153 115 -169 -206 -173 -144 -256 -240 165 -79 123 154 56 65 22 -26 hvcurveto
          -27 -43 -62 -19 -73 hhcurveto
          -100 -148 62 216 231 140 129 188 hvcurveto
          147 -1 133 -99 1 -168 rrcurveto
          -154 -79 -62 -49 -22 -10 10 26 2 vhcurveto
          endchar
        </CharString>
        <CharString name="atilde">
          -43 137 585 rmoveto
          30 callsubr
          90 callgsubr
          218 -461 -80 callgsubr
        </CharString>
        <CharString name="b">
          9 154 359 rmoveto
          -2 vlineto
          72 39 56 24 60 hhcurveto
          95 56 -65 -128 -140 -68 -77 -108 -84 -47 38 74 hvcurveto
          2 543 rmoveto
          37 -16 19 -28 -19 -15 -12 -16 -9 vhcurveto
          16 -6 7 -6 -20 vvcurveto
          -2 -538 rlineto
          -111 76 -52 120 126 113 114 151 171 -93 83 -118 -66 -57 -35 -49 -36 vhcurveto
          endchar
        </CharString>
        <CharString name="backslash">
          -15 85 945 rmoveto
          -11 -10 -3 -8 -11 hvcurveto
          9 -6 8 -21 4 -13 202 -571 43 -133 87 -244 rrcurveto
          -16 4 13 -33 30 hhcurveto
          7 11 0 12 13 hvcurveto
          -5 5 -11 21 -4 14 -106 295 -111 334 -115 318 rrcurveto
          15 -6 -11 34 -30 hhcurveto
          endchar
        </CharString>
        <CharString name="bar">
          -306 156 811 rmoveto
          37 -16 19 -29 -18 -16 -12 -16 -8 vhcurveto
          15 -6 8 -6 -19 vvcurveto
          -909 vlineto
          -38 15 -19 29 18 38 callgsubr
          endchar
        </CharString>
        <CharString name="braceleft">
          -229 279 785 rmoveto
          12 -12 -13 8 -23 hhcurveto
          -51 -76 -46 -134 hvcurveto
          -46 14 -95 -67 -99 -64 -4 -21 -21 64 -6 -98 -70 -14 -100 -53 vvcurveto
          -132 76 -47 51 23 13 7 13 12 vhcurveto
          -63 5 -50 42 80 60 15 143 61 vvcurveto
          80 -75 32 -4 3 vhcurveto
          2 1 77 34 82 58 -15 134 56 vvcurveto
          81 50 43 63 4 vhcurveto
          endchar
        </CharString>
        <CharString name="braceright">
          -229 228 625 rmoveto
          134 -75 46 -51 -23 -13 -8 -12 -12 vhcurveto
          62 -4 50 -43 -81 -56 -14 -134 -58 vvcurveto
          -82 77 -34 2 -1 vhcurveto
          -5 -3 -74 -32 -80 -61 14 -143 -60 vvcurveto
          -80 -50 -42 -62 -5 vhcurveto
          -13 12 13 -7 23 hhcurveto
          51 75 47 132 hvcurveto
          53 -13 100 70 98 64 6 21 21 -64 4 99 67 13 95 46 vvcurveto
          endchar
        </CharString>
        <CharString name="bracketleft">
          -183 151 -157 rmoveto
          899 157 vlineto
          1 2 1 5 6 vvcurveto
          35 -34 0 -14 vhcurveto
          -175 -928 hlineto
          -64 45 0 20 vhcurveto
          156 hlineto
          1 2 1 5 4 vvcurveto
          34 -34 0 -14 vhcurveto
          endchar
        </CharString>
        <CharString name="bracketright">
          -183 246 744 rmoveto
          -900 -157 vlineto
          -68 callsubr
          -4 -6 vvcurveto
          -34 35 0 13 vhcurveto
          175 926 hlineto
          66 -45 0 -20 vhcurveto
          -156 hlineto
          -1 -3 -1 -5 -4 vvcurveto
          -34 35 0 13 vhcurveto
          endchar
        </CharString>
        <CharString name="breve">
          -286 206 681 rmoveto
          -46 -21 -33 -48 -49 -21 33 46 vhcurveto
          2 -6 -4 1 -5 hhcurveto
          -21 -19 -12 -27 -41 45 -37 80 79 45 37 41 27 -19 12 -22 -5 -4 -1 -2 -5 hvcurveto
          endchar
        </CharString>
        <CharString name="brokenbar">
          -306 158 255 rmoveto
          229 callgsubr
          -15 -13 -16 -8 vhcurveto
          15 -5 8 -7 -19 vvcurveto
          -257 vlineto
          -38 15 -19 29 19 14 -45 callgsubr
          769 vmoveto
          38 -15 19 -29 -19 -15 -13 -16 -8 vhcurveto
          15 -5 8 -7 -18 vvcurveto
          -258 vlineto
          -37 15 -19 29 19 14 12 16 9 vhcurveto
          -15 6 -8 6 19 vvcurveto
          endchar
        </CharString>
        <CharString name="bullet">
          -230 254 413 rmoveto
          45 -30 33 -47 -53 -55 -51 -56 -45 32 -33 46 56 51 51 56 vhcurveto
          endchar
        </CharString>
        <CharString name="c">
          -77 433 423 rmoveto
          260 callsubr
          -157 113 -80 107 84 72 50 34 83 callsubr
          hvcurveto
          endchar
        </CharString>
        <CharString name="cacute">
          -77 433 423 rmoveto
          260 callsubr
          -157 113 -80 107 84 72 50 34 83 callsubr
          hvcurveto
          -63 245 -77 callgsubr
          endchar
        </CharString>
        <CharString name="caron">
          -286 137 628 rmoveto
          -75 80 rlineto
          12 -12 -9 5 -7 hhcurveto
          -13 -8 -5 -7 -1 hvcurveto
          65 -103 rlineto
          -29 18 15 -13 27 hhcurveto
          26 15 13 29 18 hvcurveto
          65 103 rlineto
          7 -1 -7 5 -14 hhcurveto
          -7 -9 -5 -12 -12 hvcurveto
          endchar
        </CharString>
        <CharString name="ccaron">
          -77 366 713 -68 callgsubr
          -23 -559 rmoveto
          153 callsubr
          -157 113 -80 107 238 callsubr
          endchar
        </CharString>
        <CharString name="ccedilla">
          -77 208 -68 rmoveto
          -22 callsubr
          13 62 rlineto
          2 hlineto
          84 72 50 34 10 -5 10 -5 5 hvcurveto
          -30 -32 -53 -20 -53 hhcurveto
          153 callsubr
          -134 82 -77 90 -21 hvcurveto
          endchar
        </CharString>
        <CharString name="cedilla">
          -250 199 33 rmoveto
          -47 hlineto
          -22 -101 rlineto
          -22 callsubr
          endchar
        </CharString>
        <CharString name="cent">
          -77 293 512 rmoveto
          73 vlineto
          37 -14 21 -30 -18 -15 -14 -15 213 callgsubr
          -8 -18 vvcurveto
          -82 vlineto
          -101 -32 -79 -98 -142 vvcurveto
          -129 76 -77 87 -23 vhcurveto
          -82 vlineto
          -37 16 -20 29 18 16 13 16 8 vhcurveto
          -14 6 -9 6 18 vvcurveto
          72 vlineto
          81 3 68 48 33 vvcurveto
          83 callsubr
          45 -44 44 -86 hvcurveto
          endchar
        </CharString>
        <CharString name="circumflex">
          -286 196 682 70 callgsubr
        </CharString>
        <CharString name="colon">
          209 callgsubr
          -379 vmoveto
          200 callsubr
          20 -19 28 34 31 31 33 vhcurveto
          endchar
        </CharString>
        <CharString name="comma">
          -320 130 -27 173 callgsubr
          endchar
        </CharString>
        <CharString name="commaaccent">
          -428 121 -122 rmoveto
          218 callsubr
          219 callgsubr
          vhcurveto
          -40 callsubr
          hvcurveto
          endchar
        </CharString>
        <CharString name="commaaccent.alt">
          -428 121 679 rmoveto
          218 callsubr
          219 callgsubr
          vhcurveto
          -40 callsubr
          hvcurveto
          endchar
        </CharString>
        <CharString name="copyright">
          310 588 504 rmoveto
          51 -54 45 -81 -123 -97 -120 -139 -127 88 -94 108 92 66 65 33 14 -8 6 -5 2 vhcurveto
          -45 -34 -45 -24 -51 hhcurveto
          -82 -69 60 121 107 50 94 100 59 29 -34 -39 hvcurveto
          -4 -2 -3 -4 vvcurveto
          -1 8 7 -1 5 hhcurveto
          22 17 15 22 hvcurveto
          -463 -151 rmoveto
          174 117 149 192 194 116 -149 -174 -174 -119 -144 -191 -193 -116 144 174 vhcurveto
          672 hmoveto
          210 -155 156 -208 -207 -155 -156 -210 -211 155 -150 207 208 155 150 211 vhcurveto
          endchar
        </CharString>
        <CharString name="currency">
          48 315 223 rmoveto
          -73 -61 43 113 -9 hvcurveto
          112 -9 57 43 73 hhcurveto
          72 62 -43 -112 10 hvcurveto
          -113 8 -58 -43 -72 hhcurveto
          218 334 rmoveto
          -2 -1 -1 6 -1 5 -19 22 -28 -6 -29 -29 -22 -24 rcurveline
          31 -35 -45 15 -46 hhcurveto
          -47 -47 -15 -31 -35 hvcurveto
          -23 24 -29 29 -27 6 -19 -22 rlinecurve
          -1 -5 -2 -6 -1 1 67 -68 rcurveline
          -17 -29 -11 -37 -44 vvcurveto
          -50 14 -41 22 -31 vhcurveto
          -75 -73 rlineto
          0 2 -5 2 -4 vhcurveto
          19 -22 25 5 30 28 34 33 rcurveline
          -25 34 43 -13 42 hhcurveto
          41 41 12 25 33 hvcurveto
          35 -32 28 -28 27 -5 19 22 rlinecurve
          2 4 2 5 0 vvcurveto
          -75 73 rlineto
          22 31 13 40 51 vvcurveto
          44 -10 37 -18 29 vhcurveto
          endchar
        </CharString>
        <CharString name="d">
          6 68 callsubr
          endchar
        </CharString>
        <CharString name="dagger">
          97 296 528 rmoveto
          1 5 -5 -44 -57 vvcurveto
          -146 3 -354 -4 -144 vhcurveto
          -11 -1 -22 -4 -9 vhcurveto
          -1 6 5 0 6 hhcurveto
          41 0 42 17 hvcurveto
          208 -1 197 196 vvcurveto
          90 -2 41 1 -8 vhcurveto
          174 -3 rlineto
          106 callsubr
        </CharString>
        <CharString name="daggerdbl">
          73 296 528 rmoveto
          1 6 -4 -143 -102 vvcurveto
          -204 -1 6 4 -82 vhcurveto
          -175 3 rlineto
          -18 -39 0 -38 -5 0 -6 1 -3 hvcurveto
          -14 162 -2 5 83 hvcurveto
          -1 -33 1 -77 -52 vvcurveto
          -23 0 -18 -3 -11 vhcurveto
          -2 3 6 -2 6 hhcurveto
          36 0 39 17 hvcurveto
          -1 54 -1 53 56 vvcurveto
          59 -1 57 -1 58 -2 rrcurveto
          17 40 0 38 5 -3 7 -1 2 hvcurveto
          -1 -70 -78 -1 -79 hhcurveto
          -1 -5 3 103 146 vvcurveto
          -1 257 -2 25 1 -8 174 -3 rcurveline
          106 callsubr
        </CharString>
        <CharString name="danda">
          -173 280 567 rmoveto
          71 callgsubr
          endchar
        </CharString>
        <CharString name="dcaron">
          88 68 callsubr
          110 721 rmoveto
          219 callgsubr
          hvcurveto
          -40 callsubr
          218 callsubr
          hvcurveto
          endchar
        </CharString>
        <CharString name="dcroat">
          6 409 114 rmoveto
          -48 -29 -47 -25 -59 hhcurveto
          -80 -78 65 136 150 71 71 95 51 42 -17 -31 34 hvcurveto
          64 216 rmoveto
          67 vlineto
          37 -16 19 -29 -18 -16 -12 -16 -8 vhcurveto
          15 -6 8 -6 -20 vvcurveto
          -63 -112 vlineto
          67 callgsubr
          153 -115 hlineto
          28 -38 -44 15 -53 hhcurveto
          -117 -105 -101 -167 -169 113 -83 98 64 48 23 44 34 hvcurveto
          -10 vlineto
          -37 15 -20 30 17 38 callgsubr
          533 50 vlineto
          66 callsubr
          endchar
        </CharString>
        <CharString name="degree">
          -162 200 819 rmoveto
          -79 -63 -57 -80 -81 60 -55 80 81 60 58 81 79 -58 55 -81 hvcurveto
          -232 vmoveto
          -54 -41 43 55 55 38 38 55 55 39 -42 -54 -55 -37 -40 -55 hvcurveto
          endchar
        </CharString>
        <CharString name="dieresis">
          -306 241 634 7 callgsubr
          endchar
        </CharString>
        <CharString name="divide">
          -2 91 428 rmoveto
          -16 -41 0 -38 -5 2 -6 2 -3 hvcurveto
          429 hlineto
          16 41 0 40 5 -1 5 -2 2 hvcurveto
          -184 -177 rmoveto
          27 -19 21 -28 -33 -33 -32 -34 -27 20 -20 28 34 31 31 34 vhcurveto
          324 vmoveto
          27 -19 20 -28 -33 -33 -31 -34 -27 20 -21 28 34 31 32 34 vhcurveto
          endchar
        </CharString>
        <CharString name="dollar">
          16 356 800 rmoveto
          37 -15 19 -29 -19 -15 -13 -16 -8 179 callsubr
          -7 -19 vvcurveto
          -72 vlineto
          -104 -7 -103 -71 -102 -217 409 11 -152 vvcurveto
          -78 -94 -62 -97 -110 -57 52 60 24 10 17 13 12 vhcurveto
          15 -8 -13 6 -19 hhcurveto
          -32 -23 -28 -39 -90 82 -68 117 -13 hvcurveto
          -76 vlineto
          5 callgsubr
          -15 6 -8 6 18 vvcurveto
          73 vlineto
          128 9 104 85 110 184 -409 -4 175 vvcurveto
          46 callgsubr
          64 -66 60 -112 13 hvcurveto
          endchar
        </CharString>
        <CharString name="dotaccent">
          -433 114 659 rmoveto
          141 callsubr
          31 29 29 30 vhcurveto
          endchar
        </CharString>
        <CharString name="dotlessi">
          40 callsubr
          endchar
        </CharString>
        <CharString name="dottedcircle">
          101 139 517 rmoveto
          -26 18 -19 26 26 18 19 26 25 -18 19 -26 -26 -18 -19 -25 vhcurveto
          -82 -110 rmoveto
          -25 20 -19 26 24 20 19 25 25 -20 19 -24 -26 -20 -19 -25 vhcurveto
          -13 -126 rmoveto
          -25 19 -18 25 26 18 18 278 callgsubr
          52 -116 rmoveto
          -26 18 -18 26 25 19 18 26 25 -19 19 -25 -26 -18 -19 -25 vhcurveto
          101 -75 rmoveto
          -26 19 -20 26 25 19 20 26 24 -19 20 -25 -26 -19 -20 -24 vhcurveto
          127 -16 rmoveto
          -26 18 -18 26 26 19 18 26 26 -19 18 -26 -26 -18 -18 -26 vhcurveto
          121 53 rmoveto
          -26 19 -18 25 25 20 18 26 25 -20 19 -25 -25 -19 -19 -25 vhcurveto
          73 98 rmoveto
          -25 19 -19 26 24 19 19 25 26 -19 19 -24 -26 -19 -19 -26 vhcurveto
          10 134 rmoveto
          -26 18 -18 26 25 19 18 26 26 -19 18 -25 -26 -18 -18 -26 vhcurveto
          -50 118 rmoveto
          -25 19 -19 25 26 18 19 278 callgsubr
          -95 68 rmoveto
          -24 19 -20 26 25 18 20 24 26 -18 19 -25 -26 -19 -19 -26 vhcurveto
          -126 15 rmoveto
          -26 18 -18 26 26 18 18 26 26 -18 18 -26 -26 -18 -18 -26 vhcurveto
          endchar
        </CharString>
        <CharString name="doubledanda">
          54 280 567 rmoveto
          71 callgsubr
          227 hmoveto
          71 callgsubr
          endchar
        </CharString>
        <CharString name="dvA">
          131 428 -95 callsubr
          40 149 callgsubr
          -50 -1 -50 vhcurveto
          -12 -19 -28 -10 -41 hhcurveto
          -58 -36 22 23 -32 hvcurveto
          30 27 19 38 22 callsubr
          -17 -35 -36 -27 hvcurveto
          13 -21 -23 9 -31 -24 callsubr
          24 -6 23 -11 23 vhcurveto
          -15 30 33 -7 33 hhcurveto
          25 23 3 7 21 hvcurveto
          -6 -67 -2 -75 -81 vvcurveto
          -40 5 -43 41 4 7 1 3 6 vhcurveto
          -95 callgsubr
        </CharString>
        <CharString name="dvAA">
          400 428 -95 callsubr
          40 149 callgsubr
          -50 -1 -50 vhcurveto
          -12 -19 -28 -10 -41 hhcurveto
          -58 -36 22 23 -32 hvcurveto
          30 27 19 38 22 callsubr
          -17 -35 -36 -27 hvcurveto
          13 -21 -23 9 -31 -24 callsubr
          24 -6 23 -11 23 vhcurveto
          -15 30 33 -7 33 hhcurveto
          25 23 3 7 21 hvcurveto
          -6 -67 -2 -75 -81 77 callsubr
          229 201 callsubr
          -158 -4 -140 -137 vvcurveto
          -40 5 -43 41 4 7 1 3 6 vhcurveto
          -95 callgsubr
        </CharString>
        <CharString name="dvAI">
          -2 423 171 callgsubr
          -432 49 callsubr
          74 201 callsubr
          -62 -2 -59 -57 -175 359 -41 -107 vvcurveto
          -28 -25 -11 -18 vhcurveto
          -8 10 -28 33 38 16 32 27 vhcurveto
          146 -360 31 153 65 2 62 62 -90 callsubr
          266 hlineto
          16 -34 21 -71 -58 vvcurveto
          -64 -34 -29 -42 -15 -15 3 7 -16 vhcurveto
          -36 36 -22 39 46 51 32 78 66 -21 63 -32 65 vhcurveto
          153 -100 callsubr
        </CharString>
        <CharString name="dvAU">
          400 836 254 callgsubr
          226 callgsubr
          135 callgsubr
          vhcurveto
          44 callsubr
          -366 49 callsubr
          40 149 callgsubr
          -50 -1 -50 vhcurveto
          -12 -19 -28 -10 -41 hhcurveto
          -58 -36 22 23 -32 hvcurveto
          30 27 19 38 22 callsubr
          -17 -35 -36 -27 hvcurveto
          13 -21 -23 9 -31 -24 callsubr
          24 -6 23 -11 23 vhcurveto
          -15 30 33 -7 33 hhcurveto
          25 23 3 7 21 hvcurveto
          -6 -67 -2 -75 -81 77 callsubr
          229 201 callsubr
          -158 -4 -140 -137 vvcurveto
          -40 5 -43 41 4 7 1 3 6 vhcurveto
          -95 callgsubr
        </CharString>
        <CharString name="dvAbbreviationsign">
          -156 204 166 rmoveto
          97 49 77 74 72 -50 70 -99 -98 -49 -77 -74 -73 50 -69 100 hvcurveto
          3 260 rmoveto
          65 31 -57 -56 -56 -35 -56 -68 -66 -32 57 56 56 36 56 69 hvcurveto
          endchar
        </CharString>
        <CharString name="dvAcandra">
          131 554 768 rmoveto
          217 callsubr
          hvcurveto
          55 callgsubr
          vhcurveto
          -126 -122 -102 callgsubr
          40 149 callgsubr
          -50 -1 -50 vhcurveto
          -12 -19 -28 -10 -41 hhcurveto
          -58 -36 22 23 -32 hvcurveto
          30 27 19 38 22 callsubr
          -17 -35 -36 -27 hvcurveto
          13 -21 -23 9 -31 -24 callsubr
          24 -6 23 -11 23 vhcurveto
          -15 30 33 -7 33 hhcurveto
          25 23 3 7 21 hvcurveto
          -6 -67 -2 -75 -81 vvcurveto
          -40 5 -43 41 4 7 1 3 6 vhcurveto
          -95 callgsubr
        </CharString>
        <CharString name="dvAnusvara">
          -559 -131 761 rmoveto
          8 callgsubr
          endchar
        </CharString>
        <CharString name="dvAnusvara.amI">
          -559 40 773 rmoveto
          8 callgsubr
          endchar
        </CharString>
        <CharString name="dvAvagraha">
          10 149 553 rmoveto
          -143 272 -44 -151 vvcurveto
          -54 -43 -35 -73 -60 -70 34 67 -56 vhcurveto
          -9 -5 -4 -6 -8 vvcurveto
          -45 120 -88 104 89 63 50 79 vhcurveto
          169 -273 55 107 vvcurveto
          35 30 26 69 80 59 -1 0 vhcurveto
          2 4 1 7 3 vvcurveto
          29 -27 9 -103 -71 -100 -7 -87 vhcurveto
          endchar
        </CharString>
        <CharString name="dvB">
          -206 73 callsubr
          372 -103 callsubr
          -35 -421 145 callgsubr
          -118 102 -81 98 99 83 90 58 16 -11 17 -21 5 vhcurveto
          269 callsubr
          endchar
        </CharString>
        <CharString name="dvBA">
          -31 302 226 rmoveto
          -17 -26 -30 -9 -28 -30 callsubr
          339 47 callgsubr
        </CharString>
        <CharString name="dvBH">
          -204 398 299 rmoveto
          35 6 17 13 4 255 callsubr
          -57 3 -73 6 -87 2 rrcurveto
          175 -2 -54 123 -2 callsubr
          endchar
        </CharString>
        <CharString name="dvBHA">
          40 293 646 rmoveto
          -1 -2 -1 -6 -5 vvcurveto
          -16 8 -22 46 vhcurveto
          84 hlineto
          8 -12 2 -36 -34 -60 -1 -57 -55 vvcurveto
          -67 6 -84 2 -67 1 rrcurveto
          176 -2 -54 122 -2 callsubr
          218 hlineto
          -1 -76 -1 -73 -72 vvcurveto
          -40 5 -43 41 4 7 1 3 6 vhcurveto
          -95 callgsubr
        </CharString>
        <CharString name="dvBH_LA">
          486 291 -95 callsubr
          532 116 callgsubr
          -60 -55 -30 -64 -21 hvcurveto
          -49 3 -57 3 -66 2 rrcurveto
          175 -2 -54 123 -2 callsubr
          165 hlineto
          -1 -6 0 -6 -6 vvcurveto
          121 callgsubr
          vhcurveto
          -81 63 -57 84 87 50 callsubr
          26 -9 -17 22 hvcurveto
          -1 -96 -2 -91 -89 vvcurveto
          -40 5 -43 41 4 7 1 3 6 vhcurveto
          -95 callgsubr
        </CharString>
        <CharString name="dvBH_NA">
          59 callsubr
          -74 rlineto
          -192 -97 -88 -35 -43 61 callgsubr
          14 -8 18 -12 22 vhcurveto
          167 99 rlineto
          -5 -33 -2 -57 -25 vvcurveto
          -40 5 -43 41 4 7 1 3 6 vhcurveto
          -95 callgsubr
        </CharString>
        <CharString name="dvBH_R">
          -204 398 312 rmoveto
          37 4 17 13 4 255 callsubr
          -57 3 -73 6 -87 2 rrcurveto
          11 callsubr
          224 -67 188 callsubr
        </CharString>
        <CharString name="dvBH_RA">
          59 callsubr
          -67 -70 -59 -132 -98 -105 -26 rlinecurve
          -27 186 callgsubr
          63 133 100 65 73 hvcurveto
          -6 -29 -2 -56 -24 vvcurveto
          -40 5 -43 41 4 7 1 3 6 vhcurveto
          -95 callgsubr
        </CharString>
        <CharString name="dvBH_R_YA">
          358 747 -76 callsubr
          vvcurveto
          -78 -116 -39 -30 -44 vhcurveto
          -47 3 -56 3 -63 2 rrcurveto
          11 callsubr
          164 hlineto
          7 -25 17 -27 25 -25 -80 -71 -117 -77 -105 -25 92 callgsubr
          73 196 137 53 16 hvcurveto
          -30 41 53 -22 58 hhcurveto
          49 56 14 35 43 hvcurveto
          -6 -51 -1 -52 -28 vvcurveto
          -40 5 -43 41 4 7 1 3 6 vhcurveto
          -95 callgsubr
        </CharString>
        <CharString name="dvBH_VA">
          311 307 6 callgsubr
          vhcurveto
          -5 vlineto
          -49 3 -58 3 -66 2 rrcurveto
          175 -2 -54 123 -2 callsubr
          179 hlineto
          1 hlineto
          -88 23 83 -58 81 hhcurveto
          47 50 20 41 30 hvcurveto
          151 callgsubr
          -45 -101 callsubr
        </CharString>
        <CharString name="dvBH_YA">
          362 751 -76 callsubr
          vvcurveto
          -86 -139 -38 -13 -50 vhcurveto
          -47 3 -55 3 -62 2 rrcurveto
          175 -2 -54 123 -2 callsubr
          172 hlineto
          -64 27 90 -75 108 hhcurveto
          49 56 14 35 43 hvcurveto
          -6 -51 -1 -52 -28 vvcurveto
          -40 5 -43 41 4 7 1 3 6 vhcurveto
          -95 callgsubr
        </CharString>
        <CharString name="dvB_BA">
          308 641 133 callgsubr
          -164 -189 rmoveto
          -17 -28 -29 -8 -29 -30 callsubr
          678 64 callgsubr
          -12 1 -11 2 -11 vhcurveto
          -14 -31 -20 -25 -23 -19 -174 190 rcurveline
          -63 callsubr
          74 64 50 49 29 vhcurveto
          -61 37 68 -38 67 hhcurveto
          47 50 20 41 30 hvcurveto
          151 callgsubr
          -45 -101 callsubr
        </CharString>
        <CharString name="dvB_BHA">
          388 305 223 rmoveto
          -15 -28 -31 -8 91 callgsubr
          512 232 158 callgsubr
          -21 -17 -7 -12 -12 hvcurveto
          9 -7 -14 8 -27 hhcurveto
          -357 49 callsubr
          333 hlineto
          -32 callsubr
          -23 -1 -22 -2 -22 vhcurveto
          -104 -1 -1 -20 -53 -64 -7 -9 -8 -8 -8 -7 -176 192 rcurveline
          -63 callsubr
          91 61 68 55 37 vhcurveto
          -33 12 36 -34 35 hhcurveto
          36 11 49 41 4 hvcurveto
          218 hlineto
          -1 -76 -1 -73 -72 vvcurveto
          -40 5 -43 41 4 7 1 3 6 vhcurveto
          -95 callgsubr
        </CharString>
        <CharString name="dvB_BH_RA">
          347 303 225 rmoveto
          -16 -27 -29 -9 216 callsubr
          471 -24 callgsubr
          84 149 callgsubr
          -53 -1 -51 vhcurveto
          6 -67 -84 2 -67 hhcurveto
          161 -2 -54 124 -90 hhcurveto
          -24 -18 -9 -16 -13 hvcurveto
          12 -5 -14 11 -32 hhcurveto
          -308 49 callsubr
          292 hlineto
          -32 callsubr
          -18 -1 -18 -1 -18 vhcurveto
          -79 -1 11 -25 -39 -54 -11 -15 -12 -13 -13 -12 -174 190 rcurveline
          -63 callsubr
          75 66 52 50 27 vhcurveto
          -19 17 24 -14 22 hhcurveto
          36 11 49 41 4 hvcurveto
          219 hlineto
          -1 -67 -70 -59 -132 -98 -105 -26 rlinecurve
          -27 186 callgsubr
          63 133 100 65 73 hvcurveto
          -6 -29 -2 -56 -24 vvcurveto
          -40 5 -43 41 4 7 1 3 6 vhcurveto
          -95 callgsubr
        </CharString>
        <CharString name="dvB_DA">
          248 304 225 rmoveto
          -17 -28 -29 -8 -29 -30 callsubr
          627 178 callsubr
          vvcurveto
          -84 -289 22 -2 -192 vhcurveto
          -13 -23 -16 -20 -19 -15 -174 190 rcurveline
          -63 callsubr
          63 56 36 41 33 vhcurveto
          -69 37 89 -56 98 hhcurveto
          34 32 6 14 25 hvcurveto
          -79 callsubr
        </CharString>
        <CharString name="dvB_DHA">
          348 304 225 rmoveto
          -15 -23 -27 -10 -36 43 callsubr
          561 232 140 callsubr
          vvcurveto
          -83 -2 -78 -1 -75 vhcurveto
          -66 -38 -72 -40 -72 hhcurveto
          -69 -58 40 65 219 callsubr
          -34 -25 -10 -16 -20 hvcurveto
          -22 23 -9 30 29 222 callsubr
          -519 49 callsubr
          303 hlineto
          20 28 277 callgsubr
          -47 22 -42 32 -29 vhcurveto
          -35 -41 -21 -58 -39 -40 -172 188 rcurveline
          -63 callsubr
          68 53 43 49 31 vhcurveto
          -63 27 77 -60 91 hhcurveto
          256 callgsubr
          hvcurveto
          -6 -46 0 -58 -11 -98 callsubr
          33 -2 34 -24 13 vhcurveto
          158 -100 callsubr
        </CharString>
        <CharString name="dvB_DH_VA">
          678 304 225 rmoveto
          -15 -23 -27 -10 -36 43 callsubr
          545 -24 callgsubr
          341 88 callsubr
          28 -28 21 -49 -87 -51 -54 -73 -30 vhcurveto
          -106 -44 -41 -88 -115 hhcurveto
          -64 -53 43 62 219 callsubr
          -34 -25 -10 -16 -20 hvcurveto
          -22 23 -9 30 29 222 callsubr
          -519 49 callsubr
          303 hlineto
          20 28 277 callgsubr
          -47 22 -42 32 -29 vhcurveto
          -35 -41 -21 -58 -39 -40 -172 188 rcurveline
          -63 callsubr
          68 53 43 49 32 vhcurveto
          -63 27 76 -59 86 hhcurveto
          98 65 83 72 23 hvcurveto
          -77 30 76 -48 75 hhcurveto
          47 50 20 41 30 hvcurveto
          151 callgsubr
          -45 -101 callsubr
        </CharString>
        <CharString name="dvB_JA">
          467 304 225 rmoveto
          -17 -28 -29 -8 -29 -30 callsubr
          837 hlineto
          8 -12 2 -36 -34 vvcurveto
          -76 -331 vlineto
          53 callsubr
          203 hlineto
          -1 -108 -2 -101 -99 vvcurveto
          -40 5 -43 41 4 7 1 3 6 vhcurveto
          -95 callgsubr
        </CharString>
        <CharString name="dvB_JHA">
          506 895 131 callgsubr
          -442 -398 rmoveto
          -67 -60 48 109 callsubr
          200 -217 rlineto
          -362 449 -102 callgsubr
          597 82 callgsubr
          -20 144 callgsubr
          -67 90 -67 69 hvcurveto
          143 callsubr
          -32 -46 31 callgsubr
          -49 hlineto
          -216 236 rlineto
          -62 callgsubr
          -84 98 vhcurveto
          137 hlineto
          4 -44 39 -31 49 -19 rrcurveto
          153 callgsubr
          -17 23 hvcurveto
          -4 21 22 -2 19 hhcurveto
          43 41 12 14 25 hvcurveto
          -5 -65 -1 -64 -63 vvcurveto
          -40 5 -43 41 4 7 1 3 6 vhcurveto
          -95 callgsubr
        </CharString>
        <CharString name="dvB_J_YA">
          829 1218 595 -102 callsubr
          -711 -370 rmoveto
          -17 -28 -29 -8 -29 -30 callsubr
          953 hlineto
          -7 callsubr
          vvcurveto
          -79 -118 -39 -29 -44 vhcurveto
          76 -65 -39 7 -112 hhcurveto
          -105 hlineto
          53 callsubr
          99 23 -6 -121 98 hvcurveto
          -50 41 74 -49 86 hhcurveto
          49 56 14 35 43 hvcurveto
          -6 -51 -1 -52 -28 vvcurveto
          -40 5 -43 41 4 7 1 3 6 vhcurveto
          -95 callgsubr
        </CharString>
        <CharString name="dvB_JxA">
          468 695 41 -75 callsubr
          -391 184 rmoveto
          -17 -28 -29 -8 -29 -30 callsubr
          838 9 callgsubr
          -13 5 -25 11 -31 hvcurveto
          -14 -40 -23 -31 -27 -23 -174 190 rcurveline
          -63 callsubr
          85 73 66 56 19 vhcurveto
          -75 39 66 -76 91 hhcurveto
          63 54 41 74 66 -44 54 -27 27 hvcurveto
          203 hlineto
          -1 -108 -2 -101 -99 vvcurveto
          -40 5 -43 41 4 7 1 3 6 vhcurveto
          -95 callgsubr
        </CharString>
        <CharString name="dvB_LA">
          472 304 225 rmoveto
          -17 -28 -29 -8 -29 -30 callsubr
          842 116 callgsubr
          -74 -68 -46 -102 -3 hvcurveto
          -11 -18 -14 -15 -15 -12 -174 190 rcurveline
          -63 callsubr
          53 49 26 33 34 vhcurveto
          -107 32 95 -92 38 hhcurveto
          10 5 6 6 2 hvcurveto
          -81 63 -57 84 87 50 callsubr
          26 -9 -17 22 hvcurveto
          -1 -96 -2 -91 -89 vvcurveto
          -40 5 -43 41 4 7 1 3 6 vhcurveto
          -95 callgsubr
        </CharString>
        <CharString name="dvB_L_YA">
          828 1217 595 -102 callsubr
          -710 -370 rmoveto
          -17 -28 -29 -8 -29 -30 callsubr
          952 hlineto
          -7 callsubr
          vvcurveto
          -58 -64 -37 -45 -32 vhcurveto
          21 -20 -37 20 -47 252 callgsubr
          -65 -60 -35 -77 -16 hvcurveto
          -14 -34 -21 -27 -24 -20 -174 190 rcurveline
          -63 callsubr
          60 54 33 39 33 vhcurveto
          -113 28 102 -99 39 hhcurveto
          -8 callgsubr
          155 callsubr
          23 35 24 46 hhcurveto
          21 19 -6 -9 16 hvcurveto
          -9 -10 -6 -10 -10 136 callgsubr
          49 56 14 35 43 vhcurveto
          -6 -51 -1 -52 -28 vvcurveto
          -40 5 -43 41 4 7 1 3 6 vhcurveto
          -95 callgsubr
        </CharString>
        <CharString name="dvB_NA">
          -35 298 226 rmoveto
          -17 -26 -30 -9 -28 -30 callsubr
          339 64 callgsubr
          -107 83 -79 96 -4 vhcurveto
          -86 -38 -29 -27 -27 61 callgsubr
          16 -9 20 -15 25 vhcurveto
          79 49 48 29 23 33 rrcurveto
          -6 -48 -2 -47 -46 -101 callsubr
        </CharString>
        <CharString name="dvB_R">
          -206 304 225 145 callgsubr
          -114 94 -77 89 8 7 0 1 5 vhcurveto
          -63 -34 -71 -27 -60 -14 rrcurveto
          -29 4 21 -13 21 hhcurveto
          77 248 162 97 15 -10 15 -20 5 hvcurveto
          269 callsubr
          -362 403 -102 callgsubr
          534 -100 callsubr
        </CharString>
        <CharString name="dvB_RA">
          -31 302 226 rmoveto
          -17 -26 -30 -9 -28 -30 callsubr
          339 64 callgsubr
          -114 94 -77 89 vhcurveto
          6 hlineto
          -58 -34 -67 -26 -55 -14 rrcurveto
          -29 4 21 -13 21 hhcurveto
          65 158 114 59 50 hvcurveto
          -6 -48 -2 -46 -46 -101 callsubr
        </CharString>
        <CharString name="dvB_SA">
          481 870 -42 callgsubr
          -294 -375 rmoveto
          -13 -26 -28 -7 -30 hhcurveto
          -76 -57 53 70 -20 callgsubr
          535 -82 callgsubr
          -23 8 -20 14 -16 hvcurveto
          -16 -27 -19 -23 -23 -17 -179 196 rcurveline
          -63 callsubr
          92 73 65 52 27 vhcurveto
          8 -3 9 -4 9 -2 rrcurveto
          -104 21 56 -7 callgsubr
          -26 60 57 -9 47 hhcurveto
          36 27 5 5 16 hvcurveto
          -1 -69 -1 -67 -66 vvcurveto
          -40 5 -43 41 4 7 1 3 6 vhcurveto
          -95 callgsubr
        </CharString>
        <CharString name="dvB_SHA">
          486 73 callsubr
          372 -103 callsubr
          -30 -427 rmoveto
          -12 -26 -29 -7 -30 hhcurveto
          -76 -57 53 70 68 callgsubr
          26 19 rmoveto
          -63 callsubr
          87 70 53 48 33 vhcurveto
          12 -8 15 -5 15 -4 11 callgsubr
          -27 -17 -21 -25 -15 5 -14 9 -13 hvcurveto
          -16 -23 -18 -19 -21 -14 rrcurveto
          491 411 -4 callgsubr
        </CharString>
        <CharString name="dvB_TA">
          288 304 225 rmoveto
          -17 -28 -29 -8 -29 -30 callsubr
          658 234 callsubr
          -92 -62 -50 -82 -6 hvcurveto
          -12 -22 -16 -18 -18 -15 -174 190 rcurveline
          -63 callsubr
          56 51 29 35 33 vhcurveto
          -108 28 82 -96 32 hhcurveto
          218 callgsubr
          21 callsubr
          123 hlineto
          -1 -105 -2 -99 -97 vvcurveto
          -40 5 -43 41 4 7 1 3 6 vhcurveto
          -95 callgsubr
        </CharString>
        <CharString name="dvB_VA">
          300 304 225 rmoveto
          -17 -28 -29 -8 -29 -30 callsubr
          670 -63 callgsubr
          -11 1 -10 2 -10 vhcurveto
          -14 -30 -20 -25 -22 -18 -174 190 rcurveline
          -63 callsubr
          72 64 48 48 29 vhcurveto
          -60 36 65 -36 65 hhcurveto
          47 50 20 41 30 hvcurveto
          151 callgsubr
          -45 -101 callsubr
        </CharString>
        <CharString name="dvB_YA">
          359 748 595 -102 callsubr
          -241 -370 rmoveto
          -17 -28 -29 -8 -29 -30 callsubr
          483 hlineto
          -7 callsubr
          -90 -153 -38 -53 vvcurveto
          -7 1 -7 2 -8 vhcurveto
          -14 -29 -18 -23 -22 -18 -174 190 rcurveline
          -63 callsubr
          76 67 53 51 27 vhcurveto
          -51 40 74 -46 85 hhcurveto
          49 56 14 35 43 hvcurveto
          -6 -51 -1 -52 -28 vvcurveto
          -40 5 -43 41 4 7 1 3 6 vhcurveto
          -95 callgsubr
        </CharString>
        <CharString name="dvC">
          -178 -58 -95 callsubr
          447 -103 callsubr
          -67 -234 rmoveto
          56 callsubr
          -106 100 -72 97 92 77 74 51 18 -9 16 -21 6 vhcurveto
          -84 -36 -70 -34 -63 185 callsubr
          endchar
        </CharString>
        <CharString name="dvCA">
          31 -58 -95 callsubr
          426 -14 callgsubr
          -35 -23 -18 -36 -35 vvcurveto
          -106 100 -72 97 46 52 22 42 29 vhcurveto
          -5 -45 -2 -44 -44 -101 callsubr
        </CharString>
        <CharString name="dvCH">
          88 672 -42 callsubr
          -655 hlineto
          10 callgsubr
          110 152 83 -56 92 -87 184 callsubr
          vhcurveto
          22 -20 13 -33 -41 vvcurveto
          -99 -78 -134 36 callsubr
          endchar
        </CharString>
        <CharString name="dvCHA">
          88 431 595 -31 callsubr
          33 -38 15 -32 -24 -26 -6 -13 -22 hvcurveto
          -18 23 -7 29 29 vvcurveto
          53 26 41 45 26 vhcurveto
          -225 51 rmoveto
          10 callgsubr
          116 161 70 -38 75 -66 23 vhcurveto
          31 -3 34 -64 callgsubr
          201 -103 callsubr
          endchar
        </CharString>
        <CharString name="dvCH_R">
          88 318 27 -52 callsubr
          354 568 -55 callgsubr
          -655 hlineto
          10 callgsubr
          110 152 83 -56 92 -87 184 callsubr
          vhcurveto
          22 -20 13 -33 -41 vvcurveto
          -99 -78 -134 36 callsubr
          endchar
        </CharString>
        <CharString name="dvCH_RA">
          88 318 27 -52 callsubr
          113 568 -31 callsubr
          33 -38 15 -32 -24 -26 -6 -13 -22 hvcurveto
          -18 23 -7 29 29 vvcurveto
          53 26 41 45 26 vhcurveto
          -225 51 rmoveto
          10 callgsubr
          116 161 70 -38 75 -66 23 vhcurveto
          31 -3 34 -64 callgsubr
          201 -103 callsubr
          endchar
        </CharString>
        <CharString name="dvCH_R_YA">
          674 335 27 -52 callsubr
          728 568 rmoveto
          -67 callgsubr
          -102 -1 -96 -2 -92 vhcurveto
          -56 -44 -73 -18 -54 hhcurveto
          -61 -72 164 callsubr
          -51 63 -91 -73 -94 -21 -26 -58 vhcurveto
          30 -25 -34 20 -40 hhcurveto
          184 callsubr
          hvcurveto
          22 -20 13 -33 -41 vvcurveto
          -99 -78 -134 36 callsubr
          -225 51 rmoveto
          10 callgsubr
          110 152 27 -6 28 -11 26 vhcurveto
          24 64 75 18 86 hhcurveto
          45 26 -19 -29 hvcurveto
          -59 -163 -34 -67 vvcurveto
          -65 94 -83 112 53 58 13 37 43 vhcurveto
          -4 -29 -1 -28 -16 vvcurveto
          -40 5 -43 41 4 7 1 3 6 vhcurveto
          -95 callgsubr
        </CharString>
        <CharString name="dvCH_YA">
          674 1063 100 callgsubr
          -69 -88 -19 -24 -59 vhcurveto
          -17 25 -24 19 -28 10 rrcurveto
          31 -3 34 -64 callgsubr
          -40 hmoveto
          7 -11 3 -30 -31 vvcurveto
          -56 -5 -33 -54 -51 vvcurveto
          -76 51 -64 29 8 6 5 4 2 vhcurveto
          -20 23 -24 36 48 vvcurveto
          50 26 41 45 48 27 -49 -62 -105 -78 -143 36 callsubr
          -225 51 rmoveto
          10 callgsubr
          116 161 23 -4 23 -8 22 vhcurveto
          23 64 72 17 84 hhcurveto
          45 26 -19 -29 hvcurveto
          -59 -163 -34 -67 vvcurveto
          -65 94 -83 112 53 58 13 37 43 vhcurveto
          -4 -29 -1 -28 -16 vvcurveto
          -40 5 -43 41 4 7 1 3 6 vhcurveto
          -95 callgsubr
        </CharString>
        <CharString name="dvC_CA">
          383 392 412 rmoveto
          26 36 3 4 33 hvcurveto
          167 callgsubr
          -10 1 -10 2 -10 vhcurveto
          -72 -38 -64 -29 -59 185 callsubr
          -339 234 -102 callgsubr
          751 193 callgsubr
          41 hlineto
          1 2 2 6 4 vvcurveto
          39 -38 0 -16 vhcurveto
          -597 hlineto
          -86 callgsubr
          -3 vvcurveto
          -39 43 -1 27 26 36 3 4 33 vhcurveto
          167 callgsubr
          -106 100 -72 97 70 61 43 43 26 vhcurveto
          -54 36 67 -32 65 hhcurveto
          46 52 22 42 29 hvcurveto
          -5 -45 -2 -44 -44 -101 callsubr
        </CharString>
        <CharString name="dvC_CHA">
          456 799 595 -31 callsubr
          32 -36 16 -31 -30 -24 -8 -12 -20 hvcurveto
          -18 23 -8 30 29 vvcurveto
          53 26 41 45 26 vhcurveto
          -616 -96 callgsubr
          402 hlineto
          20 23 1 2 42 249 callsubr
          -65 -24 -114 -122 hhcurveto
          -64 -58 41 65 150 callgsubr
          97 -71 95 68 50 38 38 28 vhcurveto
          -91 29 112 -62 102 hhcurveto
          158 118 116 161 70 -38 75 -66 23 hvcurveto
          47 callsubr
        </CharString>
        <CharString name="dvC_CH_VA">
          442 781 155 rmoveto
          -21 -37 -46 -13 -55 hhcurveto
          -87 -81 50 84 38 20 28 24 16 hvcurveto
          -10 21 22 -6 23 hhcurveto
          24 31 12 32 33 -38 15 -32 -29 -23 -8 -12 -19 hvcurveto
          -18 23 -8 30 29 vvcurveto
          53 26 41 45 26 vhcurveto
          241 hlineto
          7 -11 3 -30 -31 vvcurveto
          -56 -5 -33 -54 -51 -98 75 -49 -100 vvcurveto
          123 203 rmoveto
          -60 -25 -72 -55 -51 vhcurveto
          -21 81 -45 44 78 vvcurveto
          50 26 41 45 48 27 -49 -62 vhcurveto
          -126 -410 rmoveto
          -56 -34 -55 -28 -51 hhcurveto
          -56 -49 39 56 64 48 34 95 4 hvcurveto
          38 2 35 7 32 12 -1 -50 -1 -41 -1 -43 rrcurveto
          -836 687 -102 callgsubr
          382 hlineto
          21 23 0 3 47 249 callsubr
          -63 -24 -114 -116 hhcurveto
          -62 -54 43 63 150 callgsubr
          93 -71 96 56 50 32 43 29 vhcurveto
          18 -55 50 -46 60 -26 rrcurveto
          -44 -17 -31 -37 -52 vvcurveto
          -89 95 -74 83 42 45 18 36 32 vhcurveto
          -3 -16 -3 -20 -19 vvcurveto
          -42 8 -37 38 -96 callsubr
          115 4 52 101 6 0 6 6 vvcurveto
          74 48 44 81 101 vvcurveto
          70 -38 75 -66 23 vhcurveto
          47 callsubr
        </CharString>
        <CharString name="dvC_MA">
          381 770 3 callgsubr
          -595 -96 callgsubr
          503 hlineto
          -48 callgsubr
          -28 -27 -3 -13 -17 hvcurveto
          -20 -25 -19 -120 -116 40 callgsubr
          -35 -23 -18 -36 -35 vvcurveto
          -106 100 -72 97 65 56 49 47 19 vhcurveto
          -20 17 24 -14 22 243 callsubr
          220 hlineto
          -1 -76 -1 -73 -72 vvcurveto
          -40 5 -43 41 4 7 1 3 6 vhcurveto
          -95 callgsubr
        </CharString>
        <CharString name="dvC_NA">
          31 -58 -95 callsubr
          426 -14 callgsubr
          -35 -23 -18 -36 -35 vvcurveto
          -101 92 -71 87 vhcurveto
          6 hlineto
          -111 -58 -48 -28 -33 61 callgsubr
          16 -10 20 -15 26 vhcurveto
          107 69 46 29 32 43 rrcurveto
          151 callgsubr
          -45 -101 callsubr
        </CharString>
        <CharString name="dvC_R">
          -178 -58 -95 callsubr
          447 -103 callsubr
          -67 -234 rmoveto
          56 callsubr
          -101 92 -71 87 vhcurveto
          9 hlineto
          -65 -40 -80 -38 -60 -14 rrcurveto
          -28 4 18 -12 20 hhcurveto
          77 260 176 85 13 -7 12 -19 5 hvcurveto
          -84 -36 -70 -34 -63 185 callsubr
          endchar
        </CharString>
        <CharString name="dvC_RA">
          31 -58 -95 callsubr
          426 -14 callgsubr
          -35 -23 -18 -36 -35 vvcurveto
          -101 92 -71 87 vhcurveto
          9 hlineto
          -65 -40 -80 -38 -60 -14 rrcurveto
          -28 4 18 -12 20 hhcurveto
          64 164 113 79 71 hvcurveto
          -5 -46 -2 -45 -44 -101 callsubr
        </CharString>
        <CharString name="dvC_YA">
          405 794 595 -102 callsubr
          -649 -96 callgsubr
          554 hlineto
          -7 callsubr
          vvcurveto
          -80 -99 -23 -43 -54 vhcurveto
          -34 -27 -11 -131 -129 hhcurveto
          -65 -51 50 56 28 callgsubr
          -35 -23 -18 -36 -35 vvcurveto
          -104 93 -71 91 84 57 61 56 19 vhcurveto
          -55 39 77 -52 90 hhcurveto
          49 56 14 35 43 hvcurveto
          -6 -51 -1 -52 -28 vvcurveto
          -40 5 -43 41 4 7 1 3 6 vhcurveto
          -95 callgsubr
        </CharString>
        <CharString name="dvCandrabindu">
          -559 -156 899 rmoveto
          8 callgsubr
          -168 -5 101 callsubr
        </CharString>
        <CharString name="dvD">
          -67 288 28 -61 callgsubr
          229 567 -55 callgsubr
          -502 hlineto
          133 callsubr
          -84 -291 22 -194 vvcurveto
          -97 114 -97 129 29 28 5 10 23 vhcurveto
          -46 26 37 -45 45 hhcurveto
          32 20 20 25 12 -7 16 -11 9 hvcurveto
          -15 -11 -14 -9 -18 hhcurveto
          -29 -23 22 28 -18 hvcurveto
          19 17 12 23 30 vvcurveto
          31 -22 38 -35 -32 -19 -28 -26 -20 7 -17 10 -15 vhcurveto
          -11 -24 -29 -5 -28 hhcurveto
          -79 -80 42 85 hvcurveto
          168 283 -40 126 vvcurveto
          25 -10 20 -12 15 vhcurveto
          endchar
        </CharString>
        <CharString name="dvDA">
          -89 -37 646 166 callsubr
          -84 -291 22 -194 vvcurveto
          -97 114 -97 129 34 32 6 14 25 vhcurveto
          -79 callsubr
        </CharString>
        <CharString name="dvDA_mvR">
          -94 163 callgsubr
          -38 16 -37 25 -28 hvcurveto
          -26 -22 -17 -32 -42 vvcurveto
          -74 92 -92 107 91 70 40 51 20 -19 20 -16 2 vhcurveto
          -56 -26 -64 -28 -61 hhcurveto
          -67 -58 37 63 34 18 24 21 14 hvcurveto
          -10 19 21 -6 21 hhcurveto
          25 33 12 33 32 -36 15 -30 -23 -24 -5 -11 -22 hvcurveto
          -14 20 -8 22 21 215 callgsubr
          156 -100 callsubr
        </CharString>
        <CharString name="dvDD">
          -107 223 -4 -61 callgsubr
          -260 650 -102 callgsubr
          270 117 callsubr
          -75 -49 -36 -65 -82 95 -56 67 hvcurveto
          -84 callsubr
          172 -100 callsubr
        </CharString>
        <CharString name="dvDDA">
          -107 -94 callgsubr
          270 117 callsubr
          -75 -49 -36 -65 -82 95 -56 67 hvcurveto
          -84 callsubr
          172 -100 callsubr
        </CharString>
        <CharString name="dvDDH">
          -89 214 1 -61 callgsubr
          -251 645 -102 callgsubr
          263 hlineto
          16 -11 16 -19 -21 -96 -285 20 -201 -62 callsubr
        </CharString>
        <CharString name="dvDDHA">
          -89 -94 callgsubr
          263 hlineto
          16 -11 16 -19 -21 -96 -285 20 -201 -62 callsubr
        </CharString>
        <CharString name="dvDDH_DDHA">
          -79 -94 callgsubr
          262 hlineto
          15 -10 19 -17 -18 -81 -286 21 -159 vvcurveto
          -83 80 -66 84 -26 vhcurveto
          -90 -26 -78 -42 -84 257 callgsubr
          181 callsubr
          -63 -73 -33 -64 -91 -83 51 76 vhcurveto
          159 367 -45 166 vvcurveto
          181 callsubr
          -66 -79 -36 -68 -86 -79 52 73 vhcurveto
          137 281 -35 120 vvcurveto
          24 -13 19 -17 16 vhcurveto
          178 -100 callsubr
        </CharString>
        <CharString name="dvDDH_R">
          -89 424 -152 -28 callgsubr
          -278 760 -102 callgsubr
          263 hlineto
          16 -11 16 -19 -21 -96 -285 20 -201 -62 callsubr
        </CharString>
        <CharString name="dvDDH_RA">
          -89 240 11 -52 callsubr
          -277 635 -102 callgsubr
          263 hlineto
          16 -11 16 -19 -21 -96 -285 20 -201 -62 callsubr
        </CharString>
        <CharString name="dvDDH_VA">
          -89 263 152 rmoveto
          21 19 2 3 17 hvcurveto
          1 -10 0 -12 -12 -43 -1 -51 -49 vvcurveto
          -33 -35 -46 -15 -47 hhcurveto
          -61 -56 38 63 60 45 59 143 hvcurveto
          -300 494 -102 callgsubr
          263 hlineto
          15 -8 16 -18 -20 -78 -285 30 -161 vvcurveto
          -72 47 -59 70 -31 vhcurveto
          -61 -15 -49 -44 -65 vvcurveto
          -96 94 -72 92 34 42 10 24 30 vhcurveto
          -3 -19 -3 -29 -23 vvcurveto
          -38 10 -34 35 4 7 1 3 4 vhcurveto
          -30 callgsubr
          34 32 84 4 117 65 vvcurveto
          16 -1 17 -3 15 vhcurveto
          43 20 25 35 40 vvcurveto
          72 -68 49 -65 -48 -47 -28 -52 -37 23 -21 24 6 6 1 3 5 vhcurveto
          -4 8 -4 14 14 vvcurveto
          36 28 22 33 31 29 -21 -41 -60 -77 -31 -65 -108 -59 54 70 vhcurveto
          143 280 -43 114 vvcurveto
          25 -12 20 -16 16 -1 callgsubr
        </CharString>
        <CharString name="dvDDH_YA">
          519 908 119 callsubr
          -65 -76 164 callsubr
          -56 63 -78 -116 -109 -105 -89 -48 vhcurveto
          4 -12 -13 2 -13 hhcurveto
          -49 -49 -31 -59 -37 23 -21 24 6 6 1 3 5 hvcurveto
          -4 9 -4 13 14 vvcurveto
          42 29 26 35 31 31 -22 -43 -74 -74 -39 -64 -91 -83 61 89 vhcurveto
          175 280 -32 130 vvcurveto
          30 -12 23 -18 19 vhcurveto
          -363 -96 callgsubr
          263 hlineto
          16 -11 16 -19 -21 -96 -285 20 -201 vvcurveto
          -122 137 -89 109 99 69 58 75 43 -22 36 -31 22 vhcurveto
          89 56 99 78 101 hhcurveto
          40 23 -17 -31 hvcurveto
          -59 -163 -34 -67 vvcurveto
          -65 98 -83 116 50 55 12 36 41 vhcurveto
          -4 -28 -1 -28 -15 vvcurveto
          -40 5 -43 41 4 7 1 3 6 vhcurveto
          -95 callgsubr
        </CharString>
        <CharString name="dvDDHxA">
          -89 245 -9 -75 callsubr
          -282 655 -102 callgsubr
          263 hlineto
          16 -11 16 -19 -21 -96 -285 20 -201 -62 callsubr
        </CharString>
        <CharString name="dvDD_DDA">
          -97 -94 callgsubr
          279 hlineto
          17 -12 14 -18 -16 vvcurveto
          -18 -13 -13 -39 261 callgsubr
          -76 -50 -32 -53 -71 259 callsubr
          -25 -54 161 callgsubr
          -26 43 -48 68 -32 vhcurveto
          -35 -12 -21 -24 -32 vvcurveto
          -71 93 -49 66 vhcurveto
          232 callgsubr
          -25 -54 161 callgsubr
          -41 112 -99 145 94 66 48 58 54 216 callgsubr
          33 38 55 14 40 245 callgsubr
          94 65 48 58 54 -58 65 -84 hvcurveto
          -33 -29 -4 -28 hhcurveto
          -52 -30 17 33 38 55 14 111 callgsubr
        </CharString>
        <CharString name="dvDD_DDHA">
          -82 -40 646 103 callsubr
          -32 71 -71 98 -22 vhcurveto
          -87 -26 -78 -44 -83 257 callgsubr
          75 -67 51 -66 -49 -48 -32 -56 -37 24 -26 26 6 7 1 4 6 vhcurveto
          -8 13 -5 15 15 vvcurveto
          33 22 30 41 30 30 -21 -41 -63 -73 -33 -64 -91 -83 51 76 102 155 28 117 35 vhcurveto
          55 17 35 37 43 vvcurveto
          55 216 callgsubr
          34 40 55 13 111 callgsubr
        </CharString>
        <CharString name="dvDD_R">
          -107 412 -164 -28 callgsubr
          -266 772 -102 callgsubr
          270 117 callsubr
          -75 -49 -36 -65 -82 95 -56 67 hvcurveto
          -84 callsubr
          172 -100 callsubr
        </CharString>
        <CharString name="dvDD_RA">
          -107 227 6 -52 callsubr
          -264 640 -102 callgsubr
          270 117 callsubr
          -75 -49 -36 -65 -82 95 -56 67 hvcurveto
          -84 callsubr
          172 -100 callsubr
        </CharString>
        <CharString name="dvDD_VA">
          -82 295 84 rmoveto
          -40 0 -26 -24 vvcurveto
          -27 -29 -34 -14 -39 hhcurveto
          -53 -49 33 55 56 46 43 107 2 hvcurveto
          16 16 2 2 15 hvcurveto
          3 -16 1 -23 -23 vvcurveto
          -335 562 103 callsubr
          -28 52 -56 80 -30 vhcurveto
          -56 -13 -39 -41 -52 vvcurveto
          -89 86 -66 85 31 26 9 17 23 vhcurveto
          -3 -12 -1 -13 -14 vvcurveto
          -32 10 -30 33 5 6 1 3 4 vhcurveto
          -30 callgsubr
          34 32 84 3 23 65 vvcurveto
          24 -2 28 -11 16 vhcurveto
          59 16 36 32 47 vvcurveto
          55 216 callgsubr
          34 40 55 13 111 callgsubr
        </CharString>
        <CharString name="dvDD_YA">
          479 885 119 callsubr
          -65 -76 164 callsubr
          -56 63 -78 -118 -115 -110 -92 -42 vhcurveto
          7 -18 -19 4 -21 -29 -26 -4 -25 hhcurveto
          -51 -33 24 42 54 53 16 41 245 callgsubr
          86 17 44 26 31 -16 26 -23 22 hvcurveto
          -367 -96 callgsubr
          270 117 callsubr
          -75 -49 -36 -65 -82 95 -56 67 hvcurveto
          13 callgsubr
          -95 -77 41 67 -50 110 callgsubr
          -41 115 -100 146 92 65 53 65 38 -21 42 -34 30 vhcurveto
          92 54 100 86 106 hhcurveto
          40 23 -17 -31 hvcurveto
          -59 -163 -34 -67 vvcurveto
          -65 98 -83 116 50 55 12 36 41 vhcurveto
          -4 -28 -1 -28 -15 vvcurveto
          -40 5 -43 41 4 7 1 3 6 vhcurveto
          -95 callgsubr
        </CharString>
        <CharString name="dvDDxA">
          -107 220 -37 -75 callsubr
          -257 683 -102 callgsubr
          270 117 callsubr
          -75 -49 -36 -65 -82 95 -56 67 hvcurveto
          -84 callsubr
          172 -100 callsubr
        </CharString>
        <CharString name="dvDH">
          123 callsubr
          -78 91 -93 114 115 91 87 54 17 -8 14 -20 7 vhcurveto
          139 callsubr
        </CharString>
        <CharString name="dvDHA">
          33 375 646 rmoveto
          -1 -2 -1 -6 -5 vvcurveto
          -22 14 -8 14 -7 vhcurveto
          22 -11 9 -14 -58 vvcurveto
          -83 -2 -78 -1 -75 vhcurveto
          -66 -38 -72 -40 -72 hhcurveto
          -69 -58 40 65 70 callsubr
          -78 91 -93 114 256 callgsubr
          vhcurveto
          -6 -46 0 -58 -11 -98 callsubr
          33 -2 34 -24 13 vhcurveto
          158 -100 callsubr
        </CharString>
        <CharString name="dvDH_MA">
          361 750 3 callgsubr
          -214 51 rmoveto
          196 callsubr
          -62 -7 -8 -58 -29 hvcurveto
          -68 -35 -60 -40 -66 hhcurveto
          -59 -50 38 62 70 callsubr
          -75 82 -89 103 80 66 58 52 27 vhcurveto
          -17 17 21 -13 22 243 callsubr
          220 hlineto
          -1 -76 -1 -73 -72 vvcurveto
          -40 5 -43 41 4 7 1 3 6 vhcurveto
          -95 callgsubr
        </CharString>
        <CharString name="dvDH_NA">
          33 375 646 140 callsubr
          vvcurveto
          -84 -2 -80 -1 -76 vhcurveto
          -62 -31 -74 -40 -77 hhcurveto
          -69 -58 40 65 70 callsubr
          -72 72 -73 85 -16 vhcurveto
          -90 -26 -55 -28 -37 vvcurveto
          -32 42 -37 44 25 24 13 26 15 -7 19 -11 25 vhcurveto
          111 54 78 18 45 54 rrcurveto
          -6 -46 0 -61 -11 -98 callsubr
          33 -2 34 -24 13 vhcurveto
          158 -100 callsubr
        </CharString>
        <CharString name="dvDH_N_YA">
          402 791 -76 callsubr
          vvcurveto
          -57 -64 -41 -48 -32 vhcurveto
          -59 -88 11 -150 -163 hhcurveto
          -57 -47 38 61 70 callsubr
          -66 63 -75 85 -17 vhcurveto
          -97 -26 -61 -27 -38 vvcurveto
          -32 42 -37 44 24 25 13 26 15 -7 20 -12 26 vhcurveto
          193 72 46 68 25 61 rrcurveto
          -59 35 83 -57 97 hhcurveto
          49 56 14 35 43 hvcurveto
          -6 -51 -1 -52 -28 vvcurveto
          -40 5 -43 41 4 7 1 3 6 vhcurveto
          -95 callgsubr
        </CharString>
        <CharString name="dvDH_R">
          123 callsubr
          -82 92 -82 100 169 callgsubr
          70 293 168 93 16 -8 13 -19 6 hvcurveto
          139 callsubr
        </CharString>
        <CharString name="dvDH_RA">
          33 375 646 rmoveto
          -1 -2 -1 -6 -5 vvcurveto
          -22 14 -8 14 -7 vhcurveto
          22 -11 9 -14 -58 vvcurveto
          -83 -2 -78 -1 -75 vhcurveto
          -66 -38 -72 -40 -72 hhcurveto
          -69 -58 40 65 70 callsubr
          -82 92 -82 100 169 callgsubr
          56 179 93 107 82 hvcurveto
          -7 -46 0 -69 -12 -98 callsubr
          33 -2 34 -24 13 vhcurveto
          158 -100 callsubr
        </CharString>
        <CharString name="dvDH_VA">
          348 344 -16 callsubr
          -223 hlineto
          -105 callgsubr
          21 30 1 3 46 vhcurveto
          -32 -27 -12 -40 -30 vvcurveto
          -46 21 -41 31 -29 vhcurveto
          -21 -23 -13 -31 -39 93 callgsubr
        </CharString>
        <CharString name="dvDH_YA">
          402 791 -76 callsubr
          vvcurveto
          -57 -64 -41 -48 -32 vhcurveto
          -59 -88 11 -150 -163 hhcurveto
          -57 -47 38 61 70 callsubr
          -75 81 -86 101 92 70 78 66 26 vhcurveto
          -59 35 84 -57 96 hhcurveto
          49 56 14 35 43 hvcurveto
          -6 -51 -1 -52 -28 vvcurveto
          -40 5 -43 41 4 7 1 3 6 vhcurveto
          -95 callgsubr
        </CharString>
        <CharString name="dvD_BA">
          214 callgsubr
          11 -58 -18 -49 -38 -31 rrcurveto
          -26 -16 rmoveto
          -10 -22 -27 -6 -29 hhcurveto
          -48 -52 25 50 29 17 26 44 14 hvcurveto
          -200 470 241 callsubr
          13 -9 9 -12 -13 -78 -291 29 -154 177 callgsubr
          -90 96 -51 73 -53 callsubr
        </CharString>
        <CharString name="dvD_BHA">
          128 -94 callgsubr
          461 hlineto
          13 -9 9 -12 -13 -78 -291 29 -154 vvcurveto
          -79 96 -84 115 -2 vhcurveto
          -54 -23 -49 -22 -40 -20 rrcurveto
          110 -64 -72 41 -52 hhcurveto
          -47 -27 -34 -35 -47 38 -36 35 10 15 3 15 3 hvcurveto
          -33 9 -16 27 23 vvcurveto
          21 14 19 27 38 39 -54 -43 25 vhcurveto
          7 -13 8 -15 8 -15 rrcurveto
          -29 -17 -23 -17 -25 vvcurveto
          -33 45 -28 41 30 20 14 27 17 -7 20 -8 18 vhcurveto
          228 126 rlineto
          -46 27 36 -52 55 19 callsubr
          17 12 25 31 vvcurveto
          28 -22 34 -33 -31 -19 -27 -26 -21 7 -15 10 -16 vhcurveto
          -12 -28 -33 -6 -33 hhcurveto
          -74 -74 34 70 hvcurveto
          132 283 -41 112 vvcurveto
          21 -9 18 -11 13 vhcurveto
          194 -100 callsubr
        </CharString>
        <CharString name="dvD_B_RA">
          214 callgsubr
          12 -59 -18 -49 -39 -30 rrcurveto
          -26 -16 rmoveto
          -10 -22 -27 -6 -29 hhcurveto
          -48 -52 25 50 29 17 26 44 14 hvcurveto
          -200 470 241 callsubr
          13 -9 9 -12 -13 -78 -291 29 -154 177 callgsubr
          -76 68 -53 84 10 9 0 2 10 vhcurveto
          -52 -25 -56 -14 -46 -12 rrcurveto
          -25 3 15 -15 26 hhcurveto
          43 224 92 139 5 0 5 -1 5 hvcurveto
          -26 22 27 -21 35 29 callsubr
          -20 34 -35 -31 -19 -27 -26 -21 7 -15 10 -16 vhcurveto
          -12 -28 -34 -6 -33 hhcurveto
          -73 -74 34 70 hvcurveto
          132 283 -41 112 vvcurveto
          21 -9 18 -11 13 vhcurveto
          194 -100 callsubr
        </CharString>
        <CharString name="dvD_DA">
          -107 163 callgsubr
          -35 15 -31 24 -26 hvcurveto
          -25 -21 -17 -32 -41 vvcurveto
          -75 94 -93 111 37 34 7 14 26 vhcurveto
          17 -27 7 -28 -27 vvcurveto
          -25 -16 -22 -31 -1 vhcurveto
          -25 4 22 -11 19 hhcurveto
          26 27 21 42 44 -23 43 -25 36 hvcurveto
          15 16 8 20 25 vvcurveto
          32 -24 39 -37 -28 -17 -24 -23 -22 10 -18 14 -16 vhcurveto
          -14 -26 -32 -7 -32 hhcurveto
          -71 -60 38 64 34 17 24 22 14 hvcurveto
          -11 19 21 -6 21 hhcurveto
          25 33 12 33 32 -36 15 -30 -24 -24 -6 -10 -22 hvcurveto
          -13 16 -7 18 17 215 callgsubr
          155 -100 callsubr
        </CharString>
        <CharString name="dvD_DHA">
          74 385 186 107 callgsubr
          -55 43 -54 63 -32 vhcurveto
          -13 -64 -29 -37 -60 hhcurveto
          -33 -21 18 29 hvcurveto
          38 40 37 48 vvcurveto
          29 -18 14 -21 -5 -5 -1 -1 -4 vhcurveto
          3 -8 1 -8 -7 -41 -39 -31 -48 vvcurveto
          -60 64 -52 62 18 16 4 8 15 vhcurveto
          -2 -6 -1 -6 -6 vvcurveto
          -83 93 -48 71 -53 callsubr
        </CharString>
        <CharString name="dvD_GA">
          171 callsubr
          15 -11 7 -14 -15 -84 -291 22 -194 -108 124 -43 -101 vvcurveto
          -32 -6 -13 -12 -19 89 callsubr
          61 26 54 54 40 -13 35 -19 30 hvcurveto
          -12 31 33 -7 35 hhcurveto
          24 23 4 7 20 hvcurveto
          -48 27 37 -56 57 hhcurveto
          31 19 20 25 13 -6 14 -12 10 hvcurveto
          -16 -10 -14 -7 -15 hhcurveto
          -32 -36 32 29 -17 hvcurveto
          23 16 14 25 34 vvcurveto
          28 -21 33 -34 -31 -20 -25 -30 -17 6 -16 8 -13 vhcurveto
          -9 -22 -26 -4 -25 hhcurveto
          -79 -80 42 85 hvcurveto
          168 283 -40 126 vvcurveto
          25 -10 20 -12 15 vhcurveto
          endchar
        </CharString>
        <CharString name="dvD_GHA">
          74 270 219 rmoveto
          -12 -68 -28 -39 -60 hhcurveto
          -38 -25 20 35 34 27 22 37 65 14 -37 -23 76 hvcurveto
          115 -33 107 callgsubr
          -18 4 -17 8 -16 vhcurveto
          9 -21 -23 6 -17 hhcurveto
          -84 -17 -50 -28 -65 64 -54 66 17 15 4 7 14 220 callgsubr
          -7 -6 vvcurveto
          -83 93 -48 71 -53 callsubr
        </CharString>
        <CharString name="dvD_G_RA">
          171 callsubr
          13 -9 9 -12 -13 -78 -291 29 -154 -90 111 -45 -94 vvcurveto
          -32 -6 -13 -12 -19 89 callsubr
          61 26 54 54 41 -13 35 -20 30 hvcurveto
          -13 31 35 -7 36 hhcurveto
          8 8 0 1 8 hvcurveto
          3 -14 1 -30 -30 -29 -1 -27 -26 vvcurveto
          -65 -55 -124 -93 -99 -24 rrcurveto
          -19 4 18 -18 20 hhcurveto
          59 124 91 60 67 hvcurveto
          -5 -28 -2 -54 -22 vvcurveto
          -37 4 -40 39 3 7 1 3 5 vhcurveto
          -7 11 -2 32 32 88 4 79 77 vvcurveto
          29 -2 35 -13 15 vhcurveto
          10 3 9 4 8 4 rrcurveto
          -46 27 36 -52 55 29 callsubr
          -22 34 -33 -31 -19 -27 -26 -21 7 -15 10 -16 vhcurveto
          -12 -28 -33 -6 -33 hhcurveto
          -74 -74 34 70 hvcurveto
          132 283 -41 112 vvcurveto
          21 -9 18 -11 13 vhcurveto
          endchar
        </CharString>
        <CharString name="dvD_MA">
          106 495 -54 callsubr
          -106 -2 -97 -1 -95 vhcurveto
          -59 5 -54 2 -56 1 rrcurveto
          69 -15 -51 62 -69 -28 -25 -8 -24 hhcurveto
          -33 -22 20 32 47 55 8 39 245 callgsubr
          86 17 42 26 29 -15 25 -24 21 hvcurveto
          -321 -96 callgsubr
          224 hlineto
          19 -13 14 -22 -19 vvcurveto
          -21 -14 -18 -37 261 callgsubr
          -75 -49 -30 -54 -74 78 -52 55 hvcurveto
          23 30 9 27 hhcurveto
          36 15 -32 -47 2 hvcurveto
          164 callgsubr
          30 17 36 51 3 vhcurveto
          163 hlineto
          -31 0 -30 -30 vvcurveto
          -40 5 -43 41 4 7 1 3 6 vhcurveto
          -95 callgsubr
        </CharString>
        <CharString name="dvD_NA">
          -89 -37 646 166 callsubr
          -82 -291 21 -190 vvcurveto
          -96 109 -79 106 7 7 1 1 7 vhcurveto
          -101 -52 -45 -30 -34 61 callgsubr
          16 -10 21 -16 26 vhcurveto
          62 41 41 28 27 23 rrcurveto
          22 -25 20 -31 -32 vvcurveto
          -21 -13 -20 -26 -6 vhcurveto
          -20 7 17 -8 17 hhcurveto
          32 20 27 30 51 -45 50 -27 29 hvcurveto
          17 19 5 17 22 vvcurveto
          30 -18 33 -32 -28 -17 -24 -23 -22 8 -17 11 -16 vhcurveto
          -15 -26 -33 271 callsubr
          39 79 hvcurveto
          165 283 -40 124 -21 callsubr
        </CharString>
        <CharString name="dvD_R">
          -89 258 -28 -61 callgsubr
          -295 674 166 callsubr
          -82 -291 21 -190 -44 callgsubr
        </CharString>
        <CharString name="dvD_RA">
          -89 -37 646 166 callsubr
          -82 -291 21 -190 -44 callgsubr
        </CharString>
        <CharString name="dvD_VA">
          -39 272 187 callgsubr
          -309 460 241 callsubr
          13 -9 9 -12 -13 -78 -291 29 -154 177 callgsubr
          -90 96 -51 73 -53 callsubr
        </CharString>
        <CharString name="dvD_YA">
          38 427 -54 callsubr
          -75 -1 -72 -1 -69 vhcurveto
          -76 -39 -67 -50 -82 hhcurveto
          -67 -56 35 53 26 13 19 17 13 hvcurveto
          -15 19 25 -10 31 hhcurveto
          25 34 13 33 39 -44 14 -30 -24 -24 -5 -10 -21 hvcurveto
          -8 11 -6 14 16 78 148 -24 76 vvcurveto
          22 -12 16 -8 10 vhcurveto
          -296 -96 callgsubr
          205 hlineto
          6 -6 5 -8 -8 -53 -150 22 -104 vvcurveto
          -30 17 -31 18 -19 vhcurveto
          -23 -20 -16 -27 -35 vvcurveto
          -67 88 -87 108 68 59 30 47 39 vhcurveto
          -6 -44 0 -39 -38 vvcurveto
          -40 5 -43 41 4 7 1 3 6 vhcurveto
          -95 callgsubr
        </CharString>
        <CharString name="dvE">
          -2 -94 callgsubr
          74 201 callsubr
          -62 -2 -59 -57 -175 359 -41 -107 vvcurveto
          -28 -25 -11 -18 vhcurveto
          -8 10 -28 33 38 16 32 27 vhcurveto
          146 -360 31 153 65 2 62 62 -90 callsubr
          266 hlineto
          16 -34 21 -71 -58 vvcurveto
          -64 -34 -29 -42 -15 -15 3 7 -16 vhcurveto
          -36 36 -22 39 46 51 32 78 66 -21 63 -32 65 vhcurveto
          153 -100 callsubr
        </CharString>
        <CharString name="dvEcandra">
          -2 292 768 rmoveto
          217 callsubr
          hvcurveto
          55 callgsubr
          vhcurveto
          -329 -122 -102 callgsubr
          74 201 callsubr
          -62 -2 -59 -57 -175 359 -41 -107 vvcurveto
          -28 -25 -11 -18 vhcurveto
          -8 10 -28 33 38 16 32 27 vhcurveto
          146 -360 31 153 65 2 62 62 -90 callsubr
          266 hlineto
          16 -34 21 -71 -58 vvcurveto
          -64 -34 -29 -42 -15 -15 3 7 -16 vhcurveto
          -36 36 -22 39 46 51 32 78 66 -21 63 -32 65 vhcurveto
          153 -100 callsubr
        </CharString>
        <CharString name="dvEight">
          -150 367 223 rmoveto
          -82 -28 -70 -33 -67 hhcurveto
          -65 -51 40 73 64 56 72 40 48 hvcurveto
          90 109 78 71 40 vvcurveto
          20 -9 10 -15 5 vhcurveto
          -223 -257 rlineto
          -47 -55 -25 -54 -54 vvcurveto
          -111 120 -73 85 116 51 77 42 21 -13 19 -23 8 vhcurveto
          endchar
        </CharString>
        <CharString name="dvEyelash">
          -259 -94 callgsubr
          311 -103 callsubr
          72 -270 rmoveto
          -24 -34 -46 -16 -50 hhcurveto
          -52 -51 19 34 -32 hvcurveto
          -7 -4 -5 -7 -9 vvcurveto
          -39 82 -47 89 52 66 23 44 7 -2 10 -10 9 vhcurveto
          endchar
        </CharString>
        <CharString name="dvEyelash_HA">
          -72 -57 -95 callsubr
          418 234 callgsubr
          -103 -36 -56 -58 -12 2 -12 3 -11 hvcurveto
          -4 -21 -22 -2 -21 hhcurveto
          -60 -56 13 31 -42 hvcurveto
          -6 -4 -5 -7 -9 vvcurveto
          -35 88 -40 91 28 26 3 6 24 vhcurveto
          8 -10 9 -10 9 -9 rrcurveto
          -32 -33 -18 -45 -45 -73 callsubr
        </CharString>
        <CharString name="dvEyelash_YA">
          184 573 595 -102 callsubr
          -407 -96 callgsubr
          312 hlineto
          -7 callsubr
          vvcurveto
          -78 -113 -61 -112 -60 -56 13 31 -42 vhcurveto
          -6 -4 -5 -7 -9 vvcurveto
          -34 90 -42 91 24 22 2 4 21 vhcurveto
          -1 -2 0 -3 -2 vvcurveto
          -64 102 -100 125 49 56 14 35 43 vhcurveto
          -6 -51 -1 -52 -28 vvcurveto
          -40 5 -43 41 4 7 1 3 6 vhcurveto
          -95 callgsubr
        </CharString>
        <CharString name="dvFive">
          -58 501 47 rmoveto
          -4 -10 -12 -2 -10 hhcurveto
          -79 -31 73 80 -17 hvcurveto
          40 17 31 31 44 vvcurveto
          51 -31 24 -31 -31 -30 -24 -44 -20 4 -20 5 -18 vhcurveto
          -7 -18 -28 -5 -33 hhcurveto
          -86 -41 59 71 118 113 108 102 28 hvcurveto
          11 -8 26 -31 -78 -153 -137 -137 -98 91 -95 127 18 18 2 4 18 vhcurveto
          -92 20 45 -118 86 hhcurveto
          33 16 21 23 10 -2 11 -7 9 hvcurveto
          endchar
        </CharString>
        <CharString name="dvFour">
          -98 232 113 rmoveto
          -66 -41 49 55 58 51 48 60 46 hvcurveto
          54 -43 42 -48 -60 vvcurveto
          -58 -45 -47 -55 vhcurveto
          33 277 rmoveto
          81 59 85 59 79 vvcurveto
          27 -17 22 -26 vhcurveto
          0 -7 0 -6 -3 vhcurveto
          4 -8 1 -8 -9 vvcurveto
          -70 -82 -53 -80 -58 vhcurveto
          -66 50 -60 45 48 vvcurveto
          27 23 14 13 2 vhcurveto
          20 -19 15 -23 -25 -31 -19 -44 -70 81 -53 78 -57 vhcurveto
          -63 -49 -55 -54 -71 vvcurveto
          -69 81 -92 101 73 64 59 81 70 -59 58 -66 52 vhcurveto
          endchar
        </CharString>
        <CharString name="dvG">
          -214 -18 callgsubr
          233 -100 callsubr
        </CharString>
        <CharString name="dvGA">
          -4 -18 callgsubr
          248 201 callsubr
          -158 -4 -140 -137 vvcurveto
          -40 5 -43 41 4 7 1 3 6 vhcurveto
          -95 callgsubr
        </CharString>
        <CharString name="dvGH">
          124 callgsubr
          -80 94 -98 111 127 77 105 46 17 -12 17 -21 6 vhcurveto
          -87 -37 -79 -55 -80 79 callsubr
          endchar
        </CharString>
        <CharString name="dvGHA">
          48 437 -54 callsubr
          -83 -2 -78 -1 -75 vhcurveto
          -65 -36 -69 -41 -73 hhcurveto
          -71 -60 42 70 -29 callsubr
          -80 94 -98 111 256 callgsubr
          vhcurveto
          -6 -46 0 -58 -11 vvcurveto
          -40 5 -43 41 4 7 1 3 6 vhcurveto
          -95 callgsubr
        </CharString>
        <CharString name="dvGH_MA">
          391 780 595 -9 callsubr
          -75 -1 0 -18 -29 -55 rrcurveto
          -59 -31 -42 -46 -75 hhcurveto
          -71 -60 42 70 -29 callsubr
          -80 93 -98 111 90 60 72 47 18 vhcurveto
          -18 17 22 -14 22 243 callsubr
          220 hlineto
          -1 -76 -1 -73 -72 vvcurveto
          -40 5 -43 41 4 7 1 3 6 vhcurveto
          -95 callgsubr
        </CharString>
        <CharString name="dvGH_NA">
          48 437 -54 callsubr
          -84 -2 -80 -1 -77 vhcurveto
          -61 -31 -76 -40 -71 hhcurveto
          -71 -60 42 70 -29 callsubr
          -73 73 -76 89 -17 vhcurveto
          -93 -27 -57 -28 -38 vvcurveto
          -32 42 -37 44 25 24 13 26 15 -7 19 -11 25 vhcurveto
          111 54 78 18 45 54 rrcurveto
          -6 -46 0 -61 -11 vvcurveto
          -40 5 -43 41 4 7 1 3 6 vhcurveto
          -95 callgsubr
        </CharString>
        <CharString name="dvGH_R">
          124 callgsubr
          -83 94 -87 105 6 5 0 1 6 vhcurveto
          -69 -37 -79 -33 -66 -13 rrcurveto
          -29 3 23 -12 21 hhcurveto
          57 189 98 98 81 hvcurveto
          21 26 12 26 18 vvcurveto
          17 -12 17 -21 6 vhcurveto
          -87 -37 -79 -55 -80 79 callsubr
          endchar
        </CharString>
        <CharString name="dvGH_RA">
          48 437 -54 callsubr
          -83 -2 -78 -1 -75 vhcurveto
          -65 -36 -69 -41 -73 hhcurveto
          -71 -60 42 70 -29 callsubr
          -83 94 -87 105 6 5 0 1 6 vhcurveto
          -69 -37 -79 -33 -66 -13 rrcurveto
          -29 3 23 -12 21 hhcurveto
          54 177 94 96 83 hvcurveto
          -6 -46 0 -61 -12 vvcurveto
          -40 5 -43 41 4 7 1 3 6 vhcurveto
          -95 callgsubr
        </CharString>
        <CharString name="dvGH_YA">
          421 810 595 -102 callsubr
          -43 hmoveto
          -7 callsubr
          vvcurveto
          -50 -47 -35 -42 -28 vhcurveto
          -66 -44 -17 -58 -26 -47 rrcurveto
          -46 -26 -33 -35 -78 hhcurveto
          -68 -57 41 69 -29 callsubr
          -79 91 -97 108 119 43 103 45 18 vhcurveto
          -57 37 80 -55 93 hhcurveto
          49 56 14 35 43 hvcurveto
          -6 -51 -1 -52 -28 vvcurveto
          -40 5 -43 41 4 7 1 3 6 vhcurveto
          -95 callgsubr
        </CharString>
        <CharString name="dvG_BA">
          279 612 133 callgsubr
          -476 232 137 callgsubr
          531 47 callgsubr
        </CharString>
        <CharString name="dvG_BHA">
          387 640 155 callgsubr
          -23 -18 -9 -13 -12 hvcurveto
          11 -6 -14 9 -30 hhcurveto
          -355 1 callgsubr
          214 hlineto
          -32 callsubr
          -23 -1 -22 -2 -22 vhcurveto
          -42 -1 -42 81 callgsubr
          218 hlineto
          -1 -76 -1 -73 -72 vvcurveto
          -40 5 -43 41 4 7 1 3 6 vhcurveto
          -95 callgsubr
        </CharString>
        <CharString name="dvG_BH_YA">
          708 1097 -76 callsubr
          vvcurveto
          -86 -139 -38 -13 -50 vhcurveto
          -47 3 -56 3 -63 2 rrcurveto
          175 -2 -54 123 -90 hhcurveto
          -21 -18 -8 -12 -12 hvcurveto
          10 -7 -14 8 -28 hhcurveto
          -355 1 callgsubr
          211 hlineto
          -32 callsubr
          -23 -1 -22 -2 -22 vhcurveto
          -42 -1 -42 81 callgsubr
          174 hlineto
          -64 27 90 -75 108 hhcurveto
          49 56 14 35 43 hvcurveto
          -6 -51 -1 -52 -28 vvcurveto
          -40 5 -43 41 4 7 1 3 6 vhcurveto
          -95 callgsubr
        </CharString>
        <CharString name="dvG_DA">
          263 2 646 137 callgsubr
          485 178 callsubr
          -84 -291 22 -194 vvcurveto
          -97 114 -97 129 34 32 6 14 25 vhcurveto
          -79 callsubr
        </CharString>
        <CharString name="dvG_DHA">
          353 695 -41 callsubr
          -528 1 callgsubr
          233 1 hlineto
          14 1 15 1 18 1 rrcurveto
          51 callsubr
          -78 91 -93 114 256 callgsubr
          vhcurveto
          -6 -46 0 -58 -11 -98 callsubr
          33 -2 34 -24 13 vhcurveto
          158 -100 callsubr
        </CharString>
        <CharString name="dvG_DH_VA">
          670 666 -16 callsubr
          -530 1 callgsubr
          189 hlineto
          20 30 1 3 43 hvcurveto
          -32 -28 -12 -39 -30 vvcurveto
          -46 21 -41 31 -29 vhcurveto
          -21 -23 -13 -31 -39 93 callgsubr
        </CharString>
        <CharString name="dvG_DH_YA">
          723 1112 -76 callsubr
          vvcurveto
          -57 -64 -41 -48 -32 vhcurveto
          -59 -88 11 -150 -163 hhcurveto
          -57 -47 38 61 -51 callgsubr
          -529 1 callgsubr
          190 hlineto
          20 29 1 3 42 hvcurveto
          -32 -28 -12 -39 143 callgsubr
          -75 81 -86 101 92 70 78 66 26 vhcurveto
          -59 35 84 -57 96 hhcurveto
          49 56 14 35 43 hvcurveto
          -6 -51 -1 -52 -28 vvcurveto
          -40 5 -43 41 4 7 1 3 6 vhcurveto
          -95 callgsubr
        </CharString>
        <CharString name="dvG_GA">
          286 -18 callgsubr
          243 -79 callgsubr
          248 201 callsubr
          -158 -4 -140 -137 vvcurveto
          -40 5 -43 41 4 7 1 3 6 vhcurveto
          -95 callgsubr
        </CharString>
        <CharString name="dvG_GHA">
          348 737 -54 callsubr
          -83 -2 -78 -1 -75 vhcurveto
          -65 -36 -69 -41 -73 79 callsubr
          -490 -1 callsubr
          233 hlineto
          1 2 rlineto
          8 8 1 1 7 hvcurveto
          52 callgsubr
          -80 94 -98 111 256 callgsubr
          vhcurveto
          -6 -46 0 -58 -11 vvcurveto
          -40 5 -43 41 4 7 1 3 6 vhcurveto
          -95 callgsubr
        </CharString>
        <CharString name="dvG_JA">
          456 -18 callgsubr
          708 hlineto
          8 -12 2 -36 -34 vvcurveto
          -76 -331 vlineto
          -74 callsubr
          203 hlineto
          -1 -108 -2 -101 -99 vvcurveto
          -40 5 -43 41 4 7 1 3 6 vhcurveto
          -95 callgsubr
        </CharString>
        <CharString name="dvG_LA">
          468 -18 callgsubr
          720 hlineto
          8 -12 2 -36 -34 vvcurveto
          -41 0 -40 -1 -38 vhcurveto
          23 -26 -31 13 -41 hhcurveto
          -50 -41 -28 -35 -27 -88 callsubr
          23 -10 156 callgsubr
          38 23 41 hhcurveto
          32 26 -9 -17 22 hvcurveto
          -1 -96 -2 -91 -89 vvcurveto
          -40 5 -43 41 4 7 1 3 6 vhcurveto
          -95 callgsubr
        </CharString>
        <CharString name="dvG_MA">
          311 700 3 callgsubr
          -504 -1 callsubr
          290 hlineto
          -48 callgsubr
          -43 -44 -7 -44 12 callgsubr
          hvcurveto
          220 hlineto
          -1 -76 -1 -73 -72 vvcurveto
          -40 5 -43 41 4 7 1 3 6 vhcurveto
          -95 callgsubr
        </CharString>
        <CharString name="dvG_NA">
          -4 -37 646 137 callsubr
          246 -12 callgsubr
          -86 -1 -82 -1 -78 vhcurveto
          -192 -108 -88 -37 -48 61 callgsubr
          15 -8 19 -15 24 vhcurveto
          171 112 rlineto
          -6 -40 -2 -72 -31 vvcurveto
          -40 5 -43 41 4 7 1 3 6 vhcurveto
          -95 callgsubr
        </CharString>
        <CharString name="dvG_NNA">
          488 623 78 callgsubr
          -464 -1 callsubr
          250 201 callsubr
          -51 240 callgsubr
          -102 89 -83 85 66 63 38 153 61 -9 97 -34 58 vhcurveto
          222 201 callsubr
          -158 -4 -140 -137 vvcurveto
          -40 5 -43 41 4 7 1 3 6 vhcurveto
          -95 callgsubr
        </CharString>
        <CharString name="dvG_N_YA">
          325 714 595 -102 callsubr
          -548 51 137 callsubr
          329 hlineto
          -7 callsubr
          -90 -153 -38 -53 vvcurveto
          -23 12 -27 20 -26 vhcurveto
          -181 -102 -84 -36 -47 61 callgsubr
          15 -8 19 -15 24 vhcurveto
          140 92 17 12 12 9 7 9 rlinecurve
          -40 43 62 -31 70 hhcurveto
          49 56 14 35 43 hvcurveto
          -6 -51 -1 -52 -28 vvcurveto
          -40 5 -43 41 4 7 1 3 6 vhcurveto
          -95 callgsubr
        </CharString>
        <CharString name="dvG_R">
          98 callsubr
          271 -293 35 callsubr
          endchar
        </CharString>
        <CharString name="dvG_RA">
          -4 -37 646 137 callsubr
          246 -12 callgsubr
          -79 -1 -75 -1 -71 vhcurveto
          -70 -59 -132 -98 -106 -26 92 callgsubr
          63 134 98 64 72 hvcurveto
          -5 -38 -3 -79 -32 vvcurveto
          -40 5 -43 41 4 7 1 3 6 vhcurveto
          -95 callgsubr
        </CharString>
        <CharString name="dvG_R_YA">
          350 739 595 -102 callsubr
          -573 51 137 callsubr
          354 hlineto
          -7 callsubr
          -90 -153 -38 -53 vvcurveto
          -16 6 -18 10 -19 vhcurveto
          -81 -69 -116 -82 -105 -26 92 callgsubr
          66 168 118 65 48 hvcurveto
          -47 42 70 -41 80 hhcurveto
          49 56 14 35 43 hvcurveto
          -6 -51 -1 -52 -28 vvcurveto
          -40 5 -43 41 4 7 1 3 6 vhcurveto
          -95 callgsubr
        </CharString>
        <CharString name="dvG_SA">
          472 861 -42 callgsubr
          -630 -1 callsubr
          408 -82 callgsubr
          -52 42 -36 50 -14 hvcurveto
          -104 21 56 -7 callgsubr
          -26 60 57 -9 47 hhcurveto
          36 27 5 5 16 hvcurveto
          -1 -69 -1 -67 -66 vvcurveto
          -40 5 -43 41 4 7 1 3 6 vhcurveto
          -95 callgsubr
        </CharString>
        <CharString name="dvG_VA">
          261 -18 callgsubr
          513 -63 callgsubr
          -115 98 -79 95 47 50 20 41 30 vhcurveto
          151 callgsubr
          -45 -101 callsubr
        </CharString>
        <CharString name="dvG_YA">
          338 727 595 -102 callsubr
          -561 -1 callsubr
          344 hlineto
          -7 callsubr
          -90 -153 -38 -53 136 callgsubr
          49 56 14 35 43 vhcurveto
          -6 -51 -1 -52 -28 vvcurveto
          -40 5 -43 41 4 7 1 3 6 vhcurveto
          -95 callgsubr
        </CharString>
        <CharString name="dvGx">
          -214 88 callgsubr
          233 -100 callsubr
        </CharString>
        <CharString name="dvGxA">
          -4 88 callgsubr
          248 201 callsubr
          -158 -4 -140 -137 vvcurveto
          -40 5 -43 41 4 7 1 3 6 vhcurveto
          -95 callgsubr
        </CharString>
        <CharString name="dvGx_R">
          98 callsubr
          124 -537 -75 callsubr
          147 244 35 callsubr
          endchar
        </CharString>
        <CharString name="dvGx_RA">
          -4 263 58 -75 callsubr
          -300 588 137 callsubr
          246 -12 callgsubr
          -79 -1 -75 -1 -71 vhcurveto
          -70 -59 -132 -98 -106 -26 92 callgsubr
          63 134 98 64 72 hvcurveto
          -5 -38 -3 -79 -32 vvcurveto
          -40 5 -43 41 4 7 1 3 6 vhcurveto
          -95 callgsubr
        </CharString>
        <CharString name="dvH">
          -72 273 -135 -61 callgsubr
          -310 781 -102 callgsubr
          283 234 callgsubr
          -103 -36 -56 -58 -46 26 -37 29 -29 hvcurveto
          -32 -33 -18 -45 -45 -73 callsubr
        </CharString>
        <CharString name="dvHA">
          156 callsubr
          26 -37 29 -29 hvcurveto
          -32 -33 -18 -45 -45 -73 callsubr
        </CharString>
        <CharString name="dvHA_mU">
          156 callsubr
          25 -36 29 -29 hvcurveto
          -31 -32 -18 -42 -43 vvcurveto
          -101 69 -67 96 -34 vhcurveto
          -20 -10 -12 -17 -19 vvcurveto
          -16 12 -19 23 -2 vhcurveto
          172 callsubr
          79 63 48 67 vhcurveto
          162 -287 -48 182 vvcurveto
          93 83 47 66 62 41 -34 -48 -41 -30 -32 -52 -2 vhcurveto
          -28 23 -14 24 50 32 46 48 68 -67 84 -105 -41 -36 -12 -19 -28 vhcurveto
          -20 22 -13 22 28 vvcurveto
          39 29 43 62 vhcurveto
          28 23 -1 29 228 callsubr
          34 -17 30 -22 21 hvcurveto
          165 -100 callsubr
        </CharString>
        <CharString name="dvHA_mUU">
          156 callsubr
          26 -37 29 -29 hvcurveto
          -32 -33 -18 -45 -45 vvcurveto
          -82 54 -64 73 -36 vhcurveto
          -64 -7 -44 -40 -50 vvcurveto
          157 callsubr
          30 -34 58 -55 46 vhcurveto
          -99 83 -157 12 138 vvcurveto
          88 85 49 64 62 41 -34 -48 -41 -30 -32 -52 -2 vhcurveto
          -28 23 -14 24 50 32 46 48 68 -67 84 -105 -41 -36 -12 -19 -28 vhcurveto
          -19 21 -14 23 28 vvcurveto
          39 29 43 62 vhcurveto
          28 23 -1 29 228 callsubr
          34 -17 30 -22 21 hvcurveto
          165 -100 callsubr
        </CharString>
        <CharString name="dvHA_mvR">
          43 -94 callgsubr
          328 hlineto
          21 -12 18 -20 -22 vvcurveto
          -22 -17 -19 -34 vhcurveto
          -50 -21 1 -40 229 callsubr
          -45 28 -35 31 -28 hvcurveto
          -35 -36 -19 -46 186 callsubr
          108 97 59 90 49 26 -25 -31 hvcurveto
          -33 -27 -27 -37 vvcurveto
          -45 49 -57 68 61 47 46 56 21 -15 17 -21 2 vhcurveto
          -81 -19 -49 -26 -30 hhcurveto
          -20 -24 10 33 hvcurveto
          37 27 28 34 vvcurveto
          71 -75 54 -65 -58 -49 -17 -28 -37 vhcurveto
          -21 21 -15 20 27 vvcurveto
          39 29 43 62 vhcurveto
          43 36 -1 45 134 callsubr
          239 -100 callsubr
        </CharString>
        <CharString name="dvH_LA">
          65 -94 callgsubr
          422 hlineto
          22 -13 16 -22 -19 vvcurveto
          -22 -17 -19 -34 vhcurveto
          -92 -39 1 -73 229 callsubr
          -49 29 -39 32 -31 hvcurveto
          -36 -38 -20 -52 -55 vvcurveto
          -143 120 -113 133 52 callsubr
          -118 -100 102 105 123 102 62 83 86 57 -41 -61 26 hvcurveto
          6 -12 -13 4 -15 hhcurveto
          -23 -21 -12 -15 -15 hvcurveto
          19 -20 -25 12 -26 hhcurveto
          -45 -43 -33 -56 -94 93 -45 29 9 6 6 8 1 hvcurveto
          -49 21 -41 37 50 vvcurveto
          31 19 31 37 14 12 -4 -8 10 vhcurveto
          -9 -13 -7 -19 -17 vvcurveto
          -30 16 -18 21 26 8 26 18 13 -3 13 -5 12 vhcurveto
          16 11 15 9 21 hhcurveto
          14 12 -4 -8 11 hvcurveto
          3 -14 1 -15 -15 -14 -1 -14 -13 -99 callsubr
          14 1 12 14 vvcurveto
          103 -105 133 -147 -57 -49 -18 -30 -38 vhcurveto
          -22 24 -16 23 31 vvcurveto
          39 29 43 62 vhcurveto
          76 63 -1 78 hhcurveto
          54 33 29 41 30 -16 27 -21 19 hvcurveto
          168 -100 callsubr
        </CharString>
        <CharString name="dvH_MA">
          203 266 callsubr
          -124 -2 -114 -1 -110 vhcurveto
          -49 4 -68 2 -50 1 rrcurveto
          79 -8 -68 86 -95 hhcurveto
          -41 -36 -13 -21 -28 hvcurveto
          -20 20 -13 20 25 vvcurveto
          39 29 43 62 vhcurveto
          43 36 -1 45 134 callsubr
          -430 -96 callgsubr
          328 hlineto
          21 -12 18 -20 -22 vvcurveto
          -22 -17 -19 -34 vhcurveto
          -50 -21 1 -40 229 callsubr
          -43 26 -35 30 -27 hvcurveto
          -33 -35 -18 -48 -49 124 callsubr
          106 83 53 66 57 45 -45 -73 1 hvcurveto
          -40 -42 -6 -41 -35 42 -48 39 31 13 37 46 3 hvcurveto
          166 -62 hlineto
          -98 callgsubr
          163 4 145 142 -85 callgsubr
        </CharString>
        <CharString name="dvH_NA">
          -13 -37 646 112 callsubr
          5 -1 3 130 callsubr
          107 87 59 88 46 36 -17 -26 22 hvcurveto
          -131 -64 -60 -37 -36 vvcurveto
          -31 42 -30 41 26 24 14 25 15 -8 18 -14 24 vhcurveto
          101 64 rlineto
          3 -12 2 -12 -13 -31 -1 -22 -30 vvcurveto
          -37 4 -40 38 4 7 1 3 5 vhcurveto
          -7 11 -3 33 31 25 1 16 23 vvcurveto
          79 -79 103 -121 -52 -44 -16 -26 -34 vhcurveto
          -20 20 -14 20 26 vvcurveto
          39 29 43 62 vhcurveto
          48 41 -1 50 134 callsubr
          163 -100 callsubr
        </CharString>
        <CharString name="dvH_NNA">
          65 323 291 rmoveto
          16 15 -1 -3 14 hvcurveto
          15 -36 0 -47 -16 vvcurveto
          -92 -26 -30 -35 -41 -17 35 58 71 -2 31 -19 11 vhcurveto
          12 26 27 7 27 hhcurveto
          -360 355 -102 callgsubr
          422 hlineto
          22 -13 16 -22 -19 vvcurveto
          -22 -17 -19 -34 vhcurveto
          -92 -39 1 -73 229 callsubr
          -50 31 -40 32 -31 hvcurveto
          -37 -41 -21 -55 -55 vvcurveto
          -149 128 -99 35 callgsubr
          70 127 75 35 55 46 32 hvcurveto
          -1 -48 -3 -2 -64 vvcurveto
          -56 64 -64 63 46 42 25 106 32 -5 48 -16 39 vhcurveto
          66 -30 33 -66 -77 -14 -1 -14 -13 -99 callsubr
          14 1 12 14 vvcurveto
          103 -105 133 -147 -57 -48 -19 -30 -37 vhcurveto
          -23 24 -17 24 31 vvcurveto
          39 29 43 62 vhcurveto
          76 63 -1 78 hhcurveto
          54 33 29 41 30 -16 27 -21 19 hvcurveto
          163 -100 callsubr
        </CharString>
        <CharString name="dvH_R">
          -13 273 -154 -61 callgsubr
          -310 800 4 callgsubr
        </CharString>
        <CharString name="dvH_RA">
          -13 -37 646 4 callgsubr
        </CharString>
        <CharString name="dvH_VA">
          -7 -37 646 30 callgsubr
          -156 128 -102 195 callsubr
          8 -1 165 callgsubr
          74 133 107 87 59 88 83 48 -53 -67 -20 0 -18 -1 -17 hvcurveto
          -55 -28 -47 -26 -45 hhcurveto
          -38 -32 26 35 32 25 33 45 16 18 -4 -8 14 hvcurveto
          1 4 1 4 5 vvcurveto
          29 -25 18 -44 -40 -53 -30 -61 -66 70 -55 61 39 44 19 38 23 vhcurveto
          -2 -9 0 -9 -8 vvcurveto
          -36 13 -21 25 4 7 1 3 5 vhcurveto
          -7 11 -3 33 31 40 1 28 38 vvcurveto
          79 -81 103 -119 -52 -44 -16 -25 -33 vhcurveto
          -20 20 -15 23 29 vvcurveto
          38 32 37 59 vhcurveto
          48 41 -1 50 134 callsubr
          168 -100 callsubr
        </CharString>
        <CharString name="dvH_YA">
          162 266 callsubr
          -117 -2 -107 -2 -103 vhcurveto
          -73 -42 -65 -24 -49 hhcurveto
          -41 -31 17 20 hvcurveto
          29 93 23 55 vvcurveto
          64 -85 48 -75 -58 -49 -17 -28 -37 vhcurveto
          -21 21 -15 20 27 vvcurveto
          39 29 43 62 vhcurveto
          43 36 -1 45 134 callsubr
          -430 -96 callgsubr
          328 hlineto
          21 -12 18 -20 -22 vvcurveto
          -22 -17 -19 -34 vhcurveto
          -50 -21 1 -40 229 callsubr
          -45 28 -35 31 -28 hvcurveto
          -35 -36 -19 -46 186 callsubr
          108 97 59 90 66 30 -21 -25 hvcurveto
          -49 -95 -15 -39 vvcurveto
          -53 73 -53 81 41 54 26 42 34 vhcurveto
          -4 -16 -3 -23 -21 vvcurveto
          -37 10 -34 36 -96 callsubr
          163 4 145 142 -85 callgsubr
        </CharString>
        <CharString name="dvI">
          -71 -94 callgsubr
          270 hlineto
          23 -18 16 -27 -21 vvcurveto
          -21 -16 -17 -38 vhcurveto
          -25 -20 144 callgsubr
          -70 90 -69 69 hvcurveto
          143 callsubr
          -30 -43 -35 callsubr
          85 -88 56 -77 hvcurveto
          -23 -20 -2 -19 hhcurveto
          -56 -25 35 31 28 callsubr
          183 -100 callsubr
        </CharString>
        <CharString name="dvII">
          -71 281 646 rmoveto
          -31 22 -32 44 54 225 callgsubr
          19 3 15 13 43 -37 61 -68 -49 -49 -40 -74 -58 35 -55 32 -25 hvcurveto
          13 callsubr
          endchar
        </CharString>
        <CharString name="dvII_Anusvara">
          -71 281 646 rmoveto
          -31 22 -32 44 54 215 callsubr
          -49 -49 -40 -74 -58 35 -55 32 -25 vhcurveto
          13 callsubr
          -159 139 86 callgsubr
          endchar
        </CharString>
        <CharString name="dvJ">
          -113 513 -42 callsubr
          -498 49 callsubr
          159 -158 rmoveto
          -74 callsubr
          252 -100 callsubr
        </CharString>
        <CharString name="dvJA">
          106 -94 callgsubr
          480 hlineto
          8 -12 2 -36 -34 vvcurveto
          -76 -331 vlineto
          -74 callsubr
          203 hlineto
          -1 -108 -2 -101 -99 vvcurveto
          -40 5 -43 41 4 7 1 3 6 vhcurveto
          -95 callgsubr
        </CharString>
        <CharString name="dvJH">
          -64 540 -42 callsubr
          -525 hlineto
          45 callsubr
          32 -11 27 -18 23 hvcurveto
          -3 17 15 -1 15 hhcurveto
          54 66 24 39 14 -6 12 -10 9 hvcurveto
          -29 -29 -46 -24 -68 -61 -31 23 -49 -24 -20 -2 -21 hhcurveto
          -56 -25 32 29 28 callsubr
          endchar
        </CharString>
        <CharString name="dvJHA">
          176 565 595 rmoveto
          8 -12 2 -36 -34 -62 -1 -59 -58 vvcurveto
          -23 -29 -56 -22 -60 -73 -34 25 -50 -28 callsubr
          32 -11 27 -17 23 hvcurveto
          -4 21 22 -2 19 hhcurveto
          43 41 12 14 25 hvcurveto
          -5 -65 -1 -64 -63 vvcurveto
          -40 5 -43 41 4 7 1 3 6 vhcurveto
          -95 callgsubr
        </CharString>
        <CharString name="dvJH_MA">
          451 840 595 -9 callsubr
          -30 -29 -1 -24 -22 hvcurveto
          -18 -16 -28 -16 -40 -61 -31 23 -49 -28 callsubr
          32 -11 28 -18 23 hvcurveto
          -3 12 11 -1 12 hhcurveto
          21 24 5 10 17 hvcurveto
          -28 16 31 -25 30 243 callsubr
          220 hlineto
          -1 -76 -1 -73 -72 vvcurveto
          -40 5 -43 41 4 7 1 3 6 vhcurveto
          -95 callgsubr
        </CharString>
        <CharString name="dvJH_NA">
          284 673 595 rmoveto
          10 -12 0 -36 -34 -55 -1 -52 -51 vvcurveto
          -45 -51 -83 -13 -74 -84 -68 17 -50 22 callgsubr
          25 hvcurveto
          -5 34 35 -4 35 hhcurveto
          69 66 11 28 50 hvcurveto
          -1 -21 -1 -20 -1 -20 rrcurveto
          -172 -98 -38 -26 -42 vvcurveto
          -32 42 -31 44 27 25 14 26 17 -11 22 -18 29 vhcurveto
          105 73 rlineto
          -5 -35 -2 -36 -33 17 callsubr
          vhcurveto
          0 8 1 9 3 vhcurveto
          -95 callgsubr
        </CharString>
        <CharString name="dvJH_R">
          -64 540 -42 callsubr
          -525 49 callsubr
          291 82 callgsubr
          -40 -39 callgsubr
          37 -15 31 -23 24 hvcurveto
          -5 31 32 -3 34 hhcurveto
          58 62 11 27 44 hvcurveto
          -1 -16 -1 -17 -16 vvcurveto
          -54 -66 -77 -81 -70 -34 rrcurveto
          -21 8 15 -8 17 hhcurveto
          58 134 146 101 32 -8 34 -16 19 hvcurveto
          -52 -46 -91 -14 -57 -81 -59 17 -56 190 callsubr
          endchar
        </CharString>
        <CharString name="dvJH_RA">
          256 645 -58 callgsubr
          -55 -1 -53 -51 vvcurveto
          -45 -48 -84 -12 -54 -81 -59 17 -56 22 callgsubr
          24 hvcurveto
          -5 31 32 -3 34 hhcurveto
          58 62 11 27 44 hvcurveto
          -1 -16 -1 -17 -16 vvcurveto
          -54 -66 -77 -81 -70 -34 rrcurveto
          -21 8 15 -8 17 hhcurveto
          44 68 74 70 51 hvcurveto
          -4 -32 -2 -34 -31 vvcurveto
          -40 5 -43 41 4 7 1 3 6 vhcurveto
          -95 callgsubr
        </CharString>
        <CharString name="dvJH_YA">
          503 892 595 -102 callsubr
          -43 hmoveto
          -7 callsubr
          vvcurveto
          -70 -99 -42 -42 -43 vhcurveto
          -32 -30 -38 -27 -79 -51 -25 12 -41 -28 callsubr
          36 -14 31 -22 24 hvcurveto
          -1 10 11 -1 9 hhcurveto
          42 39 12 20 28 hvcurveto
          -61 31 86 -68 103 hhcurveto
          49 56 14 35 43 hvcurveto
          -6 -51 -1 -52 -28 vvcurveto
          -40 5 -43 41 4 7 1 3 6 vhcurveto
          -95 callgsubr
        </CharString>
        <CharString name="dvJ_BA">
          418 751 133 callgsubr
          -615 -24 callgsubr
          792 64 callgsubr
          vhcurveto
          -12 vlineto
          82 -59 -41 15 -114 hhcurveto
          -105 -67 callsubr
          103 22 -5 -140 102 hvcurveto
          -54 39 63 -34 63 hhcurveto
          47 50 20 41 30 hvcurveto
          151 callgsubr
          -45 -101 callsubr
        </CharString>
        <CharString name="dvJ_DA">
          366 -94 callgsubr
          749 178 callsubr
          vvcurveto
          -40 -63 -18 -66 -25 vhcurveto
          -27 -72 -49 -8 -135 hhcurveto
          -227 -67 callsubr
          152 hlineto
          29 26 2 3 25 hvcurveto
          -23 -23 -15 -30 -39 vvcurveto
          -97 114 -97 129 34 32 6 14 25 vhcurveto
          -79 callsubr
        </CharString>
        <CharString name="dvJ_DDA">
          346 -94 callgsubr
          723 117 callsubr
          -72 -47 -33 -59 -5 hvcurveto
          22 -29 -31 10 -31 hhcurveto
          -252 -67 callsubr
          132 hlineto
          77 4 -39 -40 46 hvcurveto
          -31 34 47 -18 38 -84 callsubr
          172 -100 callsubr
        </CharString>
        <CharString name="dvJ_JA">
          566 -94 callgsubr
          940 1 callsubr
          -119 -65 169 92 -26 vhcurveto
          -318 -67 callsubr
          175 hlineto
          -82 19 81 -180 139 hhcurveto
          63 54 41 74 66 -44 54 -27 27 hvcurveto
          203 hlineto
          -1 -108 -2 -101 -99 vvcurveto
          -40 5 -43 41 4 7 1 3 6 vhcurveto
          -95 callgsubr
        </CharString>
        <CharString name="dvJ_JHA">
          606 995 131 callgsubr
          -797 -96 callgsubr
          701 82 callgsubr
          -20 144 callgsubr
          hvcurveto
          -7 vlineto
          42 -53 -37 7 -95 hhcurveto
          -145 -67 callsubr
          33 hlineto
          107 17 -3 -84 105 hvcurveto
          -24 30 37 -14 33 23 callsubr
          32 -11 27 -17 23 hvcurveto
          -4 21 22 -2 19 hhcurveto
          43 41 12 14 25 hvcurveto
          -5 -65 -1 -64 -63 vvcurveto
          -40 5 -43 41 4 7 1 3 6 vhcurveto
          -95 callgsubr
        </CharString>
        <CharString name="dvJ_J_NYA">
          528 -94 callgsubr
          902 -12 callgsubr
          -65 -753 vlineto
          -74 callsubr
          331 -12 callsubr
          245 hlineto
          -1 -112 -2 -104 -103 vvcurveto
          -40 5 -43 41 4 7 1 3 6 vhcurveto
          -95 callgsubr
        </CharString>
        <CharString name="dvJ_J_VA">
          881 -94 callgsubr
          1255 -63 callgsubr
          vhcurveto
          -4 vlineto
          87 -68 -41 7 -118 hhcurveto
          -102 hlineto
          -13 callgsubr
          -119 -65 169 92 -26 vhcurveto
          -318 -67 callsubr
          175 hlineto
          -82 19 81 -180 139 hhcurveto
          63 54 41 74 66 -44 54 -27 27 hvcurveto
          106 28 -8 -141 103 hvcurveto
          -52 38 60 -32 60 hhcurveto
          47 50 20 41 30 hvcurveto
          151 callgsubr
          -45 -101 callsubr
        </CharString>
        <CharString name="dvJ_J_YA">
          928 1317 595 -102 callsubr
          -1151 -96 callgsubr
          1056 hlineto
          -7 callsubr
          vvcurveto
          -79 -118 -39 -29 -44 vhcurveto
          76 -65 -39 7 -112 hhcurveto
          -105 hlineto
          -13 callgsubr
          -119 -65 169 92 -26 vhcurveto
          -318 -67 callsubr
          175 hlineto
          -82 19 81 -180 139 hhcurveto
          63 54 41 74 66 -44 54 -27 27 hvcurveto
          99 23 -6 -121 98 hvcurveto
          -50 41 74 -49 86 hhcurveto
          49 56 14 35 43 hvcurveto
          -6 -51 -1 -52 -28 vvcurveto
          -40 5 -43 41 4 7 1 3 6 vhcurveto
          -95 callgsubr
        </CharString>
        <CharString name="dvJ_KA">
          607 -94 callgsubr
          748 -101 callgsubr
          -85 -55 -58 -67 -4 vhcurveto
          65 -41 -54 26 -59 hhcurveto
          -151 -67 callsubr
          31 hlineto
          80 24 -32 -114 73 hvcurveto
          -51 33 55 -36 57 hhcurveto
          55 callsubr
          hvcurveto
          -27 callgsubr
        </CharString>
        <CharString name="dvJ_MA">
          417 806 3 callgsubr
          -610 -96 callgsubr
          518 hlineto
          -48 callgsubr
          -31 -32 -4 -19 -15 hvcurveto
          94 -53 -35 16 -99 hhcurveto
          -105 -67 callsubr
          76 16 -8 -120 78 hvcurveto
          -26 17 28 -23 29 243 callsubr
          220 hlineto
          -1 -76 -1 -73 -72 vvcurveto
          -40 5 -43 41 4 7 1 3 6 vhcurveto
          -95 callgsubr
        </CharString>
        <CharString name="dvJ_NA">
          106 -94 callgsubr
          480 -12 callgsubr
          -46 -331 vlineto
          63 callsubr
          205 hlineto
          -1 -62 0 -59 -1 -57 rrcurveto
          -192 -97 -88 -35 -43 61 callgsubr
          14 -8 18 -12 22 vhcurveto
          167 99 rlineto
          -5 -33 -2 -57 -25 vvcurveto
          -40 5 -43 41 4 7 1 3 6 vhcurveto
          -95 callgsubr
        </CharString>
        <CharString name="dvJ_NY">
          -154 -55 -95 callsubr
          477 -103 callsubr
          -336 -198 -102 callgsubr
          46 -12 callsubr
          224 225 callsubr
          endchar
        </CharString>
        <CharString name="dvJ_NYA">
          98 -94 callgsubr
          472 -12 callgsubr
          -65 -393 vlineto
          -106 callgsubr
          46 -12 callsubr
          245 hlineto
          -1 -112 -2 -104 -103 vvcurveto
          -40 5 -43 41 4 7 1 3 6 vhcurveto
          -95 callgsubr
        </CharString>
        <CharString name="dvJ_NY_YA">
          415 804 595 -102 callsubr
          -656 -96 callgsubr
          561 hlineto
          -7 callsubr
          vvcurveto
          -83 -129 -38 -21 -47 vhcurveto
          59 -49 -59 41 -74 hhcurveto
          -171 49 callsubr
          46 -12 callsubr
          31 hlineto
          87 50 -58 -90 76 hvcurveto
          -48 41 70 -41 81 hhcurveto
          49 56 14 35 43 hvcurveto
          -6 -51 -1 -52 -28 vvcurveto
          -40 5 -43 41 4 7 1 3 6 vhcurveto
          -95 callgsubr
        </CharString>
        <CharString name="dvJ_R">
          59 callgsubr
          219 -134 35 callsubr
          endchar
        </CharString>
        <CharString name="dvJ_RA">
          106 -94 callgsubr
          480 -12 callgsubr
          -46 -331 vlineto
          63 callsubr
          205 hlineto
          -1 -52 0 -50 -1 -48 -70 -58 -133 -97 -106 -26 rrcurveto
          -28 4 20 -12 20 hhcurveto
          64 136 100 65 72 hvcurveto
          -6 -32 -3 -70 -30 vvcurveto
          -40 5 -43 41 4 7 1 3 6 vhcurveto
          -95 callgsubr
        </CharString>
        <CharString name="dvJ_TA">
          395 -94 callgsubr
          769 265 callsubr
          13 -70 -351 5 -199 hhcurveto
          -74 callsubr
          170 hlineto
          24 21 1 1 15 hvcurveto
          -31 -22 -17 -36 -46 vvcurveto
          -132 111 -139 154 callgsubr
          vhcurveto
          21 callsubr
          123 hlineto
          -1 -105 -2 -99 -97 vvcurveto
          -40 5 -43 41 4 7 1 3 6 vhcurveto
          -95 callgsubr
        </CharString>
</ttFont>
